LuxiSans-Oblique.sfdir
StartChar: exclam
Encoding: 33 33 232
Width: 278
Flags: MW
HStem: 0 96<91 207 110 187> 703 20<236 332 332 332>
LayerCount: 2
Fore
SplineSet
91 0 m 1
 110 96 l 1
 207 96 l 1
 187 0 l 1
 91 0 l 1
142 193 m 1
 207 578 l 1
 236 723 l 1
 332 723 l 1
 303 578 l 1
 214 193 l 1
 142 193 l 1
EndSplineSet
EndChar
StartChar: quotedbl
Encoding: 34 34 255
Width: 355
Flags: W
LayerCount: 2
Fore
SplineSet
163 530 m 1
 199 771 l 1
 295 771 l 1
 235 530 l 1
 163 530 l 1
331 530 m 1
 368 771 l 1
 464 771 l 1
 404 530 l 1
 331 530 l 1
EndSplineSet
EndChar
StartChar: numbersign
Encoding: 35 35 257
Width: 556
Flags: MW
HStem: 0 20 217 61<80 159 56 186 80 221 248 350 439 530> 446 60<171 262 147 289 171 324 351 453 542 621> 703 20<387 449 449 449 578 640 640 640>
LayerCount: 2
Fore
SplineSet
61 0 m 1
 159 217 l 1
 56 217 l 1
 80 278 l 1
 186 278 l 1
 262 446 l 1
 147 446 l 1
 171 506 l 1
 289 506 l 1
 387 723 l 1
 449 723 l 1
 351 506 l 1
 480 506 l 1
 578 723 l 1
 640 723 l 1
 542 506 l 1
 646 506 l 1
 621 446 l 1
 515 446 l 1
 439 278 l 1
 555 278 l 1
 530 217 l 1
 412 217 l 1
 315 0 l 1
 252 0 l 1
 350 217 l 1
 221 217 l 1
 124 0 l 1
 61 0 l 1
248 278 m 1
 377 278 l 1
 453 446 l 1
 324 446 l 1
 248 278 l 1
EndSplineSet
EndChar
StartChar: dollar
Encoding: 36 36 214
Width: 556
Flags: MW
HStem: 0 20
VStem: 177 86<514.5 562 514.5 570> 415 89<181 222>
LayerCount: 2
Fore
SplineSet
230 -60 m 1
 243 0 l 1
 184 0 125 13 58 41 c 1
 75 124 l 1
 141 89 202 72 257 72 c 1
 309 332 l 1
 204 405 177 443 177 515 c 0
 177 625 264 711 387 723 c 1
 399 783 l 1
 447 783 l 1
 435 723 l 1
 482 723 532 712 585 690 c 1
 570 611 l 1
 512 639 464 653 422 657 c 1
 371 399 l 1
 393 384 397 381 405 375 c 0
 475 330 504 289 504 236 c 0
 504 126 416 28 291 0 c 1
 279 -60 l 1
 230 -60 l 1
351 303 m 1
 307 78 l 1
 380 105 415 146 415 206 c 0
 415 238 397 265 351 303 c 1
329 431 m 1
 373 654 l 1
 298 629 263 591 263 533 c 0
 263 496 281 468 329 431 c 1
EndSplineSet
EndChar
StartChar: percent
Encoding: 37 37 278
Width: 889
Flags: W
HStem: -18 20 0 48<669.5 718.5 669.5 734.5> 313 48<712.5 761.5> 362 48<272.5 321.5 272.5 337.5> 675 48<315.5 364.5> 721 20<840 915 915 915>
VStem: 158 76<466 542.5 466 558.5> 403 76<542.5 619> 555 76<104 180.5 104 196> 800 76<180.5 257>
LayerCount: 2
Fore
SplineSet
119 -18 m 1x87c0
 840 741 l 1
 915 741 l 1
 194 -18 l 1
 119 -18 l 1x87c0
357 723 m 0x7bc0
 438 723 479 679 479 592 c 0
 479 461 394 362 281 362 c 0
 199 362 158 405 158 492 c 0
 158 625 243 723 357 723 c 0x7bc0
345 675 m 0
 286 675 234 591 234 494 c 0
 234 438 253 410 292 410 c 0
 351 410 403 494 403 591 c 0
 403 647 384 675 345 675 c 0
754 361 m 0
 835 361 876 317 876 230 c 0
 876 99 791 0 678 0 c 0
 596 0 555 43 555 130 c 0
 555 262 640 361 754 361 c 0
742 313 m 0
 683 313 631 229 631 132 c 0
 631 76 650 48 689 48 c 0
 748 48 800 132 800 229 c 0
 800 285 781 313 742 313 c 0
EndSplineSet
EndChar
StartChar: ampersand
Encoding: 38 38 249
Width: 667
Flags: W
HStem: -18 72<268 309.5> 0 20 669 72<430.5 476.5>
VStem: 69 101<154 231> 269 97<544.5 590.5 544.5 596.5> 513 92<581.5 633>
LayerCount: 2
Fore
SplineSet
504 0 m 1x7c
 477 42 l 1
 399 0 340 -18 279 -18 c 0x9c
 152 -18 69 57 69 171 c 0
 69 291 152 393 289 441 c 1
 275 482 269 510 269 538 c 0
 269 655 356 741 475 741 c 0
 561 741 605 702 605 626 c 0
 605 531 545 464 407 406 c 1
 442 307 480 225 521 160 c 1
 563 203 594 277 614 384 c 1
 710 384 l 1
 682 266 631 175 556 108 c 1
 578 71 602 37 634 0 c 1
 504 0 l 1x7c
446 99 m 1xbc
 396 171 351 267 312 385 c 1
 214 342 170 283 170 195 c 0
 170 113 227 54 309 54 c 0
 347 54 386 67 446 99 c 1xbc
383 467 m 1
 473 503 513 548 513 615 c 0
 513 651 495 669 458 669 c 0
 403 669 366 624 366 557 c 0
 366 532 371 504 383 467 c 1
EndSplineSet
EndChar
StartChar: quotesingle
Encoding: 39 39 254
Width: 191
Flags: W
LayerCount: 2
Fore
SplineSet
161 506 m 1
 190 771 l 1
 310 771 l 1
 233 506 l 1
 161 506 l 1
EndSplineSet
EndChar
StartChar: parenleft
Encoding: 40 40 245
Width: 333
Flags: MW
VStem: 116 90<156 263>
LayerCount: 2
Fore
SplineSet
278 -78 m 1
 264 -145 l 1
 215 -103 190 -74 165 -25 c 0
 133 37 116 113 116 199 c 0
 116 327 157 452 237 570 c 0
 295 655 356 714 448 771 c 1
 434 705 l 1
 286 567 206 376 206 156 c 0
 206 63 226 -3 278 -78 c 1
EndSplineSet
EndChar
StartChar: parenright
Encoding: 41 41 246
Width: 333
Flags: MW
VStem: 252 90<363.5 470.5 363.5 517.5>
LayerCount: 2
Fore
SplineSet
181 705 m 1
 194 771 l 1
 244 729 268 700 293 652 c 0
 325 590 342 513 342 428 c 0
 342 299 301 174 222 56 c 0
 164 -29 102 -88 11 -145 c 1
 24 -78 l 1
 173 60 252 250 252 471 c 0
 252 564 232 630 181 705 c 1
EndSplineSet
EndChar
StartChar: asterisk
Encoding: 42 42 253
Width: 389
Flags: MW
HStem: 703 20<303 375 375 375>
LayerCount: 2
Fore
SplineSet
473 629 m 1
 482 560 l 1
 339 528 l 1
 341 534 342 538 342 543 c 0
 342 554 340 561 335 568 c 1
 473 629 l 1
414 409 m 1
 347 366 l 1
 297 497 l 1
 314 499 327 507 336 522 c 1
 414 409 l 1
188 366 m 1
 138 409 l 1
 261 522 l 1
 265 507 274 499 290 497 c 1
 188 366 l 1
131 560 m 1
 167 629 l 1
 281 568 l 1
 267 557 261 545 260 528 c 1
 131 560 l 1
303 723 m 1
 375 723 l 1
 330 573 l 1
 324 576 318 578 310 578 c 0
 302 578 295 576 288 573 c 1
 303 723 l 1
EndSplineSet
EndChar
StartChar: plus
Encoding: 43 43 259
Width: 584
Flags: MW
HStem: 253 72<117 307 102 321 117 379 394 584> 510 20<362 435 435 435>
LayerCount: 2
Fore
SplineSet
266 48 m 1
 307 253 l 1
 102 253 l 1
 117 325 l 1
 321 325 l 1
 362 530 l 1
 435 530 l 1
 394 325 l 1
 599 325 l 1
 584 253 l 1
 379 253 l 1
 338 48 l 1
 266 48 l 1
EndSplineSet
EndChar
StartChar: comma
Encoding: 44 44 226
Width: 278
Flags: MW
HStem: 0 20
LayerCount: 2
Fore
SplineSet
47 -156 m 1
 54 -120 l 1
 87 -111 110 -75 123 -9 c 2
 125 0 l 1
 78 0 l 1
 102 121 l 1
 223 121 l 1
 202 17 l 2
 180 -92 130 -147 47 -156 c 1
EndSplineSet
EndChar
StartChar: hyphen
Encoding: 45 45 241
Width: 333
Flags: MW
HStem: 253 72<94 356 109 341>
LayerCount: 2
Fore
SplineSet
94 253 m 1
 109 325 l 1
 356 325 l 1
 341 253 l 1
 94 253 l 1
EndSplineSet
EndChar
StartChar: period
Encoding: 46 46 222
Width: 278
Flags: MW
HStem: 0 121<79 224 103 200>
LayerCount: 2
Fore
SplineSet
79 0 m 1
 103 121 l 1
 224 121 l 1
 200 0 l 1
 79 0 l 1
EndSplineSet
EndChar
StartChar: slash
Encoding: 47 47 240
Width: 278
Flags: MW
HStem: 703 20<376 451 451 451>
LayerCount: 2
Fore
SplineSet
-58 -145 m 1
 376 723 l 1
 451 723 l 1
 17 -145 l 1
 -58 -145 l 1
EndSplineSet
EndChar
StartChar: zero
Encoding: 48 48 212
Width: 556
Flags: MW
HStem: -18 72<258 317 258 325.5> 669 72<385.5 444>
VStem: 99 99<153 262 153 294.5> 505 100<471 571.5>
LayerCount: 2
Fore
SplineSet
428 741 m 0
 545 741 605 660 605 501 c 0
 605 396 577 276 531 181 c 0
 469 52 378 -18 273 -18 c 0
 160 -18 99 69 99 227 c 0
 99 362 133 486 196 587 c 0
 262 690 338 741 428 741 c 0
414 669 m 0
 357 669 307 622 263 526 c 0
 221 433 198 320 198 204 c 0
 198 102 227 54 289 54 c 0
 345 54 397 102 436 188 c 0
 476 279 505 419 505 523 c 0
 505 620 474 669 414 669 c 0
EndSplineSet
EndChar
StartChar: one
Encoding: 49 49 203
Width: 556
Flags: MW
HStem: 0 72<112 271 127 271 367 498> 721 20<501 501>
LayerCount: 2
Fore
SplineSet
112 0 m 1
 127 72 l 1
 271 72 l 1
 385 643 l 1
 234 607 l 1
 248 681 l 1
 501 741 l 1
 367 72 l 1
 512 72 l 1
 498 0 l 1
 112 0 l 1
EndSplineSet
EndChar
StartChar: two
Encoding: 50 50 204
Width: 556
Flags: MW
HStem: 0 84<50 67 67 67 183 456> 669 72<370.5 404.5>
VStem: 468 104<537.5 606>
LayerCount: 2
Fore
SplineSet
50 0 m 1
 67 84 l 1
 99 135 148 191 211 245 c 2
 275 299 l 1
 332 348 l 2
 422 424 468 500 468 575 c 0
 468 637 436 669 373 669 c 0
 326 669 272 652 190 611 c 1
 207 696 l 1
 281 727 341 741 400 741 c 0
 509 741 572 684 572 586 c 0
 572 484 520 407 382 303 c 2
 342 272 l 2
 263 212 209 148 183 84 c 1
 473 84 l 1
 456 0 l 1
 50 0 l 1
EndSplineSet
EndChar
StartChar: three
Encoding: 51 51 205
Width: 556
Flags: W
HStem: -18 72<220 286 220 311> 669 72<365 400.5>
VStem: 412 104<180 270.5> 466 100<577.5 613.5>
LayerCount: 2
Fore
SplineSet
76 5 m 1xe0
 94 95 l 1
 97 94 l 1
 102 92 l 2
 157 67 204 54 236 54 c 0
 336 54 412 130 412 230 c 0xe0
 412 311 359 351 250 351 c 2
 212 351 l 1
 225 416 l 1
 259 417 l 2
 382 419 466 487 466 586 c 0
 466 641 433 669 368 669 c 0
 326 669 280 657 210 628 c 1
 227 712 l 1
 294 733 341 741 389 741 c 0
 507 741 566 696 566 606 c 0xd0
 566 549 542 496 497 457 c 0
 465 430 437 414 376 392 c 1
 475 365 516 320 516 239 c 0
 516 96 390 -18 232 -18 c 0
 193 -18 145 -11 76 5 c 1xe0
EndSplineSet
EndChar
StartChar: four
Encoding: 52 52 206
Width: 556
Flags: MW
HStem: 0 20 205 79<166 377 166 467 483 564> 703 20<480 571 571 571>
LayerCount: 2
Fore
SplineSet
336 0 m 1
 377 205 l 1
 56 205 l 1
 70 278 l 1
 480 723 l 1
 571 723 l 1
 483 284 l 1
 579 284 l 1
 564 205 l 1
 467 205 l 1
 426 0 l 1
 336 0 l 1
166 284 m 1
 399 284 l 1
 463 605 l 1
 166 284 l 1
EndSplineSet
EndChar
StartChar: five
Encoding: 53 53 207
Width: 556
Flags: MW
HStem: -18 72<205 280 205 295.5> 639 84<304 585 304 304>
VStem: 416 103<191 288.5>
LayerCount: 2
Fore
SplineSet
79 -3 m 1
 97 83 l 1
 143 63 184 54 226 54 c 0
 334 54 416 137 416 245 c 0
 416 332 352 375 222 375 c 0
 205 375 183 374 166 371 c 1
 237 723 l 1
 602 723 l 1
 585 639 l 1
 304 639 l 1
 266 449 l 1
 350 446 393 437 437 413 c 0
 491 382 519 329 519 256 c 0
 519 94 389 -18 202 -18 c 0
 164 -18 127 -13 79 -3 c 1
EndSplineSet
EndChar
StartChar: six
Encoding: 54 54 208
Width: 556
Flags: MW
HStem: -18 72<266 346.5 266 355> 395 69<370 397.5> 670 72<425.5 477.5>
VStem: 96 97<146.5 247.5 146.5 262.5> 459 98<221.5 327>
LayerCount: 2
Fore
SplineSet
607 714 m 1
 590 630 l 1
 533 658 495 670 460 670 c 0
 391 670 333 634 290 563 c 0
 261 516 245 472 223 380 c 1
 282 439 336 464 404 464 c 0
 502 464 557 406 557 303 c 0
 557 124 433 -18 277 -18 c 0
 160 -18 96 63 96 210 c 0
 96 315 127 440 178 537 c 0
 249 671 351 742 476 742 c 0
 519 742 557 734 607 714 c 1
366 395 m 0
 266 395 193 307 193 188 c 0
 193 105 233 54 299 54 c 0
 394 54 459 151 459 292 c 0
 459 362 429 395 366 395 c 0
EndSplineSet
EndChar
StartChar: seven
Encoding: 55 55 209
Width: 556
Flags: MW
HStem: 0 20 633 90<211 565 192 674 656 656>
LayerCount: 2
Fore
SplineSet
219 0 m 1
 108 0 l 1
 151 114 186 170 304 315 c 2
 565 633 l 1
 192 633 l 1
 211 723 l 1
 674 723 l 1
 656 633 l 1
 416 359 271 150 219 0 c 1
EndSplineSet
EndChar
StartChar: eight
Encoding: 56 56 210
Width: 556
Flags: W
HStem: -18 72<265 349.5 265 365> 669 72<388 459.5>
VStem: 82 99<128.5 192.5> 195 92<537 586> 471 104<156 212.5> 533 91<573.5 616>
LayerCount: 2
Fore
SplineSet
272 394 m 1xe8
 217 440 195 478 195 527 c 0
 195 645 310 741 452 741 c 0
 558 741 624 692 624 614 c 0xd4
 624 533 570 466 448 394 c 1
 538 343 575 294 575 223 c 0
 575 89 446 -18 284 -18 c 0
 157 -18 82 41 82 142 c 0
 82 243 140 320 272 394 c 1xe8
401 424 m 1
 492 480 533 532 533 593 c 0
 533 639 491 669 428 669 c 0
 348 669 287 621 287 558 c 0
 287 516 322 475 401 424 c 1
377 314 m 2xe8
 316 355 l 1
 216 287 181 237 181 162 c 0
 181 95 227 54 303 54 c 0
 396 54 471 116 471 193 c 0
 471 232 441 271 377 314 c 2xe8
EndSplineSet
EndChar
StartChar: nine
Encoding: 57 57 211
Width: 556
Flags: MW
HStem: -19 73<210 262 210 273.5> 259 69<290 317> 669 73<341.5 422>
VStem: 130 98<396.5 502 396.5 510> 495 96<476 577.5>
LayerCount: 2
Fore
SplineSet
81 9 m 1
 98 93 l 1
 155 65 192 54 228 54 c 0
 296 54 354 90 397 160 c 0
 427 208 443 252 465 343 c 1
 406 284 351 259 283 259 c 0
 185 259 130 317 130 420 c 0
 130 600 254 742 410 742 c 0
 527 742 591 661 591 514 c 0
 591 407 560 284 509 186 c 0
 439 52 335 -19 212 -19 c 0
 168 -19 131 -11 81 9 c 1
389 669 m 0
 294 669 228 572 228 432 c 0
 228 361 258 328 322 328 c 0
 422 328 495 416 495 536 c 0
 495 619 455 669 389 669 c 0
EndSplineSet
EndChar
StartChar: colon
Encoding: 58 58 223
Width: 278
Flags: MW
HStem: 0 96<91 207 110 187> 433 97<178 294 197 274>
LayerCount: 2
Fore
SplineSet
91 0 m 1
 110 96 l 1
 207 96 l 1
 187 0 l 1
 91 0 l 1
178 433 m 1
 197 530 l 1
 294 530 l 1
 274 433 l 1
 178 433 l 1
EndSplineSet
EndChar
StartChar: semicolon
Encoding: 59 59 227
Width: 278
Flags: MW
HStem: 0 20 433 97<178 294 197 274>
LayerCount: 2
Fore
SplineSet
60 -157 m 1
 67 -121 l 1
 93 -107 110 -75 123 -11 c 1
 126 0 l 1
 91 0 l 1
 110 96 l 1
 207 96 l 1
 191 15 l 2
 170 -84 128 -140 60 -157 c 1
178 433 m 1
 197 530 l 1
 294 530 l 1
 274 433 l 1
 178 433 l 1
EndSplineSet
EndChar
StartChar: less
Encoding: 60 60 300
Width: 584
Flags: MW
HStem: 510 20<639 639>
LayerCount: 2
Fore
SplineSet
543 48 m 1
 109 289 l 1
 639 530 l 1
 623 449 l 1
 272 289 l 1
 272 288 l 1
 559 129 l 1
 543 48 l 1
EndSplineSet
EndChar
StartChar: equal
Encoding: 61 61 263
Width: 584
Flags: MW
HStem: 163 72<83 580 98 565> 344 72<119 616 134 601>
LayerCount: 2
Fore
SplineSet
83 163 m 1
 98 235 l 1
 580 235 l 1
 565 163 l 1
 83 163 l 1
119 344 m 1
 134 416 l 1
 616 416 l 1
 601 344 l 1
 119 344 l 1
EndSplineSet
EndChar
StartChar: greater
Encoding: 62 62 301
Width: 584
Flags: MW
HStem: 510 20<158 158>
LayerCount: 2
Fore
SplineSet
158 530 m 1
 591 289 l 1
 61 48 l 1
 78 129 l 1
 429 288 l 1
 429 289 l 1
 142 449 l 1
 158 530 l 1
EndSplineSet
EndChar
StartChar: question
Encoding: 63 63 234
Width: 556
Flags: MW
HStem: 0 96<183 298 202 279> 669 72<381 431>
VStem: 509 104<570.5 619>
LayerCount: 2
Fore
SplineSet
183 0 m 1
 202 96 l 1
 298 96 l 1
 279 0 l 1
 183 0 l 1
222 193 m 1
 226 219 l 2
 242 298 282 361 343 402 c 2
 393 435 l 2
 469 487 509 541 509 594 c 0
 509 644 470 669 392 669 c 0
 335 669 275 658 193 633 c 1
 209 714 l 1
 286 733 349 741 413 741 c 0
 547 741 613 697 613 607 c 0
 613 534 569 471 486 425 c 2
 442 401 l 2
 369 359 346 328 329 247 c 2
 318 193 l 1
 222 193 l 1
EndSplineSet
EndChar
StartChar: at
Encoding: 64 64 256
Width: 1015
Flags: W
HStem: -18 54<389.5 468.5> 144 54<715 722> 144 60<460 468.5> 518 57<647 663> 687 55<681.5 784.5>
VStem: 180 56<175 290.5> 361 80<232.5 258> 942 57<449 542.5>
LayerCount: 2
Fore
SplineSet
614 71 m 1xdf
 622 21 l 1
 553 -6 498 -18 439 -18 c 0
 279 -18 180 75 180 226 c 0
 180 355 271 513 406 619 c 0
 506 698 626 742 737 742 c 0
 893 742 999 641 999 493 c 0
 999 405 966 324 901 252 c 0
 836 181 762 144 682 144 c 0xcf
 636 144 612 160 612 191 c 0
 612 204 620 227 633 252 c 2
 665 313 l 1
 659 313 l 1
 571 195 503 144 434 144 c 0x27
 386 144 361 172 361 226 c 0
 361 290 396 367 463 447 c 0
 535 534 607 575 687 575 c 0
 695 575 705 575 728 573 c 0
 741 572 751 572 761 572 c 2
 827 572 l 1
 703 262 l 2
 697 245 693 230 693 221 c 0
 693 206 704 198 726 198 c 0
 831 198 942 344 942 482 c 0
 942 603 850 687 719 687 c 0
 622 687 516 646 428 576 c 0
 312 482 236 347 236 237 c 0
 236 113 321 36 458 36 c 0
 511 36 558 47 614 71 c 1xdf
689 407 m 1x37
 727 502 l 1
 697 513 674 518 652 518 c 0
 601 518 556 491 515 434 c 0
 467 369 441 302 441 246 c 0
 441 219 451 204 469 204 c 0
 514 204 580 265 689 407 c 1x37
EndSplineSet
EndChar
StartChar: A
Encoding: 65 65 133
Width: 667
Flags: MW
HStem: 0 20 200 76<264 496 264 509 219 496> 703 20<428 530 530 530>
LayerCount: 2
Fore
SplineSet
9 0 m 1
 428 723 l 1
 530 723 l 1
 655 0 l 1
 545 0 l 1
 509 200 l 1
 219 200 l 1
 104 0 l 1
 9 0 l 1
264 276 m 1
 496 276 l 1
 443 586 l 1
 264 276 l 1
EndSplineSet
EndChar
StartChar: B
Encoding: 66 66 134
Width: 667
Flags: W
HStem: 0 77<199 275 275 328.5 199 338> 340 65<265 335 251 352> 646 77<312 407 312 312>
VStem: 534 108<191 256.5> 579 109<562.5 598.5>
LayerCount: 2
Fore
SplineSet
81 0 m 1xf0
 226 723 l 1
 457 723 l 2
 630 723 688 691 688 594 c 0xe8
 688 531 663 479 615 439 c 0
 582 412 552 397 488 376 c 1
 596 342 642 295 642 219 c 0
 642 153 608 86 554 45 c 0
 510 12 454 0 338 0 c 2
 81 0 l 1xf0
199 77 m 1xf0
 275 77 l 2
 382 77 447 86 479 106 c 0
 514 128 534 168 534 214 c 0
 534 299 469 340 335 340 c 2
 251 340 l 1
 199 77 l 1xf0
265 405 m 1xe8
 352 405 l 2
 496 405 579 465 579 568 c 0
 579 629 540 646 407 646 c 2
 312 646 l 1
 265 405 l 1xe8
EndSplineSet
EndChar
StartChar: C
Encoding: 67 67 135
Width: 722
Flags: MW
HStem: -18 80<379 465> 664 77<513.5 590.5>
VStem: 125 112<204.5 324.5>
LayerCount: 2
Fore
SplineSet
692 125 m 1
 674 37 l 1
 589 -1 511 -18 419 -18 c 0
 222 -18 125 74 125 261 c 0
 125 388 167 507 245 598 c 0
 326 694 436 741 581 741 c 0
 650 741 719 731 808 709 c 1
 789 613 l 1
 690 649 621 664 560 664 c 0
 467 664 394 632 339 566 c 0
 273 489 237 385 237 276 c 0
 237 133 308 62 450 62 c 0
 525 62 597 81 692 125 c 1
EndSplineSet
EndChar
StartChar: D
Encoding: 68 68 136
Width: 722
Flags: MW
HStem: 0 77<199 314> 646 77<312 389 312 312>
VStem: 649 113<411 521>
LayerCount: 2
Fore
SplineSet
81 0 m 1
 226 723 l 1
 457 723 l 2
 666 723 762 643 762 469 c 0
 762 353 723 243 651 153 c 0
 568 50 457 0 314 0 c 2
 81 0 l 1
199 77 m 1
 322 77 l 2
 413 77 472 95 520 138 c 0
 598 207 649 331 649 448 c 0
 649 594 581 646 389 646 c 2
 312 646 l 1
 199 77 l 1
EndSplineSet
EndChar
StartChar: F
Encoding: 70 70 138
Width: 611
Flags: MW
HStem: 0 20 328 76<276 601 261 616> 646 77<324 713 324 324>
LayerCount: 2
Fore
SplineSet
93 0 m 1
 238 723 l 1
 728 723 l 1
 713 646 l 1
 324 646 l 1
 276 404 l 1
 616 404 l 1
 601 328 l 1
 261 328 l 1
 196 0 l 1
 93 0 l 1
EndSplineSet
EndChar
StartChar: G
Encoding: 71 71 139
Width: 778
Flags: W
HStem: -18 77<383.5 471> 0 20<696 696> 261 75<537 642 522 760> 664 77<513.5 600.5>
VStem: 113 111<203 322>
LayerCount: 2
Fore
SplineSet
760 336 m 1xb8
 696 20 l 1x68
 597 -6 515 -18 427 -18 c 0
 215 -18 113 72 113 260 c 0
 113 384 152 499 226 589 c 0
 310 692 425 741 583 741 c 0
 665 741 743 731 833 708 c 1
 814 614 l 1
 712 649 636 664 565 664 c 0
 462 664 383 631 324 564 c 0
 260 490 224 385 224 271 c 0
 224 135 308 59 459 59 c 0
 498 59 543 64 606 77 c 1
 642 261 l 1
 522 261 l 1
 537 336 l 1
 760 336 l 1xb8
EndSplineSet
EndChar
StartChar: H
Encoding: 72 72 140
Width: 722
Flags: MW
HStem: 0 20 341 77<267 607 252 623> 703 20<226 328 328 328 684 786 786 786>
LayerCount: 2
Fore
SplineSet
81 0 m 1
 226 723 l 1
 328 723 l 1
 267 418 l 1
 623 418 l 1
 684 723 l 1
 786 723 l 1
 642 0 l 1
 539 0 l 1
 607 341 l 1
 252 341 l 1
 184 0 l 1
 81 0 l 1
EndSplineSet
EndChar
StartChar: I
Encoding: 73 73 141
Width: 278
Flags: MW
HStem: 0 20 703 20<233 335 335 335>
LayerCount: 2
Fore
SplineSet
88 0 m 1
 233 723 l 1
 335 723 l 1
 191 0 l 1
 88 0 l 1
EndSplineSet
EndChar
StartChar: J
Encoding: 74 74 142
Width: 500
Flags: MW
HStem: -144 82<142.5 217.5 142.5 225> 703 20<452 555 555 555>
LayerCount: 2
Fore
SplineSet
1 -113 m 1
 19 -25 l 1
 73 -51 117 -62 168 -62 c 0
 267 -62 302 -29 325 88 c 2
 452 723 l 1
 555 723 l 1
 428 92 l 2
 397 -65 303 -144 147 -144 c 0
 91 -144 48 -135 1 -113 c 1
EndSplineSet
EndChar
StartChar: K
Encoding: 75 75 143
Width: 667
Flags: MW
HStem: 0 20 703 20<238 334 334 334 634 737 737 737>
LayerCount: 2
Fore
SplineSet
93 0 m 1
 238 723 l 1
 334 723 l 1
 263 367 l 1
 634 723 l 1
 737 723 l 1
 377 378 l 1
 643 0 l 1
 513 0 l 1
 262 366 l 1
 189 0 l 1
 93 0 l 1
EndSplineSet
EndChar
StartChar: L
Encoding: 76 76 144
Width: 556
Flags: MW
HStem: 0 77<199 538> 703 20<226 328 328 328>
LayerCount: 2
Fore
SplineSet
81 0 m 1
 226 723 l 1
 328 723 l 1
 199 77 l 1
 553 77 l 1
 538 0 l 1
 81 0 l 1
EndSplineSet
EndChar
StartChar: M
Encoding: 77 77 145
Width: 833
Flags: MW
HStem: 0 20 703 20<226 368 368 368 770 897 897 897>
LayerCount: 2
Fore
SplineSet
81 0 m 1
 226 723 l 1
 368 723 l 1
 455 163 l 1
 770 723 l 1
 897 723 l 1
 753 0 l 1
 657 0 l 1
 774 588 l 1
 470 48 l 1
 371 48 l 1
 287 590 l 1
 169 0 l 1
 81 0 l 1
EndSplineSet
EndChar
StartChar: N
Encoding: 78 78 146
Width: 722
Flags: MW
HStem: 0 20 703 20<226 326 326 326 698 786 786 786>
LayerCount: 2
Fore
SplineSet
81 0 m 1
 226 723 l 1
 326 723 l 1
 586 165 l 1
 698 723 l 1
 786 723 l 1
 642 0 l 1
 541 0 l 1
 281 558 l 1
 169 0 l 1
 81 0 l 1
EndSplineSet
EndChar
StartChar: O
Encoding: 79 79 147
Width: 778
Flags: MW
HStem: -18 77<345 448> 664 77<483.5 587>
VStem: 113 109<198.5 330> 712 109<393 525>
LayerCount: 2
Fore
SplineSet
544 741 m 0
 721 741 821 639 821 459 c 0
 821 327 778 211 696 120 c 0
 613 28 509 -18 387 -18 c 0
 214 -18 113 86 113 265 c 0
 113 395 156 511 238 602 c 0
 321 695 423 741 544 741 c 0
527 664 m 0
 354 664 222 491 222 264 c 0
 222 133 287 59 403 59 c 0
 580 59 712 230 712 458 c 0
 712 592 647 664 527 664 c 0
EndSplineSet
EndChar
StartChar: P
Encoding: 80 80 148
Width: 667
Flags: MW
HStem: 0 20 287 78<257 393 242 404> 646 77<313 462 313 313>
VStem: 644 112<497 591>
LayerCount: 2
Fore
SplineSet
82 0 m 1
 227 723 l 1
 510 723 l 2
 700 723 756 691 756 582 c 0
 756 405 611 287 393 287 c 2
 242 287 l 1
 185 0 l 1
 82 0 l 1
257 365 m 1
 404 365 l 2
 550 365 644 439 644 555 c 0
 644 627 605 646 462 646 c 2
 313 646 l 1
 257 365 l 1
EndSplineSet
EndChar
StartChar: Q
Encoding: 81 81 149
Width: 778
Flags: MW
HStem: -19 77<346.5 385.5> 664 77<482.5 586>
VStem: 113 110<197 330> 712 110<404.5 526.5>
LayerCount: 2
Fore
SplineSet
793 -63 m 1
 712 -145 l 1
 604 -107 520 -64 453 -13 c 1
 413 -18 395 -19 376 -19 c 0
 214 -19 113 90 113 265 c 0
 113 395 156 510 238 602 c 0
 321 695 422 741 543 741 c 0
 719 741 822 638 822 460 c 0
 822 349 789 245 727 159 c 0
 681 94 630 53 552 15 c 1
 627 -22 705 -47 793 -63 c 1
527 664 m 0
 355 664 223 491 223 263 c 0
 223 131 288 58 405 58 c 0
 581 58 712 230 712 462 c 0
 712 591 645 664 527 664 c 0
EndSplineSet
EndChar
StartChar: R
Encoding: 82 82 150
Width: 722
Flags: MW
HStem: 0 20 305 77<260 375 375 416 260 431 245 375> 646 77<312 459 312 312>
VStem: 610 108<534.5 590.5>
LayerCount: 2
Fore
SplineSet
81 0 m 1
 226 723 l 1
 527 723 l 2
 659 723 718 680 718 582 c 0
 718 478 646 386 527 338 c 1
 701 0 l 1
 575 0 l 1
 431 305 l 1
 245 305 l 1
 184 0 l 1
 81 0 l 1
260 382 m 1
 375 382 l 2
 457 382 502 392 537 419 c 0
 580 453 610 510 610 559 c 0
 610 622 569 646 459 646 c 2
 312 646 l 1
 260 382 l 1
EndSplineSet
EndChar
StartChar: T
Encoding: 84 84 152
Width: 611
Flags: MW
HStem: 0 20 646 77<155 384 139 745 486 486 486 730>
LayerCount: 2
Fore
SplineSet
254 0 m 1
 384 646 l 1
 139 646 l 1
 155 723 l 1
 745 723 l 1
 730 646 l 1
 486 646 l 1
 357 0 l 1
 254 0 l 1
EndSplineSet
EndChar
StartChar: U
Encoding: 85 85 153
Width: 722
Flags: MW
HStem: -18 77<333 415> 703 20<227 330 330 330 697 787 787 787>
VStem: 124 102<135 177>
LayerCount: 2
Fore
SplineSet
227 723 m 1
 330 723 l 1
 238 267 l 2
 230 226 226 195 226 173 c 0
 226 97 280 59 386 59 c 0
 517 59 575 113 605 263 c 2
 697 723 l 1
 787 723 l 1
 695 265 l 2
 676 167 652 113 610 72 c 0
 550 12 467 -18 363 -18 c 0
 204 -18 124 43 124 163 c 0
 124 191 128 228 136 268 c 2
 227 723 l 1
EndSplineSet
EndChar
StartChar: V
Encoding: 86 86 154
Width: 667
Flags: MW
HStem: 0 20 703 20<162 267 267 267 719 806 806 806>
LayerCount: 2
Fore
SplineSet
296 0 m 1
 162 723 l 1
 267 723 l 1
 379 129 l 1
 719 723 l 1
 806 723 l 1
 393 0 l 1
 296 0 l 1
EndSplineSet
EndChar
StartChar: W
Encoding: 87 87 155
Width: 944
Flags: MW
HStem: 0 20 703 20<157 256 256 256 573 672 672 672 993 1076 1076 1076>
LayerCount: 2
Fore
SplineSet
199 0 m 1
 157 723 l 1
 256 723 l 1
 289 152 l 1
 573 723 l 1
 672 723 l 1
 721 157 l 1
 993 723 l 1
 1076 723 l 1
 729 0 l 1
 627 0 l 1
 578 557 l 1
 300 0 l 1
 199 0 l 1
EndSplineSet
EndChar
StartChar: X
Encoding: 88 88 156
Width: 667
Flags: MW
HStem: 0 20 703 20<170 291 291 291 696 793 793 793>
LayerCount: 2
Fore
SplineSet
14 0 m 1
 352 359 l 1
 170 723 l 1
 291 723 l 1
 431 442 l 1
 696 723 l 1
 793 723 l 1
 465 376 l 1
 654 0 l 1
 533 0 l 1
 386 292 l 1
 111 0 l 1
 14 0 l 1
EndSplineSet
EndChar
StartChar: Y
Encoding: 89 89 157
Width: 667
Flags: MW
HStem: 0 20 703 20<159 276 276 276 702 797 797 797>
LayerCount: 2
Fore
SplineSet
274 0 m 1
 334 301 l 1
 159 723 l 1
 276 723 l 1
 415 388 l 1
 702 723 l 1
 797 723 l 1
 437 304 l 1
 376 0 l 1
 274 0 l 1
EndSplineSet
EndChar
StartChar: Z
Encoding: 90 90 158
Width: 611
Flags: MW
HStem: 0 83<49 66 66 66 189 560> 646 77<217 566 202 705 690 690>
LayerCount: 2
Fore
SplineSet
49 0 m 1
 66 83 l 1
 566 646 l 1
 202 646 l 1
 217 723 l 1
 705 723 l 1
 690 646 l 1
 189 83 l 1
 577 83 l 1
 560 0 l 1
 49 0 l 1
EndSplineSet
EndChar
StartChar: bracketleft
Encoding: 91 91 247
Width: 278
Flags: MW
HStem: -145 72<143 237> 699 72<297 405 297 297>
LayerCount: 2
Fore
SplineSet
44 -145 m 1
 227 771 l 1
 420 771 l 1
 405 699 l 1
 297 699 l 1
 143 -73 l 1
 251 -73 l 1
 237 -145 l 1
 44 -145 l 1
EndSplineSet
EndChar
StartChar: backslash
Encoding: 92 92 280
Width: 278
Flags: MW
HStem: 703 20<116 192 192 192>
LayerCount: 2
Fore
SplineSet
278 -145 m 1
 203 -145 l 1
 116 723 l 1
 192 723 l 1
 278 -145 l 1
EndSplineSet
EndChar
StartChar: bracketright
Encoding: 93 93 248
Width: 278
Flags: MW
HStem: -145 72<-3 106 -3 176 -17 106> 699 72<166 260 151 359>
LayerCount: 2
Fore
SplineSet
359 771 m 1
 176 -145 l 1
 -17 -145 l 1
 -3 -73 l 1
 106 -73 l 1
 260 699 l 1
 151 699 l 1
 166 771 l 1
 359 771 l 1
EndSplineSet
EndChar
StartChar: asciicircum
Encoding: 94 94 303
Width: 469
Flags: MW
HStem: 703 20<379 379>
LayerCount: 2
Fore
SplineSet
346 561 m 1
 156 289 l 1
 75 289 l 1
 379 723 l 1
 509 289 l 1
 428 289 l 1
 346 561 l 1
EndSplineSet
EndChar
StartChar: underscore
Encoding: 95 95 306
Width: 556
Flags: MW
HStem: -72 72<-15 556 0 541>
LayerCount: 2
Fore
SplineSet
-15 -72 m 1
 0 0 l 1
 556 0 l 1
 541 -72 l 1
 -15 -72 l 1
EndSplineSet
EndChar
StartChar: grave
Encoding: 96 96 285
Width: 333
Flags: W
LayerCount: 2
Fore
SplineSet
406 626 m 1
 333 626 l 1
 208 783 l 1
 319 783 l 1
 406 626 l 1
EndSplineSet
EndChar
StartChar: b
Encoding: 98 98 167
Width: 556
Flags: W
HStem: -12 20 0 20 522 20<404.5 485>
LayerCount: 2
Fore
SplineSet
240 343 m 1x40
 186 73 l 1
 231 64 261 60 283 60 c 0
 391 60 473 184 473 349 c 0
 473 422 450 458 403 458 c 0
 358 458 311 424 240 343 c 1x40
325 771 m 1
 258 430 l 1
 316 509 370 542 439 542 c 0
 531 542 578 481 578 362 c 0
 578 264 548 173 490 98 c 0
 432 24 358 -12 260 -12 c 0xa0
 230 -12 204 -8 171 0 c 1
 74 -6 l 1
 229 771 l 1
 325 771 l 1
EndSplineSet
EndChar
StartChar: c
Encoding: 99 99 168
Width: 500
Flags: MW
HStem: -12 78<288 314> 468 74<355 434.5>
VStem: 92 109<157 279.5 157 295>
LayerCount: 2
Fore
SplineSet
476 99 m 1
 460 16 l 1
 397 -3 341 -12 287 -12 c 0
 165 -12 92 65 92 194 c 0
 92 396 227 542 414 542 c 0
 455 542 502 536 556 524 c 1
 540 444 l 1
 486 461 451 468 418 468 c 0
 292 468 201 356 201 203 c 0
 201 111 244 66 332 66 c 0xe0
 373 66 417 76 476 99 c 1
EndSplineSet
EndChar
StartChar: d
Encoding: 100 100 169
Width: 556
Flags: W
HStem: -12 20 0 20 522 20<356.5 420>
LayerCount: 2
Fore
SplineSet
425 187 m 1x60
 479 458 l 1
 430 467 404 470 383 470 c 0
 274 470 193 346 193 180 c 0
 193 108 216 72 263 72 c 0
 307 72 355 106 425 187 c 1x60
388 0 m 1
 407 99 l 1
 349 21 295 -12 226 -12 c 0x80
 134 -12 87 49 87 169 c 0
 87 266 118 358 175 433 c 0
 233 506 308 542 405 542 c 0
 435 542 463 538 494 530 c 1
 542 771 l 1
 638 771 l 1
 484 0 l 1
 388 0 l 1
EndSplineSet
EndChar
StartChar: e
Encoding: 101 101 170
Width: 556
Flags: MW
HStem: -12 73<300.5 345.5> 522 20<312 454>
VStem: 96 100<155.5 207 155.5 299.5>
LayerCount: 2
Fore
SplineSet
216 322 m 1
 471 322 l 1
 475 352 477 367 477 381 c 0
 477 439 444 470 380 470 c 0xe0
 297 470 247 425 216 322 c 1
520 93 m 1
 505 17 l 1
 434 -3 374 -12 317 -12 c 0
 175 -12 96 65 96 204 c 0
 96 395 227 542 397 542 c 0
 511 542 570 484 570 371 c 0
 570 340 565 303 554 250 c 1
 200 250 l 1
 196 219 196 212 196 202 c 0
 196 109 249 61 352 61 c 0
 403 61 454 71 520 93 c 1
EndSplineSet
EndChar
StartChar: f
Encoding: 102 102 171
Width: 278
Flags: MW
HStem: 0 20 458 72<121 177 106 191 288 369> 712 72<367 396.5>
LayerCount: 2
Fore
SplineSet
85 0 m 1
 177 458 l 1
 106 458 l 1
 121 530 l 1
 191 530 l 1
 204 594 l 2
 231 721 292 784 391 784 c 0
 414 784 434 780 461 771 c 1
 446 694 l 1
 423 706 405 712 388 712 c 0
 346 712 316 675 302 604 c 2
 288 530 l 1
 383 530 l 1
 369 458 l 1
 273 458 l 1
 182 0 l 1
 85 0 l 1
EndSplineSet
EndChar
StartChar: g
Encoding: 103 103 172
Width: 556
Flags: W
HStem: -205 72<174.5 242.5> 510 20<494 590 590 590> 522 20<354 419.5>
LayerCount: 2
Fore
SplineSet
430 211 m 1
 479 458 l 1
 429 467 405 470 383 470 c 0
 274 470 198 361 198 205 c 0
 198 133 221 96 268 96 c 0xc0
 312 96 360 130 430 211 c 1
396 40 m 2
 413 123 l 1
 355 45 300 12 231 12 c 0
 139 12 92 74 92 193 c 0
 92 282 120 365 172 433 c 0
 228 506 304 542 404 542 c 0x20
 435 542 464 538 494 530 c 1
 590 530 l 1
 514 144 l 2
 489 21 466 -49 434 -94 c 0
 383 -168 300 -205 185 -205 c 0
 124 -205 73 -196 14 -176 c 1
 31 -93 l 1
 99 -121 149 -133 200 -133 c 0
 307 -133 372 -76 396 40 c 2
EndSplineSet
EndChar
StartChar: h
Encoding: 104 104 173
Width: 556
Flags: MW
HStem: 0 20 459 83<425.5 434.5>
VStem: 468 101<403.5 475>
LayerCount: 2
Fore
SplineSet
75 0 m 1
 229 771 l 1
 325 771 l 1
 258 430 l 1
 330 509 390 542 461 542 c 0
 532 542 569 508 569 442 c 0
 569 425 566 398 563 381 c 2
 487 0 l 1
 390 0 l 1
 460 349 l 2
 465 376 468 397 468 410 c 0
 468 442 451 459 418 459 c 0
 363 459 309 424 240 343 c 1
 171 0 l 1
 75 0 l 1
EndSplineSet
EndChar
StartChar: i
Encoding: 105 105 174
Width: 222
Flags: MW
HStem: 0 20 510 20<169 266 266 266> 627 96<188 304 208 285>
LayerCount: 2
Fore
SplineSet
63 0 m 1
 169 530 l 1
 266 530 l 1
 159 0 l 1
 63 0 l 1
188 627 m 1
 208 723 l 1
 304 723 l 1
 285 627 l 1
 188 627 l 1
EndSplineSet
EndChar
StartChar: j
Encoding: 106 106 175
Width: 222
Flags: MW
HStem: -205 72<-40.5 -1.5 -40.5 16.5> 0 20 510 20<172 268 268 268> 627 96<191 307 211 287>
LayerCount: 2
Fore
SplineSet
-113 -189 m 1
 -97 -113 l 1
 -72 -127 -52 -133 -29 -133 c 0
 26 -133 44 -108 66 0 c 2
 172 530 l 1
 268 530 l 1
 162 0 l 2
 135 -137 69 -205 -36 -205 c 0
 -65 -205 -88 -200 -113 -189 c 1
191 627 m 1
 211 723 l 1
 307 723 l 1
 287 627 l 1
 191 627 l 1
EndSplineSet
EndChar
StartChar: k
Encoding: 107 107 176
Width: 500
Flags: MW
HStem: 0 20 510 20<455 547 547 547>
LayerCount: 2
Fore
SplineSet
75 0 m 1
 229 771 l 1
 325 771 l 1
 226 273 l 1
 455 530 l 1
 547 530 l 1
 327 280 l 1
 491 0 l 1
 374 0 l 1
 226 272 l 1
 171 0 l 1xc0
 75 0 l 1
EndSplineSet
EndChar
StartChar: l
Encoding: 108 108 177
Width: 222
Flags: MW
HStem: 0 20
LayerCount: 2
Fore
SplineSet
63 0 m 1
 217 771 l 1
 313 771 l 1
 159 0 l 1x80
 63 0 l 1
EndSplineSet
EndChar
StartChar: m
Encoding: 109 109 178
Width: 833
Flags: W
HStem: 0 20 462 80<401.5 411.5 697 706.5> 510 20<181 278 278 278>
VStem: 745 101<403.5 472>
LayerCount: 2
Fore
SplineSet
75 0 m 1xd0
 181 530 l 1
 278 530 l 1xb0
 258 430 l 1
 336 521 369 542 434 542 c 0
 504 542 540 508 554 430 c 1
 633 522 664 542 730 542 c 0
 807 542 846 507 846 437 c 0
 846 422 844 402 841 386 c 2
 763 0 l 1
 667 0 l 1
 741 370 l 2
 743 381 745 399 745 408 c 0
 745 443 725 462 688 462 c 0
 644 462 600 431 538 355 c 1
 468 0 l 1
 371 0 l 1
 445 370 l 2
 449 388 450 398 450 408 c 0
 450 443 430 462 393 462 c 0
 349 462 305 431 242 355 c 1
 171 0 l 1
 75 0 l 1xd0
EndSplineSet
EndChar
StartChar: n
Encoding: 110 110 179
Width: 556
Flags: W
HStem: 0 20 460 82<425.5 434.5> 510 20<181 278 278 278>
VStem: 468 101<404 475>
LayerCount: 2
Fore
SplineSet
75 0 m 1
 181 530 l 1
 278 530 l 1xb0
 258 430 l 1
 330 509 390 542 461 542 c 0
 532 542 569 508 569 442 c 0
 569 425 566 398 563 381 c 2
 487 0 l 1
 390 0 l 1
 460 349 l 2
 465 376 468 398 468 410 c 0
 468 443 451 460 418 460 c 0
 363 460 309 425 240 343 c 1
 171 0 l 1xd0
 75 0 l 1
EndSplineSet
EndChar
StartChar: o
Encoding: 111 111 180
Width: 556
Flags: MW
HStem: -12 72<261 344 261 362> 470 72<325 410.5>
VStem: 90 103<143.5 263.5 143.5 287> 476 103<266.5 389>
LayerCount: 2
Fore
SplineSet
388 542 m 0
 512 542 579 472 579 343 c 0
 579 140 449 -12 275 -12 c 0
 158 -12 90 61 90 187 c 0xf0
 90 387 220 542 388 542 c 0
377 470 m 0
 273 470 193 345 193 182 c 0
 193 105 230 60 292 60 c 0
 396 60 476 185 476 348 c 0
 476 430 444 470 377 470 c 0
EndSplineSet
EndChar
StartChar: p
Encoding: 112 112 181
Width: 556
Flags: W
HStem: -12 72<272.5 309> 0 20 458 84<405.5 427.5> 510 20<182 278 278 278>
VStem: 474 105<313 385.5>
LayerCount: 2
Fore
SplineSet
133 -193 m 1x48
 37 -193 l 1
 182 530 l 1
 278 530 l 1x18
 258 430 l 1
 316 509 371 542 440 542 c 0
 532 542 579 481 579 362 c 0
 579 264 549 173 490 98 c 0
 433 24 358 -12 260 -12 c 0xa8
 231 -12 204 -8 172 0 c 1
 133 -193 l 1x48
241 343 m 1xa8
 186 73 l 1
 236 63 262 60 283 60 c 0
 392 60 474 184 474 349 c 0
 474 422 451 458 404 458 c 0
 359 458 311 424 241 343 c 1xa8
EndSplineSet
EndChar
StartChar: q
Encoding: 113 113 182
Width: 556
Flags: W
HStem: -12 84<239.5 260.5> 470 72<356.5 393> 510 20<494 590 590 590>
VStem: 87 106<144 217.5>
LayerCount: 2
Fore
SplineSet
494 530 m 1x30
 590 530 l 1xb0
 445 -193 l 1
 349 -193 l 1
 407 99 l 1
 349 21 295 -12 226 -12 c 0
 134 -12 87 49 87 169 c 0
 87 266 118 358 175 433 c 0
 233 506 308 542 405 542 c 0xd0
 435 542 463 538 494 530 c 1x30
425 186 m 1
 479 457 l 1
 434 466 403 470 383 470 c 0x50
 274 470 193 346 193 180 c 0
 193 108 216 72 263 72 c 0
 307 72 356 106 425 186 c 1
EndSplineSet
EndChar
StartChar: r
Encoding: 114 114 183
Width: 333
Flags: W
HStem: 0 20 458 84<379 382> 510 20<181 277 277 277>
LayerCount: 2
Fore
SplineSet
75 0 m 1
 181 530 l 1
 277 530 l 1xa0
 258 430 l 1
 306 508 351 542 407 542 c 0
 414 542 421 541 434 539 c 1
 416 450 l 1
 399 455 387 458 377 458 c 0
 340 458 297 424 241 349 c 1
 171 0 l 1xc0
 75 0 l 1
EndSplineSet
EndChar
StartChar: s
Encoding: 115 115 184
Width: 500
Flags: MW
HStem: -12 72<219.5 289.5 219.5 302> 470 72<313 375.5>
VStem: 136 99<378.5 417.5 378.5 420.5> 378 99<122 166.5>
LayerCount: 2
Fore
SplineSet
61 19 m 1
 79 107 l 1
 140 74 191 60 248 60 c 0
 331 60 378 93 378 151 c 0
 378 182 360 201 313 217 c 2
 233 245 l 2
 167 269 136 307 136 366 c 0
 136 475 226 542 371 542 c 0
 412 542 453 537 509 526 c 1
 493 446 l 1
 445 462 400 470 351 470 c 0
 275 470 235 443 235 392 c 0
 235 365 253 347 291 333 c 2
 362 308 l 2
 439 282 477 238 477 176 c 0
 477 67 374 -12 230 -12 c 0xf0
 176 -12 125 -3 61 19 c 1
EndSplineSet
EndChar
StartChar: t
Encoding: 116 116 185
Width: 278
Flags: MW
HStem: -12 20 458 72<121 166 106 181 277 366>
VStem: 97 98<87 90.5>
LayerCount: 2
Fore
SplineSet
272 65 m 1
 259 -3 l 1
 236 -10 220 -12 201 -12 c 0
 133 -12 97 20 97 82 c 0
 97 99 100 123 104 146 c 2
 166 458 l 1
 106 458 l 1
 121 530 l 1
 181 530 l 1
 201 626 l 1
 299 635 l 1
 277 530 l 1
 380 530 l 1
 366 458 l 1
 263 458 l 1
 204 164 l 2
 198 137 195 112 195 101 c 0
 195 73 209 60 239 60 c 0
 252 60 262 62 272 65 c 1
EndSplineSet
EndChar
StartChar: v
Encoding: 118 118 187
Width: 500
Flags: MW
HStem: 0 20 510 20<115 213 213 213 514 600 600 600>
LayerCount: 2
Fore
SplineSet
197 0 m 1
 115 530 l 1
 213 530 l 1
 277 118 l 1
 514 530 l 1
 600 530 l 1
 293 0 l 1
 197 0 l 1
EndSplineSet
EndChar
StartChar: w
Encoding: 119 119 188
Width: 722
Flags: MW
HStem: 0 20 510 20<111 205 205 205 423 519 519 519 738 821 821 821>
LayerCount: 2
Fore
SplineSet
133 0 m 1
 111 530 l 1
 205 530 l 1
 221 131 l 1
 423 530 l 1
 519 530 l 1
 547 129 l 1
 738 530 l 1
 821 530 l 1
 566 0 l 1
 469 0 l 1
 439 410 l 1
 230 0 l 1
 133 0 l 1
EndSplineSet
EndChar
StartChar: x
Encoding: 120 120 189
Width: 500
Flags: MW
HStem: 0 20 510 20<126 237 237 237 489 578 578 578>
LayerCount: 2
Fore
SplineSet
14 0 m 1
 243 280 l 1
 126 530 l 1
 237 530 l 1
 330 331 l 1
 489 530 l 1
 578 530 l 1
 363 263 l 1
 485 0 l 1
 374 0 l 1
 273 213 l 1
 103 0 l 1
 14 0 l 1
EndSplineSet
EndChar
StartChar: y
Encoding: 121 121 190
Width: 500
Flags: MW
HStem: 0 20 510 20<115 213 213 213 515 600 600 600>
LayerCount: 2
Fore
SplineSet
197 0 m 1
 115 530 l 1
 213 530 l 1
 276 123 l 1
 515 530 l 1
 600 530 l 1
 175 -193 l 1
 75 -193 l 1xc0
 197 0 l 1
EndSplineSet
EndChar
StartChar: z
Encoding: 122 122 191
Width: 500
Flags: MW
HStem: 0 72<36 51 51 51 169 464> 458 72<157 431 142 564 549 549>
LayerCount: 2
Fore
SplineSet
36 0 m 1
 51 72 l 1
 431 458 l 1
 142 458 l 1
 157 530 l 1
 564 530 l 1
 549 458 l 1
 169 72 l 1
 478 72 l 1
 464 0 l 1xc0
 36 0 l 1
EndSplineSet
EndChar
StartChar: braceleft
Encoding: 123 123 269
Width: 334
Flags: W
VStem: 88 82<-40.5 -19.5 -40.5 -7.5> 159 73<211.5 226 189 241>
LayerCount: 2
Fore
SplineSet
82 350 m 1x40
 111 350 l 2
 145 350 172 364 187 391 c 0
 202 418 210 459 208 490 c 2
 208 497 l 1
 207 539 l 1
 213 621 219 647 239 680 c 0
 278 744 333 770 431 771 c 1
 417 699 l 1
 391 699 l 2
 329 699 301 666 298 592 c 2
 297 542 l 2
 296 440 261 369 185 313 c 1
 218 278 232 246 232 206 c 0x40
 232 172 223 131 206 84 c 2
 187 35 l 2
 173 -2 170 -14 170 -25 c 0
 170 -56 193 -72 236 -72 c 2
 262 -72 l 1
 248 -145 l 1
 138 -142 88 -104 88 -22 c 0x80
 88 7 97 43 116 87 c 2
 134 130 l 2
 151 168 159 200 159 223 c 0
 159 259 138 277 97 277 c 2
 67 277 l 1
 82 350 l 1x40
EndSplineSet
EndChar
StartChar: bar
Encoding: 124 124 304
Width: 260
Flags: W
LayerCount: 2
Fore
SplineSet
65 -145 m 1
 248 771 l 1
 320 771 l 1
 137 -145 l 1
 65 -145 l 1
EndSplineSet
EndChar
StartChar: braceright
Encoding: 125 125 270
Width: 334
Flags: W
VStem: 228 73<400.5 415.5 386 437.5> 289 82<646 666.5>
LayerCount: 2
Fore
SplineSet
378 277 m 1x80
 347 277 l 2
 307 277 279 257 264 217 c 0
 260 206 251 145 252 130 c 2
 253 87 l 1
 253 80 l 2
 252 -68 174 -145 28 -145 c 1
 43 -72 l 1
 69 -72 l 2
 130 -72 159 -40 161 35 c 2
 162 84 l 2
 164 187 198 257 274 313 c 1
 242 348 228 380 228 421 c 0x80
 228 454 237 499 254 542 c 2
 272 592 l 2
 284 624 289 641 289 651 c 0
 289 682 266 699 223 699 c 2
 197 699 l 1
 211 771 l 1
 322 768 371 730 371 648 c 0x40
 371 620 363 588 342 539 c 2
 325 497 l 2
 309 459 301 427 301 404 c 0
 301 368 322 350 362 350 c 2
 392 350 l 1
 378 277 l 1x80
EndSplineSet
EndChar
StartChar: asciitilde
Encoding: 126 126 307
Width: 584
Flags: MW
HStem: 201 72<449 460.5> 305 72<239 250>
LayerCount: 2
Fore
SplineSet
166 217 m 1
 94 217 l 1
 111 287 130 322 166 349 c 0
 190 367 222 377 256 377 c 0
 288 377 316 366 346 343 c 2
 393 306 l 1
 421 283 l 2
 428 277 443 273 455 273 c 0
 493 273 517 299 532 361 c 1
 605 361 l 1
 588 291 569 256 533 229 c 0
 509 211 477 201 444 201 c 0
 411 201 382 212 353 235 c 2
 306 272 l 1
 278 295 l 2
 270 301 256 305 244 305 c 0
 206 305 182 278 166 217 c 1
EndSplineSet
EndChar
StartChar: exclamdown
Encoding: 161 161 233
Width: 333
Flags: MW
HStem: 433 97<225 302 205 321>
LayerCount: 2
Fore
SplineSet
321 530 m 1
 302 433 l 1
 205 433 l 1
 225 530 l 1
 321 530 l 1
270 337 m 1
 205 -49 l 1
 176 -193 l 1
 80 -193 l 1
 109 -49 l 1
 198 337 l 1
 270 337 l 1
EndSplineSet
EndChar
StartChar: cent
Encoding: 162 162 215
Width: 556
Flags: MW
HStem: 0 20 703 20<454 502 502 502>
VStem: 151 103<254 326 254 346.5>
LayerCount: 2
Fore
SplineSet
309 0 m 1
 326 85 l 1
 213 98 151 174 151 297 c 0
 151 396 188 484 256 549 c 0
 306 596 358 620 436 633 c 1
 454 723 l 1
 502 723 l 1
 484 633 l 1
 527 631 572 623 618 610 c 1
 602 529 l 1
 547 549 505 560 470 563 c 1
 388 153 l 1
 432 153 481 164 533 186 c 1
 519 113 l 1
 466 94 419 85 375 85 c 1
 358 0 l 1
 309 0 l 1
341 158 m 1
 421 559 l 1
 376 553 344 532 313 489 c 0
 275 435 254 363 254 289 c 0
 254 219 279 182 341 158 c 1
EndSplineSet
EndChar
StartChar: sterling
Encoding: 163 163 213
Width: 556
Flags: MW
HStem: 0 84<59 76 76 76 190 472> 350 72<159 231 144 246 342 433> 669 72<452.5 501>
LayerCount: 2
Fore
SplineSet
59 0 m 1
 76 84 l 1
 149 106 193 158 209 239 c 2
 231 350 l 1
 144 350 l 1
 159 422 l 1
 246 422 l 1
 267 527 l 2
 296 671 373 741 501 741 c 0
 535 741 571 736 610 726 c 1
 593 645 l 1
 554 661 519 669 483 669 c 0
 422 669 384 632 369 556 c 2
 342 422 l 1
 448 422 l 1
 433 350 l 1
 328 350 l 1
 315 288 l 2
 294 183 267 140 190 84 c 1
 489 84 l 1
 472 0 l 1
 59 0 l 1
EndSplineSet
EndChar
StartChar: currency
Encoding: 164 164 266
Width: 556
Flags: MW
HStem: 188 60<300.5 333.5> 475 60<367 400.5>
VStem: 174 61<317 350.5> 466 61<372 406 372 411.5>
LayerCount: 2
Fore
SplineSet
222 219 m 1
 131 143 l 1
 97 185 l 1
 188 261 l 1
 179 285 174 306 174 328 c 0
 174 373 190 413 228 461 c 1
 167 537 l 1
 218 580 l 1
 279 504 l 1
 316 525 349 535 385 535 c 0
 421 535 450 525 478 504 c 1
 570 580 l 1
 604 537 l 1
 513 461 l 1
 523 436 527 417 527 395 c 0
 527 349 511 309 473 261 c 1
 534 185 l 1
 483 143 l 1
 422 219 l 1
 384 198 351 188 316 188 c 0
 280 188 251 198 222 219 c 1
373 475 m 0
 300 475 235 411 235 338 c 0
 235 285 273 248 328 248 c 0
 401 248 466 312 466 385 c 0
 466 438 428 475 373 475 c 0
EndSplineSet
EndChar
StartChar: yen
Encoding: 165 165 218
Width: 556
Flags: MW
HStem: 0 20 168 61<122 255 110 266 363 495> 301 60<149 281 136 293 389 522> 703 20<156 268 268 268 584 671 671 671>
LayerCount: 2
Fore
SplineSet
221 0 m 1
 255 168 l 1
 110 168 l 1
 122 229 l 1
 266 229 l 1
 281 301 l 1
 136 301 l 1
 149 361 l 1
 293 361 l 1
 156 723 l 1
 268 723 l 1
 371 450 l 1
 372 450 l 1
 584 723 l 1
 671 723 l 1
 389 361 l 1
 534 361 l 1
 522 301 l 1
 377 301 l 1
 363 229 l 1
 507 229 l 1
 495 168 l 1
 351 168 l 1
 317 0 l 1
 221 0 l 1
EndSplineSet
EndChar
StartChar: brokenbar
Encoding: 166 166 305
Width: 260
Flags: W
LayerCount: 2
Fore
SplineSet
65 -145 m 1
 137 217 l 1
 210 217 l 1
 137 -145 l 1
 65 -145 l 1
176 410 m 1
 248 771 l 1
 320 771 l 1
 248 410 l 1
 176 410 l 1
EndSplineSet
EndChar
StartChar: section
Encoding: 167 167 250
Width: 556
Flags: W
HStem: -163 73<219 293 219 302> 669 72<385 455>
VStem: 122 90<289.5 301.5> 178 92<550 594.5 550 595> 407 90<-17.5 30> 456 91<289.5 294.5>
LayerCount: 2
Fore
SplineSet
38 -127 m 1xc8
 56 -39 l 1
 134 -75 191 -90 247 -90 c 0
 339 -90 407 -47 407 12 c 0
 407 48 393 61 313 98 c 2
 234 136 l 2
 159 171 122 216 122 273 c 0xe8
 122 330 154 383 226 446 c 1
 192 473 178 499 178 538 c 0
 178 652 296 741 447 741 c 0
 495 741 547 734 610 718 c 1
 594 640 l 1
 526 660 478 669 432 669 c 0
 338 669 270 625 270 564 c 0
 270 536 292 513 340 492 c 2
 400 465 l 2
 511 416 547 380 547 318 c 0xd4
 547 261 515 205 441 136 c 1
 480 108 497 77 497 32 c 0
 497 -81 381 -163 223 -163 c 0
 169 -163 117 -153 38 -127 c 1xc8
304 211 m 2
 399 167 l 1
 438 209 456 244 456 278 c 0xc4
 456 311 427 341 368 368 c 2
 268 413 l 1
 229 373 212 341 212 308 c 0
 212 271 242 240 304 211 c 2
EndSplineSet
EndChar
StartChar: copyright
Encoding: 169 169 295
Width: 737
Flags: MW
HStem: 0 52<307 427.5> 154 52<401.5 432.5> 519 46<450 515> 672 51<462 582.5>
VStem: 77 53<230 342.5 230 347> 254 70<282 376 282 384.5> 761 53<376.5 493.5>
LayerCount: 2
Fore
SplineSet
519 723 m 0
 691 723 814 602 814 432 c 0
 814 321 769 220 679 132 c 0
 589 44 485 0 370 0 c 0
 199 0 77 122 77 291 c 0
 77 403 123 504 212 591 c 0
 302 679 405 723 519 723 c 0
506 672 m 0
 390 672 292 621 213 520 c 0
 157 449 130 379 130 306 c 0
 130 154 232 52 382 52 c 0
 487 52 580 94 653 174 c 0
 724 251 761 335 761 417 c 0
 761 570 659 672 506 672 c 0
552 235 m 1
 540 177 l 1
 491 161 451 154 414 154 c 0
 316 154 254 216 254 314 c 0
 254 455 362 565 501 565 c 0
 529 565 566 561 603 553 c 2
 615 551 l 1
 604 493 l 1
 562 511 531 519 499 519 c 0
 401 519 324 432 324 320 c 0
 324 244 363 206 440 206 c 0
 476 206 509 215 552 235 c 1
EndSplineSet
EndChar
StartChar: ordfeminine
Encoding: 170 170 271
Width: 370
Flags: MW
HStem: 402 54<192.5 265.5> 693 49<318 330.5>
VStem: 140 75<481 513.5 481 513.5> 364 74<669 669.5>
LayerCount: 2
Fore
SplineSet
330 447 m 1
 328 447 l 1
 286 415 253 402 218 402 c 0
 167 402 140 427 140 474 c 0
 140 553 215 604 331 604 c 2
 355 604 l 1
 362 639 l 2
 363 647 364 652 364 658 c 0
 364 681 347 693 314 693 c 0
 281 693 247 684 204 663 c 1
 216 718 l 1
 263 735 299 742 337 742 c 0
 404 742 438 719 438 673 c 0
 438 665 436 650 434 641 c 2
 405 495 l 2
 403 484 402 477 402 472 c 0
 402 458 411 449 424 450 c 2
 435 451 l 1
 436 452 l 1
 431 411 l 1
 413 405 397 402 382 402 c 0
 349 402 333 416 330 447 c 1
331 487 m 1
 346 562 l 1
 328 562 l 2
 260 562 215 534 215 493 c 0
 215 469 229 456 254 456 c 0
 277 456 301 466 331 487 c 1
EndSplineSet
EndChar
StartChar: guillemotleft
Encoding: 171 171 237
Width: 556
Flags: W
LayerCount: 2
Fore
SplineSet
579 446 m 1
 398 265 l 1
 506 84 l 1
 451 48 l 1
 301 265 l 1
 538 482 l 1
 579 446 l 1
386 446 m 1
 205 265 l 1
 314 84 l 1
 258 48 l 1
 109 265 l 1
 345 482 l 1
 386 446 l 1
EndSplineSet
EndChar
StartChar: logicalnot
Encoding: 172 172 302
Width: 584
Flags: MW
HStem: 362 72<114 611 129 524>
LayerCount: 2
Fore
SplineSet
114 362 m 1
 129 434 l 1
 611 434 l 1
 552 145 l 1
 480 145 l 1
 524 362 l 1
 114 362 l 1
EndSplineSet
EndChar
StartChar: sfthyphen
Encoding: 173 173 242
Width: 333
Flags: MW
HStem: 253 72<94 356 109 341>
LayerCount: 2
Fore
SplineSet
94 253 m 1
 109 325 l 1
 356 325 l 1
 341 253 l 1
 94 253 l 1
EndSplineSet
EndChar
StartChar: registered
Encoding: 174 174 296
Width: 737
Flags: MW
HStem: 0 52<307 427.5> 672 51<462 582.5>
VStem: 77 53<230 342.5 230 347> 527 63<454 483.5> 761 53<376.5 493.5>
LayerCount: 2
Fore
SplineSet
519 723 m 0
 691 723 814 602 814 432 c 0
 814 321 769 220 679 132 c 0
 589 44 485 0 370 0 c 0
 199 0 77 122 77 291 c 0
 77 403 123 504 212 591 c 0
 302 679 405 723 519 723 c 0
506 672 m 0
 390 672 292 621 213 520 c 0
 157 449 130 379 130 306 c 0
 130 154 232 52 382 52 c 0
 487 52 580 94 653 174 c 0
 724 251 761 335 761 417 c 0
 761 570 659 672 506 672 c 0
287 165 m 1
 365 555 l 1
 488 555 l 2
 557 555 590 531 590 482 c 0
 590 426 561 384 496 346 c 1
 577 165 l 1
 505 165 l 1
 431 328 l 1
 382 328 l 1
 350 165 l 1
 287 165 l 1
388 376 m 1
 406 376 l 2
 485 376 527 408 527 467 c 0
 527 500 503 515 451 515 c 2
 415 515 l 1
 388 376 l 1
EndSplineSet
EndChar
StartChar: macron
Encoding: 349 175 293
Width: 333
Flags: MW
HStem: 627 72<135 463 149 448>
LayerCount: 2
Fore
SplineSet
135 627 m 1
 149 699 l 1
 463 699 l 1
 448 627 l 1x80
 135 627 l 1
EndSplineSet
EndChar
StartChar: degree
Encoding: 176 176 258
Width: 400
Flags: MW
HStem: 451 61<281.5 331.5 281.5 338.5> 681 61<313 362.5>
VStem: 175 61<557 606 557 614> 408 62<587 636>
LayerCount: 2
Fore
SplineSet
352 742 m 0
 421 742 470 693 470 624 c 0
 470 534 385 451 292 451 c 0
 224 451 175 500 175 568 c 0
 175 660 259 742 352 742 c 0
341 681 m 0
 285 681 236 633 236 579 c 0
 236 535 259 512 304 512 c 0
 359 512 408 560 408 614 c 0
 408 658 384 681 341 681 c 0
EndSplineSet
EndChar
StartChar: plusminus
Encoding: 177 177 273
Width: 584
Flags: MW
HStem: 0 72<51 548 66 533> 325 72<131 321 116 335 131 393 407 598>
LayerCount: 2
Fore
SplineSet
285 145 m 1
 321 325 l 1
 116 325 l 1
 131 397 l 1
 335 397 l 1
 371 578 l 1
 444 578 l 1
 407 397 l 1
 613 397 l 1
 598 325 l 1
 393 325 l 1
 357 145 l 1
 285 145 l 1
51 0 m 1
 66 72 l 1
 548 72 l 1
 533 0 l 1
 51 0 l 1
EndSplineSet
EndChar
StartChar: twosuperior
Encoding: 178 178 220
Width: 333
Flags: MW
HStem: 289 60<94 106 106 106 190 368> 684 50<296.5 315>
VStem: 359 78<612.5 647.5>
LayerCount: 2
Fore
SplineSet
94 289 m 1
 106 349 l 1
 135 387 173 423 217 456 c 2
 257 486 l 2
 325 538 359 586 359 630 c 0
 359 665 336 684 294 684 c 0
 261 684 227 674 177 651 c 1
 189 708 l 1
 238 726 276 734 317 734 c 0
 395 734 437 702 437 640 c 0
 437 585 400 533 317 473 c 2
 287 451 l 2
 235 414 205 382 190 349 c 1
 380 349 l 1
 368 289 l 1
 94 289 l 1
EndSplineSet
EndChar
StartChar: threesuperior
Encoding: 179 179 221
Width: 333
Flags: W
HStem: 279 49<191 234 191 254.5> 685 49<281 299.5>
VStem: 311 77<397.5 448.5> 343 76<621 651.5>
LayerCount: 2
Fore
SplineSet
175 661 m 1xd0
 185 716 l 1
 227 728 262 734 300 734 c 0
 380 734 419 707 419 651 c 0xd0
 419 591 382 551 302 523 c 1
 362 507 388 479 388 429 c 0
 388 342 309 279 200 279 c 0
 168 279 133 284 95 293 c 1
 107 352 l 1
 150 335 178 328 204 328 c 0
 264 328 311 370 311 425 c 0xe0
 311 472 274 496 200 496 c 2
 176 496 l 1
 185 541 l 1
 206 541 l 2
 291 541 343 577 343 635 c 0
 343 668 321 685 278 685 c 0
 248 685 216 678 175 661 c 1xd0
EndSplineSet
EndChar
StartChar: acute
Encoding: 180 180 284
Width: 333
Flags: W
LayerCount: 2
Fore
SplineSet
177 626 m 1
 325 783 l 1
 437 783 l 1
 249 626 l 1
 177 626 l 1
EndSplineSet
EndChar
StartChar: mu
Encoding: 181 181 308
Width: 556
Flags: W
HStem: -9 80<227.5 253.5> 0 20 510 20<176 272 272 272 490 587 587 587>
LayerCount: 2
Fore
SplineSet
176 530 m 1xa0
 272 530 l 1
 202 181 l 2
 197 158 194 132 194 120 c 0
 194 88 211 71 244 71 c 0xa0
 299 71 353 106 422 186 c 1
 490 530 l 1
 587 530 l 1
 481 0 l 1
 385 0 l 1x60
 405 99 l 1
 336 24 281 -9 226 -9 c 0
 206 -9 188 -2 168 12 c 1
 127 -193 l 1
 31 -193 l 1
 176 530 l 1xa0
EndSplineSet
EndChar
StartChar: paragraph
Encoding: 182 182 265
Width: 537
Flags: MW
HStem: 663 60<443 515 443 443>
LayerCount: 2
Fore
SplineSet
221 -144 m 1
 322 362 l 1
 251 369 214 384 186 417 c 0
 164 442 153 476 153 519 c 0
 153 589 184 655 234 690 c 0
 268 714 313 723 395 723 c 2
 587 723 l 1
 414 -144 l 1
 354 -144 l 1
 515 663 l 1
 443 663 l 1
 281 -144 l 1
 221 -144 l 1
EndSplineSet
EndChar
StartChar: periodcentered
Encoding: 340 183 224
Width: 278
Flags: MW
HStem: 239 121<127 272 151 248>
LayerCount: 2
Fore
SplineSet
127 239 m 1
 151 360 l 1
 272 360 l 1
 248 239 l 1
 127 239 l 1
EndSplineSet
EndChar
StartChar: cedilla
Encoding: 184 184 291
Width: 333
Flags: MW
HStem: -211 42<99 118.5 91 141> 0 20
VStem: 158 69<-140.5 -113>
LayerCount: 2
Fore
SplineSet
139 0 m 1
 186 0 l 1
 146 -53 l 1
 202 -57 227 -78 227 -119 c 0
 227 -168 172 -211 110 -211 c 0
 88 -211 66 -208 42 -201 c 1
 50 -161 l 1
 65 -166 82 -169 100 -169 c 0
 137 -169 158 -154 158 -127 c 0
 158 -99 134 -87 75 -85 c 1xe0
 139 0 l 1
EndSplineSet
EndChar
StartChar: onesuperior
Encoding: 185 185 219
Width: 333
Flags: MW
HStem: 714 20<375 375>
LayerCount: 2
Fore
SplineSet
214 289 m 1
 289 660 l 1
 187 636 l 1
 198 692 l 1
 375 734 l 1
 287 289 l 1
 214 289 l 1
EndSplineSet
EndChar
StartChar: ordmasculine
Encoding: 186 186 272
Width: 365
Flags: MW
HStem: 402 50<257 302 257 315.5> 692 49<295.5 340>
VStem: 148 76<497.5 568.5 497.5 587.5> 374 76<575.5 646>
LayerCount: 2
Fore
SplineSet
334 741 m 0
 411 741 450 699 450 617 c 0
 450 494 369 402 262 402 c 0
 187 402 148 444 148 526 c 0
 148 649 228 741 334 741 c 0
323 692 m 0
 268 692 224 616 224 521 c 0
 224 474 240 452 274 452 c 0
 330 452 374 528 374 623 c 0
 374 669 357 692 323 692 c 0
EndSplineSet
EndChar
StartChar: guillemotright
Encoding: 187 187 236
Width: 556
Flags: W
LayerCount: 2
Fore
SplineSet
83 84 m 1
 264 265 l 1
 155 446 l 1
 210 482 l 1
 360 265 l 1
 124 48 l 1
 83 84 l 1
275 84 m 1
 456 265 l 1
 348 446 l 1
 403 482 l 1
 553 265 l 1
 316 48 l 1
 275 84 l 1
EndSplineSet
EndChar
StartChar: onequarter
Encoding: 188 188 275
Width: 834
Flags: W
HStem: -18 20 0 20 118 57<547 671 547 737 749 798> 721 20<773 839 839 839>
LayerCount: 2
Fore
SplineSet
212 289 m 1x60
 286 660 l 1
 184 636 l 1
 195 692 l 1
 373 734 l 1
 284 289 l 1
 212 289 l 1x60
648 0 m 1
 671 118 l 1
 472 118 l 1
 484 173 l 1
 733 434 l 1
 800 434 l 1
 749 175 l 1
 809 175 l 1
 798 118 l 1
 737 118 l 1
 714 0 l 1
 648 0 l 1
547 175 m 1
 683 175 l 1
 718 353 l 1
 547 175 l 1
90 -18 m 1x90
 773 741 l 1
 839 741 l 1
 156 -18 l 1
 90 -18 l 1x90
EndSplineSet
EndChar
StartChar: onehalf
Encoding: 189 189 274
Width: 834
Flags: W
HStem: -18 20 0 60<498 509 509 509 594 772> 396 49<700 718.5> 721 20<748 814 814 814>
VStem: 763 78<323 359.5>
LayerCount: 2
Fore
SplineSet
498 0 m 1x68
 509 60 l 1
 537 96 576 134 620 167 c 2
 660 197 l 2
 728 248 763 297 763 342 c 0
 763 377 740 396 697 396 c 0
 665 396 630 386 581 362 c 1
 592 419 l 1
 640 437 679 445 721 445 c 0
 799 445 841 413 841 351 c 0
 841 295 801 240 720 183 c 2
 690 162 l 2
 640 126 608 93 594 60 c 1
 784 60 l 1
 772 0 l 1
 498 0 l 1x68
65 -18 m 1x98
 748 741 l 1
 814 741 l 1
 131 -18 l 1
 65 -18 l 1x98
211 289 m 1
 285 660 l 1
 184 636 l 1
 195 692 l 1
 372 734 l 1
 283 289 l 1
 211 289 l 1
EndSplineSet
EndChar
StartChar: threequarters
Encoding: 190 190 276
Width: 834
Flags: W
HStem: -18 20 0 20 118 57<553 677 553 743 755 803> 279 49<209 252 209 273.5> 685 49<299 317.5> 721 20<818 884 884 884>
VStem: 329 77<397.5 448.5> 361 76<621 651.5>
LayerCount: 2
Fore
SplineSet
193 661 m 1x79
 203 716 l 1
 245 728 280 734 318 734 c 0
 398 734 437 707 437 651 c 0x79
 437 591 400 551 320 523 c 1
 380 507 406 479 406 429 c 0
 406 342 328 279 219 279 c 0
 186 279 151 284 113 293 c 1
 125 352 l 1
 168 335 196 328 222 328 c 0
 282 328 329 370 329 425 c 0x7a
 329 472 292 496 218 496 c 2
 194 496 l 1
 203 541 l 1
 224 541 l 2
 309 541 361 577 361 635 c 0
 361 668 339 685 296 685 c 0
 266 685 234 678 193 661 c 1x79
654 0 m 1
 677 118 l 1
 478 118 l 1
 489 173 l 1
 738 434 l 1
 806 434 l 1
 755 175 l 1
 815 175 l 1
 803 118 l 1
 743 118 l 1
 719 0 l 1
 654 0 l 1
553 175 m 1
 689 175 l 1
 724 353 l 1
 553 175 l 1
135 -18 m 1x85
 818 741 l 1
 884 741 l 1
 201 -18 l 1
 135 -18 l 1x85
EndSplineSet
EndChar
StartChar: questiondown
Encoding: 191 191 235
Width: 611
Flags: MW
HStem: -211 72<263 313> 433 97<414 492 395 511>
VStem: 81 104<-89 -40.5>
LayerCount: 2
Fore
SplineSet
511 530 m 1
 492 433 l 1
 395 433 l 1
 414 530 l 1
 511 530 l 1
473 337 m 1
 467 310 l 2
 451 231 412 170 351 129 c 2
 301 95 l 2
 225 44 185 -11 185 -64 c 0
 185 -114 224 -139 302 -139 c 0
 359 -139 420 -128 500 -102 c 1
 484 -184 l 1
 406 -203 345 -211 281 -211 c 0
 147 -211 81 -166 81 -77 c 0
 81 -4 125 59 207 105 c 2
 252 129 l 2
 325 171 348 202 365 283 c 2
 376 337 l 1
 473 337 l 1
EndSplineSet
EndChar
StartChar: Agrave
Encoding: 192 192 2
Width: 667
Flags: MW
HStem: 0 20 200 76<264 496 264 509 219 496> 703 20<428 530 530 530>
LayerCount: 2
Fore
SplineSet
9 0 m 1
 428 723 l 1
 530 723 l 1
 655 0 l 1
 545 0 l 1
 509 200 l 1
 219 200 l 1
 104 0 l 1
 9 0 l 1
264 276 m 1
 496 276 l 1
 443 586 l 1
 264 276 l 1
563 783 m 1
 491 783 l 1
 365 940 l 1
 477 940 l 1
 563 783 l 1
EndSplineSet
EndChar
StartChar: Aacute
Encoding: 193 193 1
Width: 667
Flags: MW
HStem: 0 20 200 76<264 496 264 509 219 496> 703 20<428 530 530 530>
LayerCount: 2
Fore
SplineSet
9 0 m 1
 428 723 l 1
 530 723 l 1
 655 0 l 1
 545 0 l 1
 509 200 l 1
 219 200 l 1
 104 0 l 1
 9 0 l 1
264 276 m 1
 496 276 l 1
 443 586 l 1
 264 276 l 1
419 783 m 1
 567 940 l 1
 679 940 l 1
 491 783 l 1
 419 783 l 1
EndSplineSet
EndChar
StartChar: Acircumflex
Encoding: 194 194 3
Width: 667
Flags: MW
HStem: 0 20 200 76<264 496 264 509 219 496> 703 20<428 530 530 530>
LayerCount: 2
Fore
SplineSet
9 0 m 1
 428 723 l 1
 530 723 l 1
 655 0 l 1
 545 0 l 1
 509 200 l 1
 219 200 l 1
 104 0 l 1
 9 0 l 1
264 276 m 1
 496 276 l 1
 443 586 l 1
 264 276 l 1
320 783 m 1
 469 940 l 1
 575 940 l 1
 662 783 l 1
 589 783 l 1
 511 881 l 1
 510 881 l 1
 392 783 l 1
 320 783 l 1
EndSplineSet
EndChar
StartChar: Atilde
Encoding: 195 195 5
Width: 667
Flags: W
HStem: 0 20 200 76<264 496 264 509 219 496> 703 20<428 530 530 530> 783 61<564 579.5 564 591> 837 61<425 441>
LayerCount: 2
Fore
SplineSet
9 0 m 1xe8
 428 723 l 1
 530 723 l 1
 655 0 l 1
 545 0 l 1
 509 200 l 1
 219 200 l 1
 104 0 l 1
 9 0 l 1xe8
264 276 m 1
 496 276 l 1
 443 586 l 1
 264 276 l 1
388 783 m 1
 328 783 l 1
 350 863 384 898 442 898 c 0x08
 465 898 486 892 504 879 c 2
 530 861 l 2
 546 849 559 844 569 844 c 0
 590 844 605 861 616 897 c 1
 676 897 l 1
 655 817 620 783 562 783 c 0x10
 540 783 517 790 501 802 c 2
 475 820 l 2
 459 831 446 837 436 837 c 0
 414 837 399 820 388 783 c 1
EndSplineSet
EndChar
StartChar: Adieresis
Encoding: 196 196 0
Width: 667
Flags: MW
HStem: 0 20 200 76<264 496 264 509 219 496> 703 20<428 530 530 530> 784 84<352 453 369 437 562 630>
LayerCount: 2
Fore
SplineSet
9 0 m 1
 428 723 l 1
 530 723 l 1
 655 0 l 1
 545 0 l 1
 509 200 l 1
 219 200 l 1
 104 0 l 1
 9 0 l 1
264 276 m 1
 496 276 l 1
 443 586 l 1
 264 276 l 1
352 784 m 1
 369 868 l 1
 453 868 l 1
 437 784 l 1
 352 784 l 1
545 784 m 1
 562 868 l 1
 646 868 l 1
 630 784 l 1
 545 784 l 1
EndSplineSet
EndChar
StartChar: Aring
Encoding: 197 197 6
Width: 667
Flags: MW
HStem: 0 20 200 76<264 496 264 509 219 496> 703 20<428 530 451.5 514 530 530> 723 42<468 508.5 468 530 468 508.5 468 514 468 530> 903 42<492.5 533.5>
VStem: 388 43<802 842 802 847> 571 43<826.5 866.5>
LayerCount: 2
Fore
SplineSet
9 0 m 1xfe
 428 723 l 1
 530 723 l 1
 655 0 l 1
 545 0 l 1
 509 200 l 1
 219 200 l 1
 104 0 l 1
 9 0 l 1xfe
264 276 m 1
 496 276 l 1
 443 586 l 1
 264 276 l 1
524 945 m 0
 577 945 614 908 614 856 c 0
 614 786 550 723 478 723 c 0
 425 723 388 760 388 812 c 0
 388 882 452 945 524 945 c 0
515 903 m 0
 470 903 431 864 431 820 c 0
 431 784 450 765 486 765 c 0
 531 765 571 804 571 849 c 0
 571 884 552 903 515 903 c 0
EndSplineSet
EndChar
StartChar: AE
Encoding: 198 198 159
Width: 1000
Flags: MW
HStem: 0 77<613 971> 338 76<680 969 665 985> 646 77<727 1079 727 727>
LayerCount: 2
Fore
SplineSet
347 278 m 1
 551 278 l 1
 615 599 l 1
 347 278 l 1
9 0 m 1
 613 723 l 1
 1095 723 l 1
 1079 646 l 1
 727 646 l 1
 680 414 l 1
 985 414 l 1
 969 338 l 1
 665 338 l 1
 613 77 l 1
 987 77 l 1
 971 0 l 1
 495 0 l 1
 536 202 l 1
 283 202 l 1
 115 0 l 1
 9 0 l 1
EndSplineSet
EndChar
StartChar: Ccedilla
Encoding: 199 199 8
Width: 722
Flags: W
HStem: -211 43<342 361 333 384> -18 80<378 465> 0 20 664 77<509 590.5>
VStem: 125 110<205 324.5 205 324.5> 401 68<-139.5 -112>
LayerCount: 2
Fore
SplineSet
692 125 m 1x5c
 674 37 l 1
 589 -1 511 -18 419 -18 c 0
 222 -18 125 74 125 261 c 0
 125 388 167 507 245 598 c 0
 326 694 436 741 581 741 c 0
 650 741 719 731 808 709 c 1
 789 613 l 1
 690 649 621 664 560 664 c 0
 458 664 379 624 321 545 c 0
 266 470 235 373 235 276 c 0
 235 134 307 62 449 62 c 0
 525 62 597 81 692 125 c 1x5c
381 0 m 1xac
 428 0 l 1
 388 -53 l 1
 444 -57 469 -77 469 -119 c 0
 469 -168 415 -211 353 -211 c 0
 331 -211 308 -207 284 -201 c 1
 292 -161 l 1
 307 -166 324 -168 342 -168 c 0
 380 -168 401 -153 401 -126 c 0
 401 -98 377 -87 317 -85 c 1
 381 0 l 1xac
EndSplineSet
EndChar
StartChar: Egrave
Encoding: 200 200 14
Width: 667
Flags: MW
HStem: 0 77<211 638> 338 76<278 636 263 652> 646 77<324 746 324 324>
LayerCount: 2
Fore
SplineSet
93 0 m 1
 238 723 l 1
 761 723 l 1
 746 646 l 1
 324 646 l 1
 278 414 l 1
 652 414 l 1
 636 338 l 1
 263 338 l 1
 211 77 l 1
 654 77 l 1
 638 0 l 1
 93 0 l 1
593 783 m 1
 521 783 l 1
 395 940 l 1
 507 940 l 1
 593 783 l 1
EndSplineSet
EndChar
StartChar: Ecircumflex
Encoding: 202 202 15
Width: 667
Flags: MW
HStem: 0 77<211 638> 338 76<278 636 263 652> 646 77<324 746 324 324>
LayerCount: 2
Fore
SplineSet
93 0 m 1
 238 723 l 1
 761 723 l 1
 746 646 l 1
 324 646 l 1
 278 414 l 1
 652 414 l 1
 636 338 l 1
 263 338 l 1
 211 77 l 1
 654 77 l 1
 638 0 l 1
 93 0 l 1
351 783 m 1
 500 940 l 1
 607 940 l 1
 693 783 l 1
 620 783 l 1
 542 881 l 1
 541 881 l 1
 423 783 l 1
 351 783 l 1
EndSplineSet
EndChar
StartChar: Edieresis
Encoding: 203 203 12
Width: 667
Flags: MW
HStem: 0 77<211 638> 338 76<278 636 263 652> 646 77<324 746 324 324> 784 84<376 477 393 461 586 653>
LayerCount: 2
Fore
SplineSet
93 0 m 1
 238 723 l 1
 761 723 l 1
 746 646 l 1
 324 646 l 1
 278 414 l 1
 652 414 l 1
 636 338 l 1
 263 338 l 1
 211 77 l 1
 654 77 l 1
 638 0 l 1
 93 0 l 1
376 784 m 1
 393 868 l 1
 477 868 l 1
 461 784 l 1
 376 784 l 1
569 784 m 1
 586 868 l 1
 670 868 l 1
 653 784 l 1
 569 784 l 1
EndSplineSet
EndChar
StartChar: Igrave
Encoding: 204 204 22
Width: 278
Flags: MW
HStem: 0 20 703 20<233 335 335 335>
LayerCount: 2
Fore
SplineSet
88 0 m 1
 233 723 l 1
 335 723 l 1
 191 0 l 1
 88 0 l 1
368 783 m 1
 296 783 l 1
 171 940 l 1
 282 940 l 1
 368 783 l 1
EndSplineSet
EndChar
StartChar: Iacute
Encoding: 205 205 21
Width: 278
Flags: MW
HStem: 0 20 703 20<233 335 335 335>
LayerCount: 2
Fore
SplineSet
88 0 m 1
 233 723 l 1
 335 723 l 1
 191 0 l 1
 88 0 l 1
223 783 m 1
 372 940 l 1
 484 940 l 1
 296 783 l 1
 223 783 l 1
EndSplineSet
EndChar
StartChar: Icircumflex
Encoding: 206 206 23
Width: 278
Flags: MW
HStem: 0 20 703 20<233 335 335 335>
LayerCount: 2
Fore
SplineSet
88 0 m 1
 233 723 l 1
 335 723 l 1
 191 0 l 1
 88 0 l 1
125 783 m 1
 274 940 l 1
 380 940 l 1
 467 783 l 1
 394 783 l 1
 316 881 l 1
 315 881 l 1
 197 783 l 1
 125 783 l 1
EndSplineSet
EndChar
StartChar: Idieresis
Encoding: 207 207 20
Width: 278
Flags: MW
HStem: 0 20 703 20<233 335 335 335> 784 84<157 258 174 242 367 434>
LayerCount: 2
Fore
SplineSet
88 0 m 1
 233 723 l 1
 335 723 l 1
 191 0 l 1
 88 0 l 1
157 784 m 1
 174 868 l 1
 258 868 l 1
 242 784 l 1
 157 784 l 1
350 784 m 1
 367 868 l 1
 451 868 l 1
 434 784 l 1
 350 784 l 1
EndSplineSet
EndChar
StartChar: Eth
Encoding: 208 208 162
Width: 722
Flags: MW
HStem: 0 77<199 314> 331 77<85 148 69 163 265 413> 646 77<313 389 313 313>
VStem: 649 113<410 521>
LayerCount: 2
Fore
SplineSet
81 0 m 1
 148 331 l 1
 69 331 l 1
 85 408 l 1
 163 408 l 1
 226 723 l 1
 457 723 l 2
 666 723 762 643 762 468 c 0
 762 352 723 243 651 153 c 0
 567 50 457 0 314 0 c 2
 81 0 l 1
199 77 m 1
 322 77 l 2
 413 77 472 95 520 138 c 0
 598 208 649 330 649 448 c 0
 649 594 581 646 389 646 c 2
 313 646 l 1
 265 408 l 1
 428 408 l 1
 413 331 l 1
 250 331 l 1
 199 77 l 1
EndSplineSet
EndChar
StartChar: Ntilde
Encoding: 209 209 29
Width: 722
Flags: W
HStem: 0 20 703 20<226 326 326 326 698 786 786 786> 783 61<603 619 603 631> 837 61<464.5 480.5>
LayerCount: 2
Fore
SplineSet
81 0 m 1xd0
 226 723 l 1
 326 723 l 1
 586 165 l 1
 698 723 l 1
 786 723 l 1
 642 0 l 1
 541 0 l 1
 281 558 l 1
 169 0 l 1
 81 0 l 1xd0
428 783 m 1
 368 783 l 1
 390 864 424 898 482 898 c 0x10
 504 898 526 891 543 879 c 2
 569 861 l 2
 584 850 598 844 608 844 c 0
 630 844 645 861 656 897 c 1
 716 897 l 1
 694 817 660 783 602 783 c 0x20
 579 783 558 789 540 802 c 2
 515 820 l 2
 497 832 486 837 475 837 c 0
 454 837 439 820 428 783 c 1
EndSplineSet
EndChar
StartChar: Oacute
Encoding: 211 211 31
Width: 778
Flags: MW
HStem: -18 77<344.5 447.5> 664 77<483.5 587.5>
VStem: 113 108<199.5 330> 713 108<393 525>
LayerCount: 2
Fore
SplineSet
479 783 m 1
 628 940 l 1
 739 940 l 1
 551 783 l 1
 479 783 l 1
544 741 m 0
 721 741 821 639 821 459 c 0
 821 327 778 211 696 120 c 0
 613 28 509 -18 386 -18 c 0
 214 -18 113 87 113 265 c 0
 113 395 156 511 238 602 c 0
 321 695 423 741 544 741 c 0
527 664 m 0
 354 664 221 491 221 266 c 0
 221 133 286 59 403 59 c 0
 580 59 713 230 713 458 c 0
 713 592 648 664 527 664 c 0
EndSplineSet
EndChar
StartChar: Otilde
Encoding: 213 213 34
Width: 778
Flags: W
HStem: -18 77<344.5 447.5> 664 77<483.5 587.5> 783 61<624 640 624 652> 837 61<485.5 501.5>
VStem: 113 108<199.5 330> 713 108<393 525>
LayerCount: 2
Fore
SplineSet
544 741 m 0xdc
 721 741 821 639 821 459 c 0
 821 327 778 211 696 120 c 0
 613 28 509 -18 386 -18 c 0
 214 -18 113 87 113 265 c 0
 113 395 156 511 238 602 c 0
 321 695 423 741 544 741 c 0xdc
527 664 m 0
 354 664 221 491 221 266 c 0
 221 133 286 59 403 59 c 0
 580 59 713 230 713 458 c 0
 713 592 648 664 527 664 c 0
449 783 m 1
 389 783 l 1
 411 864 445 898 503 898 c 0x1c
 525 898 546 892 564 879 c 2
 590 861 l 2
 607 849 619 844 629 844 c 0
 651 844 666 861 676 897 c 1
 737 897 l 1
 715 817 681 783 623 783 c 0x2c
 600 783 578 790 561 802 c 2
 536 820 l 2
 519 832 507 837 496 837 c 0
 475 837 460 820 449 783 c 1
EndSplineSet
EndChar
StartChar: Odieresis
Encoding: 214 214 30
Width: 778
Flags: MW
HStem: -18 77<344.5 447.5> 664 77<483.5 587.5> 784 84<413 514 430 497 622 690>
VStem: 113 108<199.5 330> 713 108<393 525>
LayerCount: 2
Fore
SplineSet
544 741 m 0
 721 741 821 639 821 459 c 0
 821 327 778 211 696 120 c 0
 613 28 509 -18 386 -18 c 0
 214 -18 113 87 113 265 c 0
 113 395 156 511 238 602 c 0
 321 695 423 741 544 741 c 0
527 664 m 0
 354 664 221 491 221 266 c 0
 221 133 286 59 403 59 c 0
 580 59 713 230 713 458 c 0
 713 592 648 664 527 664 c 0
413 784 m 1
 430 868 l 1
 514 868 l 1
 497 784 l 1
 413 784 l 1
606 784 m 1
 622 868 l 1
 707 868 l 1
 690 784 l 1
 606 784 l 1
EndSplineSet
EndChar
StartChar: multiply
Encoding: 215 215 261
Width: 584
Flags: W
LayerCount: 2
Fore
SplineSet
79 106 m 1
 299 289 l 1
 152 472 l 1
 214 523 l 1
 360 340 l 1
 580 523 l 1
 621 472 l 1
 401 289 l 1
 548 106 l 1
 486 54 l 1
 340 238 l 1
 120 54 l 1
 79 106 l 1
EndSplineSet
EndChar
StartChar: Oslash
Encoding: 216 216 161
Width: 778
Flags: MW
HStem: -18 77<370 445> 664 77<477 553>
VStem: 107 110<244 330.5> 706 109<393 479.5>
LayerCount: 2
Fore
SplineSet
47 -18 m 1
 153 90 l 1
 120 143 107 193 107 265 c 0
 107 396 150 511 232 602 c 0
 315 695 417 741 537 741 c 0
 619 741 678 721 732 676 c 1
 797 741 l 1
 881 741 l 1
 771 630 l 1
 802 578 815 528 815 458 c 0
 815 328 772 212 690 121 c 0
 608 28 505 -18 385 -18 c 0
 305 -18 248 1 193 44 c 1
 131 -18 l 1
 47 -18 l 1
693 551 m 1
 262 115 l 1
 298 76 340 59 400 59 c 0
 575 59 706 231 706 461 c 0
 706 498 702 522 693 551 c 1
231 169 m 1
 663 606 l 1
 625 647 583 664 523 664 c 0
 347 664 217 493 217 263 c 0
 217 225 221 198 231 169 c 1
EndSplineSet
EndChar
StartChar: Ugrave
Encoding: 217 217 44
Width: 722
Flags: MW
HStem: -18 77<333 415> 703 20<227 330 330 330 697 787 787 787>
VStem: 124 102<135 177>
LayerCount: 2
Fore
SplineSet
227 723 m 1
 330 723 l 1
 238 267 l 2
 230 226 226 195 226 173 c 0
 226 97 280 59 386 59 c 0
 517 59 575 113 605 263 c 2
 697 723 l 1
 787 723 l 1
 695 265 l 2
 676 167 652 113 610 72 c 0
 550 12 467 -18 363 -18 c 0
 204 -18 124 43 124 163 c 0
 124 191 128 228 136 268 c 2
 227 723 l 1
598 783 m 1
 525 783 l 1
 400 940 l 1
 512 940 l 1
 598 783 l 1
EndSplineSet
EndChar
StartChar: Udieresis
Encoding: 220 220 42
Width: 722
Flags: MW
HStem: -18 77<333 415> 703 20<227 330 330 330 697 787 787 787> 784 84<387 488 404 471 597 664>
VStem: 124 102<135 177>
LayerCount: 2
Fore
SplineSet
227 723 m 1
 330 723 l 1
 238 267 l 2
 230 226 226 195 226 173 c 0
 226 97 280 59 386 59 c 0
 517 59 575 113 605 263 c 2
 697 723 l 1
 787 723 l 1
 695 265 l 2
 676 167 652 113 610 72 c 0
 550 12 467 -18 363 -18 c 0
 204 -18 124 43 124 163 c 0
 124 191 128 228 136 268 c 2
 227 723 l 1
387 784 m 1
 404 868 l 1
 488 868 l 1
 471 784 l 1
 387 784 l 1
580 784 m 1
 597 868 l 1
 681 868 l 1
 664 784 l 1
 580 784 l 1
EndSplineSet
EndChar
StartChar: Yacute
Encoding: 221 221 48
Width: 667
Flags: MW
HStem: 0 20 703 20<159 276 276 276 702 797 797 797>
LayerCount: 2
Fore
SplineSet
274 0 m 1
 334 301 l 1
 159 723 l 1
 276 723 l 1
 415 388 l 1
 702 723 l 1
 797 723 l 1
 437 304 l 1
 376 0 l 1
 274 0 l 1
422 783 m 1
 570 940 l 1
 682 940 l 1
 494 783 l 1
 422 783 l 1
EndSplineSet
EndChar
StartChar: Thorn
Encoding: 222 222 165
Width: 667
Flags: MW
HStem: 0 20 150 78<229 365 214 376> 509 77<302 435 286 482> 703 20<227 329 329 329>
VStem: 617 112<360 454>
LayerCount: 2
Fore
SplineSet
82 0 m 1
 227 723 l 1
 329 723 l 1
 302 586 l 1
 482 586 l 2
 673 586 729 554 729 445 c 0
 729 268 584 150 365 150 c 2
 214 150 l 1
 184 0 l 1
 82 0 l 1
229 228 m 1
 376 228 l 2
 523 228 617 302 617 418 c 0
 617 490 578 509 435 509 c 2
 286 509 l 1
 229 228 l 1
EndSplineSet
EndChar
StartChar: germandbls
Encoding: 223 223 195
Width: 611
Flags: W
HStem: -12 72<378 433 378 449> 0 20 712 72<366 431.5>
VStem: 487 100<651.5 675> 508 95<123 166>
LayerCount: 2
Fore
SplineSet
63 0 m 1x70
 175 562 l 2
 208 727 272 784 423 784 c 0
 532 784 587 748 587 678 c 0xb0
 587 625 559 577 495 519 c 0
 448 477 427 448 427 424 c 0
 427 409 441 389 468 366 c 2
 544 299 l 2
 585 264 603 227 603 181 c 0
 603 64 516 -12 382 -12 c 0
 328 -12 283 -4 241 15 c 1
 257 99 l 1
 318 71 358 60 398 60 c 0
 468 60 508 93 508 153 c 0xa8
 508 179 496 202 468 227 c 2
 379 307 l 2
 349 335 334 361 334 388 c 0
 334 427 359 470 416 530 c 0
 465 582 487 620 487 657 c 0
 487 693 459 712 404 712 c 0
 328 712 296 683 280 603 c 2
 159 0 l 1
 63 0 l 1x70
EndSplineSet
EndChar
StartChar: acircumflex
Encoding: 226 226 69
Width: 556
Flags: MW
HStem: -12 79<224 231> 470 72<360 387.5>
VStem: 71 104<110.5 169 110.5 169> 445 99<429.5 432>
LayerCount: 2
Fore
SplineSet
542 57 m 1
 538 3 l 1
 513 -7 488 -12 463 -12 c 0
 415 -12 394 12 392 67 c 1
 317 11 261 -12 201 -12 c 0
 121 -12 71 33 71 103 c 0
 71 235 196 313 405 313 c 2
 427 313 l 1
 441 377 l 2
 443 391 445 404 445 413 c 0
 445 451 416 470 359 470 c 0
 303 470 248 456 178 423 c 1
 194 502 l 1
 269 530 329 542 391 542 c 0
 493 542 544 507 544 437 c 0
 544 422 541 400 537 377 c 2
 488 137 l 2
 486 123 483 103 483 95 c 0
 483 69 497 55 523 55 c 0xf0
 526 55 536 56 542 57 c 1
389 120 m 1
 416 257 l 1
 384 258 l 1
 377 258 l 2
 257 258 175 206 175 132 c 0
 175 89 200 67 248 67 c 0
 292 67 333 82 389 120 c 1
238 626 m 1
 386 783 l 1
 493 783 l 1
 579 626 l 1
 507 626 l 1
 429 725 l 1
 428 725 l 1
 310 626 l 1
 238 626 l 1
EndSplineSet
EndChar
StartChar: atilde
Encoding: 227 227 71
Width: 556
Flags: W
HStem: -12 79<224 231> 470 72<360 387.5> 627 61<466 482 466 494> 680 61<327.5 343.5>
VStem: 71 104<110.5 169 110.5 169> 445 99<429.5 432>
LayerCount: 2
Fore
SplineSet
542 57 m 1
 538 3 l 1
 513 -7 488 -12 463 -12 c 0
 415 -12 394 12 392 67 c 1
 317 11 261 -12 201 -12 c 0
 121 -12 71 33 71 103 c 0
 71 235 196 313 405 313 c 2
 427 313 l 1
 441 377 l 2
 443 391 445 404 445 413 c 0
 445 451 416 470 359 470 c 0
 303 470 248 456 178 423 c 1
 194 502 l 1
 269 530 329 542 391 542 c 0
 493 542 544 507 544 437 c 0
 544 422 541 400 537 377 c 2
 488 137 l 2
 486 123 483 103 483 95 c 0
 483 69 497 55 523 55 c 0xcc
 526 55 536 56 542 57 c 1
389 120 m 1
 416 257 l 1
 384 258 l 1
 377 258 l 2
 257 258 175 206 175 132 c 0
 175 89 200 67 248 67 c 0
 292 67 333 82 389 120 c 1
291 627 m 1
 231 627 l 1
 253 707 287 741 345 741 c 0x10
 367 741 389 734 406 723 c 2
 432 704 l 2
 448 693 461 688 471 688 c 0
 493 688 508 704 519 741 c 1
 579 741 l 1
 557 661 523 627 465 627 c 0x20
 442 627 420 634 403 646 c 2
 378 664 l 2
 364 674 349 680 338 680 c 0x10
 317 680 302 664 291 627 c 1
EndSplineSet
EndChar
StartChar: aring
Encoding: 229 229 72
Width: 556
Flags: MW
HStem: -12 79<224 231> 470 72<360 387.5> 626 42<398 439 398 444> 806 42<423 464>
VStem: 71 43 71 104<110.5 169 110.5 169> 255 43 445 99<429.5 432>
LayerCount: 2
Fore
SplineSet
542 57 m 1
 538 3 l 1
 513 -7 488 -12 463 -12 c 0
 415 -12 394 12 392 67 c 1
 317 11 261 -12 201 -12 c 0
 121 -12 71 33 71 103 c 0
 71 235 196 313 405 313 c 2
 427 313 l 1
 441 377 l 2
 443 391 445 404 445 413 c 0
 445 451 416 470 359 470 c 0
 303 470 248 456 178 423 c 1
 194 502 l 1
 269 530 329 542 391 542 c 0
 493 542 544 507 544 437 c 0
 544 422 541 400 537 377 c 2
 488 137 l 2
 486 123 483 103 483 95 c 0
 483 69 497 55 523 55 c 0xc5
 526 55 536 56 542 57 c 1
389 120 m 1
 416 257 l 1
 384 258 l 1
 377 258 l 2
 257 258 175 206 175 132 c 0
 175 89 200 67 248 67 c 0
 292 67 333 82 389 120 c 1
454 848 m 0
 507 848 545 811 545 759 c 0
 545 689 480 626 408 626 c 0
 356 626 318 663 318 715 c 0x3a
 318 785 382 848 454 848 c 0
446 806 m 0
 400 806 361 767 361 723 c 0
 361 687 380 668 416 668 c 0
 462 668 502 707 502 752 c 0
 502 787 482 806 446 806 c 0
EndSplineSet
EndChar
StartChar: ae
Encoding: 230 230 192
Width: 889
Flags: MW
HStem: -12 73<628 672> 250 72<540 800 540 882 521 800> 470 72<363 393.5 692 738.5>
VStem: 805 93<368.5 406.5>
LayerCount: 2
Fore
SplineSet
400 120 m 1
 427 257 l 1
 391 258 l 1
 383 258 l 2
 256 258 172 208 172 132 c 0
 172 88 199 66 253 66 c 0
 301 66 344 82 400 120 c 1
178 423 m 1
 194 502 l 1
 270 530 331 542 395 542 c 0
 471 542 516 523 545 480 c 1
 605 523 659 542 725 542 c 0
 839 542 898 484 898 373 c 0
 898 342 893 306 882 250 c 1
 521 250 l 1
 518 226 517 216 517 206 c 0
 517 114 576 61 680 61 c 0
 731 61 782 71 848 93 c 1
 833 17 l 1
 762 -3 701 -12 643 -12 c 0
 540 -12 479 21 440 100 c 1
 342 14 289 -12 208 -12 c 0
 121 -12 71 31 71 104 c 0
 71 237 196 313 416 313 c 2
 439 313 l 1
 451 377 l 2
 453 387 455 403 455 413 c 0
 455 451 424 470 363 470 c 0
 304 470 247 455 178 423 c 1
540 322 m 1
 800 322 l 1
 803 346 805 362 805 375 c 0
 805 438 771 470 706 470 c 0
 622 470 571 425 540 322 c 1
EndSplineSet
EndChar
StartChar: ccedilla
Encoding: 231 231 76
Width: 500
Flags: MW
HStem: -211 42<231 250.5 223 273> -12 78<288 314> 0 20 468 74<355 434.5>
VStem: 92 109<157 279.5 157 295> 208 69
LayerCount: 2
Fore
SplineSet
476 99 m 1
 460 16 l 1
 397 -3 341 -12 287 -12 c 0
 165 -12 92 65 92 194 c 0
 92 396 227 542 414 542 c 0
 455 542 502 536 556 524 c 1
 540 444 l 1
 486 461 451 468 418 468 c 0
 292 468 201 356 201 203 c 0
 201 111 244 66 332 66 c 0x58
 373 66 417 76 476 99 c 1
271 0 m 1
 318 0 l 1
 278 -53 l 1
 334 -57 359 -78 359 -119 c 0
 359 -168 304 -211 242 -211 c 0
 220 -211 198 -208 174 -201 c 1
 182 -161 l 1
 197 -166 214 -169 232 -169 c 0
 269 -169 290 -154 290 -127 c 0
 290 -99 266 -87 207 -85 c 1xa4
 271 0 l 1
EndSplineSet
EndChar
StartChar: eacute
Encoding: 233 233 79
Width: 556
Flags: MW
HStem: -12 73<299.5 343.5> 250 72<213 469 213 551 194 469> 470 72<336.5 410.5>
VStem: 93 97<160 210.5 160 299.5> 476 92<368.5 406.5>
LayerCount: 2
Fore
SplineSet
518 93 m 1
 503 17 l 1
 432 -3 372 -12 315 -12 c 0
 172 -12 93 65 93 205 c 0
 93 394 226 542 396 542 c 0
 509 542 568 484 568 371 c 0
 568 339 563 303 551 250 c 1
 194 250 l 1
 193 243 l 2
 191 227 190 215 190 206 c 0
 190 114 249 61 350 61 c 0
 401 61 452 71 518 93 c 1
213 322 m 1
 469 322 l 1
 474 345 476 362 476 375 c 0
 476 438 443 470 378 470 c 0
 295 470 245 425 213 322 c 1
335 626 m 1
 484 783 l 1
 595 783 l 1
 407 626 l 1
 335 626 l 1
EndSplineSet
EndChar
StartChar: edieresis
Encoding: 235 235 78
Width: 556
Flags: MW
HStem: -12 73<299.5 343.5> 250 72<213 469 213 551 194 469> 470 72<336.5 410.5> 627 84<275 376 292 360 485 552>
VStem: 93 97<160 210.5 160 299.5> 476 92<368.5 406.5>
LayerCount: 2
Fore
SplineSet
518 93 m 1
 503 17 l 1
 432 -3 372 -12 315 -12 c 0
 172 -12 93 65 93 205 c 0
 93 394 226 542 396 542 c 0
 509 542 568 484 568 371 c 0
 568 339 563 303 551 250 c 1
 194 250 l 1
 193 243 l 2
 191 227 190 215 190 206 c 0
 190 114 249 61 350 61 c 0
 401 61 452 71 518 93 c 1
213 322 m 1
 469 322 l 1
 474 345 476 362 476 375 c 0
 476 438 443 470 378 470 c 0
 295 470 245 425 213 322 c 1
275 627 m 1
 292 711 l 1
 376 711 l 1
 360 627 l 1
 275 627 l 1
468 627 m 1
 485 711 l 1
 569 711 l 1
 552 627 l 1
 468 627 l 1
EndSplineSet
EndChar
StartChar: iacute
Encoding: 237 237 87
Width: 222
Flags: MW
HStem: 0 20 510 20<169 266 266 266>
LayerCount: 2
Fore
SplineSet
63 0 m 1
 169 530 l 1
 266 530 l 1
 159 0 l 1xc0
 63 0 l 1
164 626 m 1
 312 783 l 1
 424 783 l 1
 236 626 l 1
 164 626 l 1
EndSplineSet
EndChar
StartChar: icircumflex
Encoding: 238 238 89
Width: 222
Flags: MW
HStem: 0 20 510 20<169 266 266 266>
LayerCount: 2
Fore
SplineSet
63 0 m 1
 169 530 l 1
 266 530 l 1
 159 0 l 1xc0
 63 0 l 1
65 626 m 1
 213 783 l 1
 320 783 l 1
 406 626 l 1
 334 626 l 1
 256 725 l 1
 255 725 l 1
 137 626 l 1
 65 626 l 1
EndSplineSet
EndChar
StartChar: idieresis
Encoding: 239 239 86
Width: 222
Flags: MW
HStem: 0 20 510 20<169 266 266 266> 627 84<98 199 115 182 308 375>
LayerCount: 2
Fore
SplineSet
63 0 m 1
 169 530 l 1
 266 530 l 1
 159 0 l 1
 63 0 l 1
98 627 m 1
 115 711 l 1
 199 711 l 1
 182 627 l 1
 98 627 l 1
291 627 m 1
 308 711 l 1
 392 711 l 1
 375 627 l 1
 291 627 l 1
EndSplineSet
EndChar
StartChar: eth
Encoding: 240 240 201
Width: 556
Flags: MW
HStem: -12 72<258.5 344 258.5 371> 458 72<351.5 397.5 351.5 407>
VStem: 90 102<143 243.5> 475 107<261.5 374.5>
LayerCount: 2
Fore
SplineSet
205 700 m 1
 220 773 l 1
 285 773 341 760 389 736 c 1
 481 818 l 1
 511 775 l 1
 433 705 l 1
 538 611 582 514 582 374 c 0
 582 149 458 -12 284 -12 c 0
 159 -12 90 59 90 189 c 0
 90 298 135 400 215 470 c 0
 261 511 315 530 388 530 c 0
 407 530 423 528 445 523 c 1
 429 571 403 609 363 642 c 1
 275 562 l 1
 244 605 l 1
 320 674 l 1
 290 691 253 700 205 700 c 1
373 458 m 0
 271 458 192 338 192 185 c 0
 192 101 225 60 292 60 c 0
 396 60 475 178 475 332 c 0
 475 417 441 458 373 458 c 0
EndSplineSet
EndChar
StartChar: ntilde
Encoding: 241 241 94
Width: 556
Flags: W
HStem: 0 20 460 82<425.5 434.5> 510 20<181 278 278 278> 627 61<472 488 472 500> 680 61<333.5 349.5>
VStem: 468 101<404 475>
LayerCount: 2
Fore
SplineSet
75 0 m 1
 181 530 l 1
 278 530 l 1xa4
 258 430 l 1
 330 509 390 542 461 542 c 0
 532 542 569 508 569 442 c 0
 569 425 566 398 563 381 c 2
 487 0 l 1
 390 0 l 1
 460 349 l 2
 465 376 468 398 468 410 c 0
 468 443 451 460 418 460 c 0
 363 460 309 425 240 343 c 1
 171 0 l 1xc4
 75 0 l 1
297 627 m 1
 237 627 l 1
 259 707 293 741 351 741 c 0x08
 373 741 395 734 412 723 c 2
 438 704 l 2
 454 693 467 688 477 688 c 0
 499 688 514 704 525 741 c 1
 585 741 l 1
 563 661 529 627 471 627 c 0x10
 448 627 426 634 409 646 c 2
 384 664 l 2
 370 674 355 680 344 680 c 0x08
 323 680 308 664 297 627 c 1
EndSplineSet
EndChar
StartChar: ocircumflex
Encoding: 244 244 98
Width: 556
Flags: MW
HStem: -12 72<261 344 261 362> 470 72<325 410.5>
VStem: 90 103<143.5 263.5 143.5 287> 476 103<266.5 389>
LayerCount: 2
Fore
SplineSet
388 542 m 0
 512 542 579 472 579 343 c 0
 579 140 449 -12 275 -12 c 0
 158 -12 90 61 90 187 c 0xf0
 90 387 220 542 388 542 c 0
377 470 m 0
 273 470 193 345 193 182 c 0
 193 105 230 60 292 60 c 0
 396 60 476 185 476 348 c 0
 476 430 444 470 377 470 c 0
236 626 m 1
 384 783 l 1
 491 783 l 1
 577 626 l 1
 505 626 l 1
 427 725 l 1
 426 725 l 1
 308 626 l 1
 236 626 l 1
EndSplineSet
EndChar
StartChar: otilde
Encoding: 245 245 99
Width: 556
Flags: W
HStem: -12 72<261 344 261 362> 470 72<325 410.5> 627 61<479 495 479 507> 680 61<340.5 356.5>
VStem: 90 103<143.5 263.5 143.5 287> 476 103<266.5 389>
LayerCount: 2
Fore
SplineSet
388 542 m 0
 512 542 579 472 579 343 c 0
 579 140 449 -12 275 -12 c 0
 158 -12 90 61 90 187 c 0xcc
 90 387 220 542 388 542 c 0
377 470 m 0
 273 470 193 345 193 182 c 0
 193 105 230 60 292 60 c 0
 396 60 476 185 476 348 c 0
 476 430 444 470 377 470 c 0
304 627 m 1
 244 627 l 1
 266 707 300 741 358 741 c 0x10
 380 741 402 734 419 723 c 2
 445 704 l 2
 461 693 474 688 484 688 c 0
 506 688 521 704 532 741 c 1
 592 741 l 1
 570 661 536 627 478 627 c 0x20
 455 627 433 634 416 646 c 2
 391 664 l 2
 377 674 362 680 351 680 c 0x10
 330 680 315 664 304 627 c 1
EndSplineSet
EndChar
StartChar: odieresis
Encoding: 246 246 95
Width: 556
Flags: MW
HStem: -12 72<261 344 261 362> 470 72<325 410.5> 627 84<268 369 285 352 477 545>
VStem: 90 103<143.5 263.5 143.5 287> 476 103<266.5 389>
LayerCount: 2
Fore
SplineSet
388 542 m 0
 512 542 579 472 579 343 c 0
 579 140 449 -12 275 -12 c 0
 158 -12 90 61 90 187 c 0xd8
 90 387 220 542 388 542 c 0
377 470 m 0
 273 470 193 345 193 182 c 0
 193 105 230 60 292 60 c 0
 396 60 476 185 476 348 c 0
 476 430 444 470 377 470 c 0
268 627 m 1
 285 711 l 1
 369 711 l 1
 352 627 l 1x20
 268 627 l 1
460 627 m 1
 477 711 l 1
 562 711 l 1
 545 627 l 1
 460 627 l 1
EndSplineSet
EndChar
StartChar: divide
Encoding: 247 247 262
Width: 584
Flags: MW
HStem: 0 121<232 376 256 352> 253 72<102 598 116 584> 458 120<324 468 348 444>
LayerCount: 2
Fore
SplineSet
102 253 m 1
 116 325 l 1
 598 325 l 1
 584 253 l 1
 102 253 l 1
324 458 m 1
 348 578 l 1
 468 578 l 1
 444 458 l 1
 324 458 l 1
232 0 m 1
 256 121 l 1
 376 121 l 1
 352 0 l 1
 232 0 l 1
EndSplineSet
EndChar
StartChar: oslash
Encoding: 248 248 194
Width: 611
Flags: MW
HStem: -12 72<300 369 300 388.5> 469 73<345.5 414.5>
LayerCount: 2
Fore
SplineSet
175 29 m 1
 137 -12 l 1
 67 -12 l 1
 142 69 l 1
 122 108 114 141 114 189 c 0
 114 388 245 542 416 542 c 0
 470 542 508 530 542 501 c 1
 579 542 l 1
 650 542 l 1
 574 460 l 1
 595 423 603 390 603 342 c 0
 603 143 472 -12 305 -12 c 0
 248 -12 209 0 175 29 c 1
239 98 m 1
 240 97 l 1
 253 75 283 60 317 60 c 0
 421 60 500 185 500 352 c 2
 500 354 l 1
 499 378 l 1
 239 98 l 1
478 432 m 1
 477 433 l 2
 448 462 432 469 397 469 c 0
 294 469 217 343 217 174 c 1
 218 151 l 1
 478 432 l 1
EndSplineSet
EndChar
StartChar: udieresis
Encoding: 252 252 106
Width: 556
Flags: W
HStem: -12 83<227.5 237> 0 20 510 20<176 272 272 272 491 587 587 587> 627 84<262 364 279 347 472 539>
VStem: 93 101<55.5 126.5>
LayerCount: 2
Fore
SplineSet
587 530 m 1xa8
 481 0 l 1
 385 0 l 1x78
 405 99 l 1
 333 21 273 -12 201 -12 c 0
 129 -12 93 22 93 89 c 0
 93 106 95 127 100 149 c 2
 176 530 l 1
 272 530 l 1
 202 181 l 2
 197 152 194 133 194 120 c 0
 194 88 211 71 244 71 c 0
 299 71 354 106 422 186 c 1
 491 530 l 1
 587 530 l 1xa8
262 627 m 1
 279 711 l 1
 364 711 l 1
 347 627 l 1
 262 627 l 1
455 627 m 1
 472 711 l 1
 556 711 l 1
 539 627 l 1
 455 627 l 1
EndSplineSet
EndChar
StartChar: yacute
Encoding: 253 253 112
Width: 500
Flags: MW
HStem: 0 20 510 20<115 213 213 213 515 600 600 600>
LayerCount: 2
Fore
SplineSet
197 0 m 1
 115 530 l 1
 213 530 l 1
 276 123 l 1
 515 530 l 1
 600 530 l 1
 175 -193 l 1
 75 -193 l 1xc0
 197 0 l 1
304 626 m 1
 452 783 l 1
 564 783 l 1
 376 626 l 1
 304 626 l 1
EndSplineSet
EndChar
StartChar: thorn
Encoding: 254 254 202
Width: 556
Flags: W
HStem: -12 72<272.5 309> 0 20 458 84<405.5 427.5>
VStem: 474 105<313 385.5>
LayerCount: 2
Fore
SplineSet
133 -193 m 1x50
 37 -193 l 1
 230 771 l 1
 326 771 l 1
 258 430 l 1
 316 509 371 542 440 542 c 0
 532 542 579 481 579 362 c 0
 579 264 549 173 490 98 c 0
 433 24 358 -12 260 -12 c 0xb0
 231 -12 204 -8 172 0 c 1
 133 -193 l 1x50
241 343 m 1
 186 73 l 1
 236 63 262 60 283 60 c 0
 392 60 474 184 474 349 c 0
 474 422 451 458 404 458 c 0
 359 458 311 424 241 343 c 1
EndSplineSet
EndChar
StartChar: ydieresis
Encoding: 255 255 116
Width: 500
Flags: MW
HStem: 0 20 510 20<115 213 213 213 515 600 600 600> 627 84<244 345 261 328 453 521>
LayerCount: 2
Fore
SplineSet
197 0 m 1
 115 530 l 1
 213 530 l 1
 276 123 l 1
 515 530 l 1
 600 530 l 1
 175 -193 l 1
 75 -193 l 1xc0
 197 0 l 1
244 627 m 1
 261 711 l 1
 345 711 l 1
 328 627 l 1x20
 244 627 l 1
436 627 m 1
 453 711 l 1
 538 711 l 1
 521 627 l 1
 436 627 l 1
EndSplineSet
EndChar
StartChar: Amacron
Encoding: 281 256 52
Width: 669
Flags: MW
HStem: 0 20 200 76<265 497 265 510 220 497> 703 20<429 531 531 531> 783 72<335 663 350 649>
LayerCount: 2
Fore
SplineSet
10 0 m 1
 429 723 l 1
 531 723 l 1
 656 0 l 1
 546 0 l 1
 510 200 l 1
 220 200 l 1
 105 0 l 1
 10 0 l 1
265 276 m 1
 497 276 l 1
 444 586 l 1
 265 276 l 1
335 783 m 1
 350 855 l 1
 663 855 l 1
 649 783 l 1
 335 783 l 1
EndSplineSet
EndChar
StartChar: Abreve
Encoding: 256 258 4
Width: 669
Flags: MW
HStem: 0 20 200 76<265 497 265 510 220 497> 703 20<429 531 531 531> 783 72<477.5 535.5 477.5 537>
LayerCount: 2
Fore
SplineSet
10 0 m 1
 429 723 l 1
 531 723 l 1
 656 0 l 1
 546 0 l 1
 510 200 l 1
 220 200 l 1
 105 0 l 1
 10 0 l 1
265 276 m 1
 497 276 l 1
 444 586 l 1
 265 276 l 1
361 940 m 1
 421 940 l 1
 423 881 449 855 506 855 c 0
 565 855 601 881 626 940 c 1
 686 940 l 1
 654 842 582 783 492 783 c 0
 414 783 359 837 359 913 c 0
 359 918 360 927 361 940 c 1
EndSplineSet
EndChar
StartChar: abreve
Encoding: 294 259 70
Width: 563
Flags: MW
HStem: -12 79<229 236> 470 72<365 392.5> 626 72<399.5 457 399.5 458.5>
VStem: 76 104<110.5 169 110.5 169> 450 99<429.5 432>
LayerCount: 2
Fore
SplineSet
547 57 m 1
 543 3 l 1
 518 -7 493 -12 468 -12 c 0
 420 -12 399 12 397 67 c 1
 322 11 266 -12 206 -12 c 0
 126 -12 76 33 76 103 c 0
 76 235 201 313 410 313 c 2
 432 313 l 1
 446 377 l 2
 448 391 450 404 450 413 c 0
 450 451 421 470 364 470 c 0
 308 470 253 456 183 423 c 1
 199 502 l 1
 274 530 334 542 396 542 c 0
 498 542 549 507 549 437 c 0
 549 422 546 400 542 377 c 2
 493 137 l 2
 491 123 488 103 488 95 c 0
 488 69 502 55 528 55 c 0xd8
 531 55 541 56 547 57 c 1
394 120 m 1
 421 257 l 1
 389 258 l 1
 382 258 l 2
 262 258 180 206 180 132 c 0
 180 89 205 67 253 67 c 0
 297 67 338 82 394 120 c 1
282 783 m 1
 343 783 l 1
 344 724 371 698 428 698 c 0
 486 698 523 724 548 783 c 1
 608 783 l 1
 577 685 503 626 414 626 c 0
 336 626 281 680 281 757 c 2x20
 282 783 l 1
EndSplineSet
EndChar
StartChar: Aogonek
Encoding: 257 260 7
Width: 667
Flags: MW
HStem: -181 46<502.5 572> 0 20 200 76<264 496 264 509 219 496> 703 20<428 530 530 530>
VStem: 445 70<-111 -95>
LayerCount: 2
Fore
SplineSet
9 0 m 1
 428 723 l 1
 530 723 l 1
 655 0 l 1
 545 0 l 1
 509 200 l 1
 219 200 l 1
 104 0 l 1
 9 0 l 1
264 276 m 1
 496 276 l 1
 443 586 l 1
 264 276 l 1
545 0 m 1
 597 0 l 1
 540 -32 515 -62 515 -99 c 0
 515 -123 531 -135 563 -135 c 0
 581 -135 596 -132 609 -127 c 1
 601 -167 l 1
 578 -177 556 -181 531 -181 c 0
 474 -181 445 -160 445 -118 c 0
 445 -72 476 -35 545 0 c 1
EndSplineSet
EndChar
StartChar: aogonek
Encoding: 295 261 73
Width: 556
Flags: MW
HStem: -181 46<381.5 451> -12 79<224 231> 0 20 470 72<360 387.5>
VStem: 71 70 71 104<110.5 169 110.5 169> 445 99<429.5 432>
LayerCount: 2
Fore
SplineSet
542 57 m 1
 538 3 l 1
 513 -7 488 -12 463 -12 c 0
 415 -12 394 12 392 67 c 1
 317 11 261 -12 201 -12 c 0
 121 -12 71 33 71 103 c 0
 71 235 196 313 405 313 c 2
 427 313 l 1
 441 377 l 2
 443 391 445 404 445 413 c 0
 445 451 416 470 359 470 c 0
 303 470 248 456 178 423 c 1
 194 502 l 1
 269 530 329 542 391 542 c 0
 493 542 544 507 544 437 c 0
 544 422 541 400 537 377 c 2
 488 137 l 2
 486 123 483 103 483 95 c 0
 483 69 497 55 523 55 c 0x56
 526 55 536 56 542 57 c 1
389 120 m 1
 416 257 l 1
 384 258 l 1
 377 258 l 2
 257 258 175 206 175 132 c 0
 175 89 200 67 248 67 c 0
 292 67 333 82 389 120 c 1
424 0 m 1
 476 0 l 1
 419 -32 394 -62 394 -99 c 0
 394 -123 410 -135 442 -135 c 0
 460 -135 474 -132 488 -127 c 1
 480 -167 l 1
 457 -177 435 -181 410 -181 c 0
 353 -181 324 -160 324 -118 c 0xa8
 324 -72 355 -35 424 0 c 1
EndSplineSet
EndChar
StartChar: Ccaron
Encoding: 259 268 10
Width: 722
Flags: MW
HStem: -18 80<379 465> 664 77<513.5 590.5>
VStem: 125 112<204.5 324.5>
LayerCount: 2
Fore
SplineSet
692 125 m 1
 674 37 l 1
 589 -1 511 -18 419 -18 c 0
 222 -18 125 74 125 261 c 0
 125 388 167 507 245 598 c 0
 326 694 436 741 581 741 c 0
 650 741 719 731 808 709 c 1
 789 613 l 1
 690 649 621 664 560 664 c 0
 467 664 394 632 339 566 c 0
 273 489 237 385 237 276 c 0
 237 133 308 62 450 62 c 0
 525 62 597 81 692 125 c 1
782 940 m 1
 633 783 l 1
 526 783 l 1
 440 940 l 1
 513 940 l 1
 591 841 l 1
 592 841 l 1
 710 940 l 1
 782 940 l 1
EndSplineSet
EndChar
StartChar: Dcaron
Encoding: 260 270 11
Width: 722
Flags: MW
HStem: 0 77<199 314> 646 77<312 389 312 312>
VStem: 649 113<411 521>
LayerCount: 2
Fore
SplineSet
81 0 m 1
 226 723 l 1
 457 723 l 2
 666 723 762 643 762 469 c 0
 762 353 723 243 651 153 c 0
 568 50 457 0 314 0 c 2
 81 0 l 1
199 77 m 1
 322 77 l 2
 413 77 472 95 520 138 c 0
 598 207 649 331 649 448 c 0
 649 594 581 646 389 646 c 2
 312 646 l 1
 199 77 l 1
692 940 m 1
 543 783 l 1
 436 783 l 1
 350 940 l 1
 423 940 l 1
 501 841 l 1
 502 841 l 1
 620 940 l 1
 692 940 l 1
EndSplineSet
EndChar
StartChar: dcroat
Encoding: 338 273 199
Width: 556
Flags: W
HStem: -12 84<239.5 260.5> 0 20 470 72<356.5 393> 614 61<366 510 354 523 619 679>
VStem: 87 106<144 217.5>
LayerCount: 2
Fore
SplineSet
510 614 m 1xb8
 354 614 l 1
 366 675 l 1
 523 675 l 1
 542 771 l 1
 638 771 l 1
 619 675 l 1
 691 675 l 1
 679 614 l 1
 607 614 l 1
 484 0 l 1
 388 0 l 1x58
 407 99 l 1
 349 21 295 -12 226 -12 c 0
 134 -12 87 49 87 169 c 0
 87 266 118 358 175 433 c 0
 233 506 308 542 405 542 c 0
 435 542 463 538 494 530 c 1
 510 614 l 1xb8
425 186 m 1xa8
 479 457 l 1
 434 466 403 470 383 470 c 0
 274 470 193 346 193 180 c 0
 193 108 216 72 263 72 c 0
 307 72 356 106 425 186 c 1xa8
EndSplineSet
EndChar
StartChar: Emacron
Encoding: 283 274 55
Width: 667
Flags: MW
HStem: 0 77<211 638> 338 76<278 636 263 652> 646 77<324 746 324 324> 783 72<352 680 366 665>
LayerCount: 2
Fore
SplineSet
93 0 m 1
 238 723 l 1
 761 723 l 1
 746 646 l 1
 324 646 l 1
 278 414 l 1
 652 414 l 1
 636 338 l 1
 263 338 l 1
 211 77 l 1
 654 77 l 1
 638 0 l 1
 93 0 l 1
352 783 m 1
 366 855 l 1
 680 855 l 1
 665 783 l 1
 352 783 l 1
EndSplineSet
EndChar
StartChar: emacron
Encoding: 319 275 119
Width: 556
Flags: MW
HStem: -12 73<300.5 345.5> 522 20<312 454> 627 72<253 581 267 566>
VStem: 96 100<155.5 207 155.5 299.5>
LayerCount: 2
Fore
SplineSet
216 322 m 1
 471 322 l 1
 475 352 477 367 477 381 c 0
 477 439 444 470 380 470 c 0xd0
 297 470 247 425 216 322 c 1
520 93 m 1
 505 17 l 1
 434 -3 374 -12 317 -12 c 0
 175 -12 96 65 96 204 c 0
 96 395 227 542 397 542 c 0
 511 542 570 484 570 371 c 0
 570 340 565 303 554 250 c 1
 200 250 l 1
 196 219 196 212 196 202 c 0
 196 109 249 61 352 61 c 0
 403 61 454 71 520 93 c 1
253 627 m 1
 267 699 l 1
 581 699 l 1
 566 627 l 1x20
 253 627 l 1
EndSplineSet
EndChar
StartChar: Edotaccent
Encoding: 262 278 17
Width: 667
Flags: MW
HStem: 0 77<211 638> 338 76<278 636 263 652> 646 77<324 746 324 324> 783 96<467 582 486 563>
LayerCount: 2
Fore
SplineSet
93 0 m 1
 238 723 l 1
 761 723 l 1
 746 646 l 1
 324 646 l 1
 278 414 l 1
 652 414 l 1
 636 338 l 1
 263 338 l 1
 211 77 l 1
 654 77 l 1
 638 0 l 1
 93 0 l 1
467 783 m 1
 486 879 l 1
 582 879 l 1
 563 783 l 1
 467 783 l 1
EndSplineSet
EndChar
StartChar: Eogonek
Encoding: 263 280 18
Width: 667
Flags: MW
HStem: -181 46<482.5 552> 0 77<211 638 525 577 577 577> 338 76<278 636 263 652> 646 77<324 746 324 324>
VStem: 425 70<-111 -95>
LayerCount: 2
Fore
SplineSet
93 0 m 1
 238 723 l 1
 761 723 l 1
 746 646 l 1
 324 646 l 1
 278 414 l 1
 652 414 l 1
 636 338 l 1
 263 338 l 1
 211 77 l 1
 654 77 l 1
 638 0 l 1
 93 0 l 1
525 0 m 1
 577 0 l 1
 520 -32 495 -62 495 -99 c 0
 495 -123 511 -135 543 -135 c 0
 561 -135 575 -132 589 -127 c 1
 581 -167 l 1
 558 -177 536 -181 511 -181 c 0
 454 -181 425 -160 425 -118 c 0
 425 -72 456 -35 525 0 c 1
EndSplineSet
EndChar
StartChar: eogonek
Encoding: 301 281 84
Width: 556
Flags: MW
HStem: -181 46<298.5 368> -12 73<300.5 345.5> 0 20 522 20<312 454>
VStem: 96 70 96 100<155.5 207 155.5 299.5>
LayerCount: 2
Fore
SplineSet
216 322 m 1
 471 322 l 1
 475 352 477 367 477 381 c 0
 477 439 444 470 380 470 c 0x54
 297 470 247 425 216 322 c 1
520 93 m 1
 505 17 l 1
 434 -3 374 -12 317 -12 c 0
 175 -12 96 65 96 204 c 0
 96 395 227 542 397 542 c 0
 511 542 570 484 570 371 c 0
 570 340 565 303 554 250 c 1
 200 250 l 1
 196 219 196 212 196 202 c 0
 196 109 249 61 352 61 c 0
 403 61 454 71 520 93 c 1
341 0 m 1
 393 0 l 1
 336 -32 311 -62 311 -99 c 0
 311 -123 327 -135 359 -135 c 0
 377 -135 391 -132 405 -127 c 1
 397 -167 l 1
 374 -177 352 -181 327 -181 c 0
 270 -181 241 -160 241 -118 c 0xa8
 241 -72 272 -35 341 0 c 1
EndSplineSet
EndChar
StartChar: Ecaron
Encoding: 261 282 16
Width: 667
Flags: MW
HStem: 0 77<211 638> 338 76<278 636 263 652> 646 77<324 746 324 324>
LayerCount: 2
Fore
SplineSet
93 0 m 1
 238 723 l 1
 761 723 l 1
 746 646 l 1
 324 646 l 1
 278 414 l 1
 652 414 l 1
 636 338 l 1
 263 338 l 1
 211 77 l 1
 654 77 l 1
 638 0 l 1
 93 0 l 1
716 940 m 1
 567 783 l 1
 461 783 l 1
 374 940 l 1
 447 940 l 1
 525 841 l 1
 526 841 l 1
 644 940 l 1
 716 940 l 1
EndSplineSet
EndChar
StartChar: ecaron
Encoding: 299 283 82
Width: 556
Flags: MW
HStem: -12 73<300.5 345.5> 522 20<312 454>
VStem: 96 100<155.5 207 155.5 299.5>
LayerCount: 2
Fore
SplineSet
216 322 m 1
 471 322 l 1
 475 352 477 367 477 381 c 0
 477 439 444 470 380 470 c 0xe0
 297 470 247 425 216 322 c 1
520 93 m 1
 505 17 l 1
 434 -3 374 -12 317 -12 c 0
 175 -12 96 65 96 204 c 0
 96 395 227 542 397 542 c 0
 511 542 570 484 570 371 c 0
 570 340 565 303 554 250 c 1
 200 250 l 1
 196 219 196 212 196 202 c 0
 196 109 249 61 352 61 c 0
 403 61 454 71 520 93 c 1
612 783 m 1
 463 626 l 1
 356 626 l 1
 270 783 l 1
 342 783 l 1
 420 684 l 1
 421 684 l 1
 539 783 l 1
 612 783 l 1
EndSplineSet
EndChar
StartChar: Gbreve
Encoding: 264 286 19
Width: 778
Flags: W
HStem: -18 77<383.5 471> 0 20<696 696> 261 75<537 642 522 760> 664 77<513.5 600.5> 783 72<572.5 630 572.5 631.5>
VStem: 113 111<203 322>
LayerCount: 2
Fore
SplineSet
760 336 m 1xb4
 696 20 l 1x6c
 597 -6 515 -18 427 -18 c 0
 215 -18 113 72 113 260 c 0
 113 384 152 499 226 589 c 0
 310 692 425 741 583 741 c 0
 665 741 743 731 833 708 c 1
 814 614 l 1
 712 649 636 664 565 664 c 0
 462 664 383 631 324 564 c 0
 260 490 224 385 224 271 c 0
 224 135 308 59 459 59 c 0
 498 59 543 64 606 77 c 1
 642 261 l 1
 522 261 l 1
 537 336 l 1
 760 336 l 1xb4
455 940 m 1
 515 940 l 1
 517 881 544 855 601 855 c 0
 659 855 696 881 720 940 c 1
 780 940 l 1
 748 841 676 783 587 783 c 0
 508 783 453 837 453 913 c 0
 453 918 454 925 455 940 c 1
EndSplineSet
EndChar
StartChar: gbreve
Encoding: 302 287 85
Width: 556
Flags: W
HStem: -205 72<174.5 242.5> 510 20<494 590 590 590> 522 20<354 419.5> 626 72<403.5 461 403.5 462.5>
LayerCount: 2
Fore
SplineSet
430 211 m 1
 479 458 l 1
 429 467 405 470 383 470 c 0
 274 470 198 361 198 205 c 0
 198 133 221 96 268 96 c 0xc0
 312 96 360 130 430 211 c 1
396 40 m 2
 413 123 l 1
 355 45 300 12 231 12 c 0
 139 12 92 74 92 193 c 0
 92 282 120 365 172 433 c 0
 228 506 304 542 404 542 c 0x20
 435 542 464 538 494 530 c 1
 590 530 l 1
 514 144 l 2
 489 21 466 -49 434 -94 c 0
 383 -168 300 -205 185 -205 c 0
 124 -205 73 -196 14 -176 c 1
 31 -93 l 1
 99 -121 149 -133 200 -133 c 0
 307 -133 372 -76 396 40 c 2
286 783 m 1
 347 783 l 1
 348 724 375 698 432 698 c 0
 490 698 527 724 552 783 c 1
 612 783 l 1
 581 685 507 626 418 626 c 0
 340 626 285 680 285 757 c 2x10
 286 783 l 1
EndSplineSet
EndChar
StartChar: Gcommaaccent
Encoding: 291 290 63
Width: 778
Flags: W
HStem: -211 42<357 382.5 356 402> -18 77<383.5 471> 0 20<696 696> 261 75<537 642 522 760> 664 77<513.5 600.5>
VStem: 113 111<203 322> 423 67<-143 -119.5>
LayerCount: 2
Fore
SplineSet
760 336 m 1x5e
 696 20 l 1xb6
 597 -6 515 -18 427 -18 c 0
 215 -18 113 72 113 260 c 0
 113 384 152 499 226 589 c 0
 310 692 425 741 583 741 c 0
 665 741 743 731 833 708 c 1
 814 614 l 1
 712 649 636 664 565 664 c 0
 462 664 383 631 324 564 c 0
 260 490 224 385 224 271 c 0
 224 135 308 59 459 59 c 0
 498 59 543 64 606 77 c 1
 642 261 l 1
 522 261 l 1
 537 336 l 1
 760 336 l 1x5e
307 -206 m 1
 316 -164 l 1
 332 -167 349 -169 363 -169 c 0
 402 -169 423 -155 423 -131 c 0
 423 -108 402 -96 354 -92 c 1
 362 -54 l 1
 451 -56 490 -77 490 -124 c 0
 490 -175 438 -211 366 -211 c 0
 348 -211 328 -209 307 -206 c 1
EndSplineSet
EndChar
StartChar: gcommaaccent
Encoding: 330 291 130
Width: 556
Flags: W
HStem: -205 72<174.5 242.5> 510 20<494 590 590 590> 522 20<354 419.5>
LayerCount: 2
Fore
SplineSet
430 211 m 1xc0
 479 458 l 1
 429 467 405 470 383 470 c 0
 274 470 198 361 198 205 c 0
 198 133 221 96 268 96 c 0
 312 96 360 130 430 211 c 1xc0
396 40 m 2
 413 123 l 1
 355 45 300 12 231 12 c 0
 139 12 92 74 92 193 c 0
 92 282 120 365 172 433 c 0
 228 506 304 542 404 542 c 0x20
 435 542 464 538 494 530 c 1
 590 530 l 1
 514 144 l 2
 489 21 466 -49 434 -94 c 0
 383 -168 300 -205 185 -205 c 0
 124 -205 73 -196 14 -176 c 1
 31 -93 l 1
 99 -121 149 -133 200 -133 c 0
 307 -133 372 -76 396 40 c 2
505 848 m 1
 499 819 l 1
 473 812 454 782 444 730 c 2
 442 722 l 1
 480 722 l 1
 460 626 l 1
 364 626 l 1
 381 709 l 2
 399 796 439 841 505 848 c 1
EndSplineSet
EndChar
StartChar: Imacron
Encoding: 284 298 56
Width: 278
Flags: MW
HStem: 0 20 703 20<233 335 335 335> 783 72<139 467 153 452>
LayerCount: 2
Fore
SplineSet
88 0 m 1
 233 723 l 1
 335 723 l 1
 191 0 l 1
 88 0 l 1
139 783 m 1
 153 855 l 1
 467 855 l 1
 452 783 l 1
 139 783 l 1
EndSplineSet
EndChar
StartChar: imacron
Encoding: 320 299 120
Width: 222
Flags: MW
HStem: 0 20 510 20<169 266 266 266> 627 72<80 408 94 393>
LayerCount: 2
Fore
SplineSet
63 0 m 1
 169 530 l 1
 266 530 l 1
 159 0 l 1xc0
 63 0 l 1
80 627 m 1
 94 699 l 1
 408 699 l 1
 393 627 l 1x20
 80 627 l 1
EndSplineSet
EndChar
StartChar: Iogonek
Encoding: 285 302 57
Width: 278
Flags: MW
HStem: -181 46<95 165> 0 20 703 20<234 336 336 336>
VStem: 38 70<-111 -95>
LayerCount: 2
Fore
SplineSet
89 0 m 1
 234 723 l 1
 336 723 l 1
 192 0 l 1
 89 0 l 1
138 0 m 1
 189 0 l 1
 133 -32 108 -62 108 -99 c 0
 108 -123 124 -135 156 -135 c 0
 174 -135 188 -132 202 -127 c 1
 194 -167 l 1
 170 -177 149 -181 123 -181 c 0
 67 -181 38 -160 38 -118 c 0
 38 -72 69 -35 138 0 c 1
EndSplineSet
EndChar
StartChar: iogonek
Encoding: 331 303 131
Width: 222
Flags: MW
HStem: -181 46<66.5 136> 0 20 510 20<170 267 267 267> 627 96<190 305 209 286>
VStem: 9 70<-111 -95>
LayerCount: 2
Fore
SplineSet
64 0 m 1
 170 530 l 1
 267 530 l 1
 160 0 l 1
 64 0 l 1
190 627 m 1
 209 723 l 1
 305 723 l 1
 286 627 l 1
 190 627 l 1
109 0 m 1
 160 0 l 1
 104 -32 79 -62 79 -99 c 0
 79 -123 95 -135 127 -135 c 0
 145 -135 159 -132 173 -127 c 1
 165 -167 l 1
 142 -177 120 -181 95 -181 c 0
 38 -181 9 -160 9 -118 c 0
 9 -72 40 -35 109 0 c 1
EndSplineSet
EndChar
StartChar: Idotaccent
Encoding: 265 304 24
Width: 278
Flags: MW
HStem: 0 20 703 20<233 335 335 335> 783 96<248 363 267 344>
LayerCount: 2
Fore
SplineSet
88 0 m 1
 233 723 l 1
 335 723 l 1
 191 0 l 1
 88 0 l 1
248 783 m 1
 267 879 l 1
 363 879 l 1
 344 783 l 1
 248 783 l 1
EndSplineSet
EndChar
StartChar: dotlessi
Encoding: 335 305 196
Width: 222
Flags: MW
HStem: 0 20 510 20<169 266 266 266>
LayerCount: 2
Fore
SplineSet
63 0 m 1
 169 530 l 1
 266 530 l 1
 159 0 l 1xc0
 63 0 l 1
EndSplineSet
EndChar
StartChar: Kcommaaccent
Encoding: 286 310 58
Width: 667
Flags: MW
HStem: -211 42<246 271.5 245 291> 0 20 703 20<238 334 334 334 634 737 737 737>
VStem: 312 67<-143.5 -119.5>
LayerCount: 2
Fore
SplineSet
93 0 m 1
 238 723 l 1
 334 723 l 1
 263 367 l 1
 634 723 l 1
 737 723 l 1
 377 378 l 1
 643 0 l 1
 513 0 l 1
 262 366 l 1
 189 0 l 1
 93 0 l 1
197 -206 m 1
 205 -164 l 1
 222 -167 238 -169 252 -169 c 0
 291 -169 312 -156 312 -131 c 0
 312 -108 292 -96 243 -92 c 1
 251 -54 l 1
 340 -56 379 -77 379 -124 c 0
 379 -175 327 -211 255 -211 c 0
 237 -211 218 -209 197 -206 c 1
EndSplineSet
EndChar
StartChar: kcommaaccent
Encoding: 321 311 121
Width: 500
Flags: MW
HStem: -211 42<197.5 222.5 196 243> 0 20 510 20<455 547 547 547>
VStem: 190 67
LayerCount: 2
Fore
SplineSet
75 0 m 1
 229 771 l 1
 325 771 l 1
 226 273 l 1
 455 530 l 1
 547 530 l 1
 327 280 l 1
 491 0 l 1
 374 0 l 1
 226 272 l 1
 171 0 l 1x60
 75 0 l 1
148 -206 m 1
 156 -164 l 1
 173 -167 189 -169 203 -169 c 0
 242 -169 263 -156 263 -131 c 0
 263 -108 243 -96 195 -92 c 1
 202 -54 l 1
 291 -56 330 -77 330 -124 c 0
 330 -175 279 -211 207 -211 c 0x90
 188 -211 169 -209 148 -206 c 1
EndSplineSet
EndChar
StartChar: Lacute
Encoding: 266 313 25
Width: 556
Flags: MW
HStem: 0 77<199 538> 703 20<226 328 328 328>
LayerCount: 2
Fore
SplineSet
81 0 m 1
 226 723 l 1
 328 723 l 1
 199 77 l 1
 553 77 l 1
 538 0 l 1
 81 0 l 1
244 783 m 1
 393 940 l 1
 504 940 l 1
 316 783 l 1
 244 783 l 1
EndSplineSet
EndChar
StartChar: lacute
Encoding: 303 314 90
Width: 222
Flags: MW
HStem: 0 20
LayerCount: 2
Fore
SplineSet
63 0 m 1
 217 771 l 1
 313 771 l 1
 159 0 l 1x80
 63 0 l 1
203 819 m 1
 351 976 l 1
 463 976 l 1
 275 819 l 1
 203 819 l 1
EndSplineSet
EndChar
StartChar: Lcommaaccent
Encoding: 287 315 59
Width: 556
Flags: MW
HStem: -211 42<228 253.5 227 273> 0 77<199 538> 703 20<226 328 328 328>
VStem: 294 67<-143.5 -119.5>
LayerCount: 2
Fore
SplineSet
81 0 m 1
 226 723 l 1
 328 723 l 1
 199 77 l 1
 553 77 l 1
 538 0 l 1
 81 0 l 1
179 -206 m 1
 187 -164 l 1
 204 -167 220 -169 234 -169 c 0
 273 -169 294 -156 294 -131 c 0
 294 -108 274 -96 226 -92 c 1
 233 -54 l 1
 322 -56 361 -77 361 -124 c 0
 361 -175 309 -211 237 -211 c 0
 219 -211 200 -209 179 -206 c 1
EndSplineSet
EndChar
StartChar: lcommaaccent
Encoding: 322 316 122
Width: 222
Flags: MW
HStem: -211 42<48 73 46.5 93> 0 20
VStem: 114 67<-143 -119.5>
LayerCount: 2
Fore
SplineSet
63 0 m 1
 218 771 l 1
 314 771 l 1
 160 0 l 1
 63 0 l 1
-2 -206 m 1
 7 -164 l 1
 24 -167 40 -169 53 -169 c 0
 93 -169 114 -155 114 -131 c 0
 114 -108 93 -97 45 -92 c 1
 53 -54 l 1
 142 -56 181 -77 181 -124 c 0
 181 -175 129 -211 57 -211 c 0
 39 -211 19 -209 -2 -206 c 1
EndSplineSet
EndChar
StartChar: Lcaron
Encoding: 267 317 26
Width: 556
Flags: MW
HStem: 0 77<199 538> 703 20<226 328 328 328 473 569 569 569>
LayerCount: 2
Fore
SplineSet
81 0 m 1
 226 723 l 1
 328 723 l 1
 199 77 l 1
 553 77 l 1
 538 0 l 1
 81 0 l 1
428 501 m 1
 434 531 l 1
 460 538 479 567 489 619 c 2
 491 627 l 1
 454 627 l 1
 473 723 l 1
 569 723 l 1
 552 639 l 2
 534 552 495 509 428 501 c 1
EndSplineSet
EndChar
StartChar: lcaron
Encoding: 304 318 91
Width: 291
Flags: MW
HStem: 0 20
LayerCount: 2
Fore
SplineSet
63 0 m 1
 217 771 l 1
 313 771 l 1
 159 0 l 1
 63 0 l 1
312 549 m 1
 317 578 l 1
 345 587 360 610 372 666 c 2
 374 675 l 1
 336 675 l 1
 356 771 l 1
 452 771 l 1
 436 687 l 2
 418 601 377 556 312 549 c 1
EndSplineSet
EndChar
StartChar: Lslash
Encoding: 334 321 164
Width: 556
Flags: MW
HStem: 0 77<198 537> 703 20<225 328 328 328>
LayerCount: 2
Fore
SplineSet
81 0 m 1
 149 338 l 1
 68 299 l 1
 85 381 l 1
 165 421 l 1
 225 723 l 1
 328 723 l 1
 278 477 l 1
 412 542 l 1
 396 460 l 1
 262 394 l 1
 198 77 l 1
 553 77 l 1
 537 0 l 1
 81 0 l 1
EndSplineSet
EndChar
StartChar: lslash
Encoding: 339 322 200
Width: 222
Flags: MW
HStem: 0 20
LayerCount: 2
Fore
SplineSet
63 0 m 1
 133 352 l 1
 60 317 l 1
 76 397 l 1
 150 434 l 1
 217 771 l 1
 313 771 l 1
 257 487 l 1
 330 520 l 1
 313 440 l 1
 241 405 l 1
 160 0 l 1
 63 0 l 1
EndSplineSet
EndChar
StartChar: Nacute
Encoding: 268 323 27
Width: 722
Flags: MW
HStem: 0 20 703 20<226 326 326 326 698 786 786 786>
LayerCount: 2
Fore
SplineSet
81 0 m 1
 226 723 l 1
 326 723 l 1
 586 165 l 1
 698 723 l 1
 786 723 l 1
 642 0 l 1
 541 0 l 1
 281 558 l 1
 169 0 l 1
 81 0 l 1
445 783 m 1
 594 940 l 1
 706 940 l 1
 518 783 l 1
 445 783 l 1
EndSplineSet
EndChar
StartChar: nacute
Encoding: 305 324 92
Width: 556
Flags: W
HStem: 0 20 460 82<425.5 434.5> 510 20<181 278 278 278>
VStem: 468 101<404 475>
LayerCount: 2
Fore
SplineSet
75 0 m 1
 181 530 l 1
 278 530 l 1xb0
 258 430 l 1
 330 509 390 542 461 542 c 0
 532 542 569 508 569 442 c 0
 569 425 566 398 563 381 c 2
 487 0 l 1
 390 0 l 1
 460 349 l 2
 465 376 468 398 468 410 c 0
 468 443 451 460 418 460 c 0
 363 460 309 425 240 343 c 1
 171 0 l 1xd0
 75 0 l 1
327 626 m 1
 475 783 l 1
 587 783 l 1
 399 626 l 1
 327 626 l 1
EndSplineSet
EndChar
StartChar: Ncommaaccent
Encoding: 288 325 60
Width: 722
Flags: MW
HStem: -211 42<262 287.5 261 307> 0 20 703 20<226 326 326 326 698 786 786 786>
VStem: 328 67<-143 -119.5>
LayerCount: 2
Fore
SplineSet
81 0 m 1
 226 723 l 1
 326 723 l 1
 586 165 l 1
 698 723 l 1
 786 723 l 1
 642 0 l 1
 541 0 l 1
 281 558 l 1
 169 0 l 1
 81 0 l 1
212 -206 m 1
 221 -164 l 1
 237 -167 254 -169 268 -169 c 0
 307 -169 328 -155 328 -131 c 0
 328 -108 308 -96 259 -92 c 1
 267 -54 l 1
 356 -56 395 -77 395 -124 c 0
 395 -175 343 -211 271 -211 c 0
 253 -211 233 -209 212 -206 c 1
EndSplineSet
EndChar
StartChar: ncommaaccent
Encoding: 323 326 123
Width: 556
Flags: W
HStem: -211 42<209.5 234.5 208 255> 0 20 460 82<425.5 434.5> 510 20<181 278 278 278>
VStem: 190 67 468 101<404 475>
LayerCount: 2
Fore
SplineSet
75 0 m 1
 181 530 l 1
 278 530 l 1x54
 258 430 l 1
 330 509 390 542 461 542 c 0
 532 542 569 508 569 442 c 0
 569 425 566 398 563 381 c 2
 487 0 l 1
 390 0 l 1
 460 349 l 2
 465 376 468 398 468 410 c 0
 468 443 451 460 418 460 c 0
 363 460 309 425 240 343 c 1
 171 0 l 1x64
 75 0 l 1
160 -206 m 1
 168 -164 l 1
 185 -167 201 -169 215 -169 c 0
 254 -169 275 -156 275 -131 c 0
 275 -108 255 -96 207 -92 c 1
 214 -54 l 1
 303 -56 342 -77 342 -124 c 0
 342 -175 291 -211 219 -211 c 0x88
 200 -211 181 -209 160 -206 c 1
EndSplineSet
EndChar
StartChar: Ncaron
Encoding: 269 327 28
Width: 722
Flags: MW
HStem: 0 20 703 20<226 326 326 326 698 786 786 786>
LayerCount: 2
Fore
SplineSet
81 0 m 1
 226 723 l 1
 326 723 l 1
 586 165 l 1
 698 723 l 1
 786 723 l 1
 642 0 l 1
 541 0 l 1
 281 558 l 1
 169 0 l 1
 81 0 l 1
720 940 m 1
 571 783 l 1
 464 783 l 1
 378 940 l 1
 451 940 l 1
 529 841 l 1
 530 841 l 1
 648 940 l 1
 720 940 l 1
EndSplineSet
EndChar
StartChar: ncaron
Encoding: 306 328 93
Width: 556
Flags: W
HStem: 0 20 460 82<425.5 434.5> 510 20<181 278 278 278>
VStem: 468 101<404 475>
LayerCount: 2
Fore
SplineSet
75 0 m 1
 181 530 l 1
 278 530 l 1xb0
 258 430 l 1
 330 509 390 542 461 542 c 0
 532 542 569 508 569 442 c 0
 569 425 566 398 563 381 c 2
 487 0 l 1
 390 0 l 1
 460 349 l 2
 465 376 468 398 468 410 c 0
 468 443 451 460 418 460 c 0
 363 460 309 425 240 343 c 1
 171 0 l 1xd0
 75 0 l 1
613 783 m 1
 464 626 l 1
 357 626 l 1
 271 783 l 1
 343 783 l 1
 421 684 l 1
 422 684 l 1
 540 783 l 1
 613 783 l 1
EndSplineSet
EndChar
StartChar: Omacron
Encoding: 289 332 61
Width: 778
Flags: MW
HStem: -18 77<345 448> 664 77<483.5 587> 783 72<395 722 409 708>
VStem: 113 109<198.5 330> 712 109<393 525>
LayerCount: 2
Fore
SplineSet
544 741 m 0
 721 741 821 639 821 459 c 0
 821 327 778 211 696 120 c 0
 613 28 509 -18 387 -18 c 0
 214 -18 113 86 113 265 c 0
 113 395 156 511 238 602 c 0
 321 695 423 741 544 741 c 0
527 664 m 0
 354 664 222 491 222 264 c 0
 222 133 287 59 403 59 c 0
 580 59 712 230 712 458 c 0
 712 592 647 664 527 664 c 0
395 783 m 1
 409 855 l 1
 722 855 l 1
 708 783 l 1
 395 783 l 1
EndSplineSet
EndChar
StartChar: omacron
Encoding: 324 333 124
Width: 556
Flags: MW
HStem: -12 72<261 344 261 362> 470 72<325 410.5> 627 72<250 578 264 563>
VStem: 90 103<143.5 263.5 143.5 287> 476 103<266.5 389>
LayerCount: 2
Fore
SplineSet
388 542 m 0
 512 542 579 472 579 343 c 0
 579 140 449 -12 275 -12 c 0
 158 -12 90 61 90 187 c 0xd8
 90 387 220 542 388 542 c 0
377 470 m 0
 273 470 193 345 193 182 c 0
 193 105 230 60 292 60 c 0
 396 60 476 185 476 348 c 0
 476 430 444 470 377 470 c 0
250 627 m 1
 264 699 l 1
 578 699 l 1
 563 627 l 1x20
 250 627 l 1
EndSplineSet
EndChar
StartChar: Ohungarumlaut
Encoding: 270 336 35
Width: 778
Flags: MW
HStem: -18 77<345 448> 664 77<483.5 587>
VStem: 113 109<198.5 330> 712 109<393 525>
LayerCount: 2
Fore
SplineSet
544 741 m 0
 721 741 821 639 821 459 c 0
 821 327 778 211 696 120 c 0
 613 28 509 -18 387 -18 c 0
 214 -18 113 86 113 265 c 0
 113 395 156 511 238 602 c 0
 321 695 423 741 544 741 c 0
527 664 m 0
 354 664 222 491 222 264 c 0
 222 133 287 59 403 59 c 0
 580 59 712 230 712 458 c 0
 712 592 647 664 527 664 c 0
439 783 m 1
 587 940 l 1
 680 940 l 1
 493 783 l 1
 439 783 l 1
610 783 m 1
 759 940 l 1
 852 940 l 1
 664 783 l 1
 610 783 l 1
EndSplineSet
EndChar
StartChar: ohungarumlaut
Encoding: 307 337 100
Width: 556
Flags: MW
HStem: -12 72<261 344 261 362> 470 72<325 410.5>
VStem: 90 103<143.5 263.5 143.5 287> 476 103<266.5 389>
LayerCount: 2
Fore
SplineSet
388 542 m 0
 512 542 579 472 579 343 c 0
 579 140 449 -12 275 -12 c 0
 158 -12 90 61 90 187 c 0xf0
 90 387 220 542 388 542 c 0
377 470 m 0
 273 470 193 345 193 182 c 0
 193 105 230 60 292 60 c 0
 396 60 476 185 476 348 c 0
 476 430 444 470 377 470 c 0
294 626 m 1
 442 783 l 1
 536 783 l 1
 348 626 l 1
 294 626 l 1
465 626 m 1
 614 783 l 1
 708 783 l 1
 520 626 l 1
 465 626 l 1
EndSplineSet
EndChar
StartChar: OE
Encoding: 140 338 160
Width: 1000
Flags: W
HStem: -18 77<339.5 412.5> 0 77<674 977> 338 76<742 975 727 990> 646 77<788 1085 788 788> 664 77<478 568 478 568>
VStem: 113 108<196 330.5>
LayerCount: 2
Fore
SplineSet
556 0 m 1x74
 562 28 l 1
 499 -4 445 -18 380 -18 c 0
 211 -18 113 86 113 265 c 0
 113 396 155 510 236 602 c 0
 318 694 420 741 536 741 c 0x8c
 600 741 645 728 696 695 c 1
 701 723 l 1
 1100 723 l 1
 1085 646 l 1
 788 646 l 1
 742 414 l 1
 990 414 l 1
 975 338 l 1
 727 338 l 1
 674 77 l 1
 992 77 l 1
 977 0 l 1
 556 0 l 1x74
612 278 m 2x8c
 645 445 l 2
 653 484 657 517 657 543 c 0
 657 623 612 664 524 664 c 0
 352 664 221 492 221 264 c 0
 221 128 281 59 398 59 c 0
 512 59 583 131 612 278 c 2x8c
EndSplineSet
EndChar
StartChar: oe
Encoding: 156 339 193
Width: 944
Flags: MW
HStem: -12 72<272 337.5 690.5 734> 250 66<605 847 605 936 589 847> 470 72<337 433 740.5 796>
VStem: 89 102<146 272 146 293> 855 97<374 410.5>
LayerCount: 2
Fore
SplineSet
905 95 m 1
 890 18 l 1
 820 -3 764 -12 704 -12 c 0
 601 -12 552 12 504 85 c 1
 443 17 380 -12 295 -12 c 0
 163 -12 89 63 89 195 c 0
 89 391 228 542 408 542 c 0
 491 542 541 513 574 444 c 1
 637 513 699 542 782 542 c 0
 894 542 952 485 952 373 c 0
 952 344 947 309 936 250 c 1
 589 250 l 1
 585 222 584 208 584 196 c 0
 584 106 638 60 743 60 c 0
 797 60 844 70 905 95 c 1
397 470 m 0
 277 470 191 354 191 190 c 0
 191 102 231 60 313 60 c 0
 385 60 438 100 467 174 c 0
 489 228 504 306 504 360 c 0
 504 434 469 470 397 470 c 0
605 316 m 1
 847 316 l 1
 853 353 855 367 855 381 c 0
 855 440 825 470 767 470 c 0
 687 470 638 423 605 316 c 1
EndSplineSet
EndChar
StartChar: racute
Encoding: 308 341 101
Width: 333
Flags: W
HStem: 0 20 458 84<379 382> 510 20<181 277 277 277>
LayerCount: 2
Fore
SplineSet
75 0 m 1
 181 530 l 1
 277 530 l 1xa0
 258 430 l 1
 306 508 351 542 407 542 c 0
 414 542 421 541 434 539 c 1
 416 450 l 1
 399 455 387 458 377 458 c 0
 340 458 297 424 241 349 c 1
 171 0 l 1xc0
 75 0 l 1
248 626 m 1
 396 783 l 1
 508 783 l 1
 320 626 l 1
 248 626 l 1
EndSplineSet
EndChar
StartChar: Rcommaaccent
Encoding: 290 342 62
Width: 722
Flags: MW
HStem: -211 42<264 289.5 263 309.5> 0 20 305 77<260 375 375 416 260 431 245 375> 646 77<312 459 312 312>
VStem: 330 67<-143.5 -119.5> 610 108<534.5 590.5>
LayerCount: 2
Fore
SplineSet
81 0 m 1
 226 723 l 1
 527 723 l 2
 659 723 718 680 718 582 c 0
 718 478 646 386 527 338 c 1
 701 0 l 1
 575 0 l 1
 431 305 l 1
 245 305 l 1
 184 0 l 1
 81 0 l 1
260 382 m 1
 375 382 l 2
 457 382 502 392 537 419 c 0
 580 453 610 510 610 559 c 0
 610 622 569 646 459 646 c 2
 312 646 l 1
 260 382 l 1
215 -206 m 1
 223 -164 l 1
 240 -167 256 -169 270 -169 c 0
 309 -169 330 -156 330 -131 c 0
 330 -108 310 -96 262 -92 c 1
 269 -54 l 1
 358 -56 397 -77 397 -124 c 0
 397 -175 346 -211 273 -211 c 0
 255 -211 236 -209 215 -206 c 1
EndSplineSet
EndChar
StartChar: rcommaaccent
Encoding: 325 343 125
Width: 333
Flags: W
HStem: -211 42<83.5 108.5 82 129> 0 20 458 84<379 382> 510 20<181 278 278 278>
VStem: 149 67<-143.5 -119.5>
LayerCount: 2
Fore
SplineSet
75 0 m 1x68
 181 530 l 1
 278 530 l 1xd8
 258 430 l 1
 306 508 351 542 407 542 c 0
 413 542 422 541 430 540 c 2
 434 539 l 1
 416 450 l 1
 400 455 387 458 377 458 c 0
 340 458 297 424 242 349 c 1
 171 0 l 1
 75 0 l 1x68
34 -206 m 1
 42 -164 l 1
 59 -167 75 -169 89 -169 c 0
 128 -169 149 -156 149 -131 c 0
 149 -108 129 -96 81 -92 c 1
 88 -54 l 1
 177 -56 216 -77 216 -124 c 0
 216 -175 165 -211 93 -211 c 0
 74 -211 55 -209 34 -206 c 1
EndSplineSet
EndChar
StartChar: Rcaron
Encoding: 272 344 37
Width: 722
Flags: MW
HStem: 0 20 305 77<260 375 375 416 260 431 245 375> 646 77<312 459 312 312>
VStem: 610 108<534.5 590.5>
LayerCount: 2
Fore
SplineSet
81 0 m 1
 226 723 l 1
 527 723 l 2
 659 723 718 680 718 582 c 0
 718 478 646 386 527 338 c 1
 701 0 l 1
 575 0 l 1
 431 305 l 1
 245 305 l 1
 184 0 l 1
 81 0 l 1
260 382 m 1
 375 382 l 2
 457 382 502 392 537 419 c 0
 580 453 610 510 610 559 c 0
 610 622 569 646 459 646 c 2
 312 646 l 1
 260 382 l 1
668 940 m 1
 519 783 l 1
 413 783 l 1
 326 940 l 1
 398 940 l 1
 477 841 l 1
 478 841 l 1
 596 940 l 1
 668 940 l 1
EndSplineSet
EndChar
StartChar: rcaron
Encoding: 328 345 128
Width: 333
Flags: W
HStem: 0 20 458 84<379 382> 510 20<181 277 277 277>
LayerCount: 2
Fore
SplineSet
75 0 m 1
 181 530 l 1
 277 530 l 1xa0
 258 430 l 1
 306 508 351 542 407 542 c 0
 414 542 421 541 434 539 c 1
 416 450 l 1
 399 455 387 458 377 458 c 0
 340 458 297 424 241 349 c 1
 171 0 l 1xc0
 75 0 l 1
499 783 m 1
 350 626 l 1
 243 626 l 1
 157 783 l 1
 229 783 l 1
 307 684 l 1
 308 684 l 1
 426 783 l 1
 499 783 l 1
EndSplineSet
EndChar
StartChar: Scedilla
Encoding: 274 350 40
Width: 667
Flags: W
HStem: -211 43<254.5 273.5 245.5 296.5> -18 77<307.5 416.5 307.5 428.5> 0 20 664 77<419 494.5>
VStem: 167 104<517.5 532.5> 313 69<-140 -112> 540 110<159 228>
LayerCount: 2
Fore
SplineSet
64 25 m 1x5e
 85 127 l 1
 175 80 259 59 356 59 c 0
 477 59 540 109 540 204 c 0
 540 252 510 277 413 311 c 2
 321 343 l 2
 217 380 167 432 167 505 c 0
 167 560 190 616 230 659 c 0
 282 715 361 741 477 741 c 0
 555 741 625 732 705 710 c 1
 686 616 l 1
 605 649 534 664 455 664 c 0
 337 664 271 619 271 540 c 0
 271 495 306 464 388 435 c 2
 481 403 l 2
 603 360 650 313 650 233 c 0
 650 85 521 -18 336 -18 c 0
 252 -18 169 -5 64 25 c 1x5e
294 0 m 1xae
 341 0 l 1
 301 -53 l 1
 357 -57 382 -78 382 -119 c 0
 382 -168 328 -211 265 -211 c 0
 244 -211 220 -207 197 -201 c 1
 205 -161 l 1
 220 -166 237 -168 254 -168 c 0
 293 -168 313 -154 313 -126 c 0
 313 -98 289 -87 231 -85 c 1
 294 0 l 1xae
EndSplineSet
EndChar
StartChar: scedilla
Encoding: 329 351 129
Width: 500
Flags: MW
HStem: -211 42<180 199.5 172 222> -12 72<219.5 289.5 219.5 302> 0 20 470 72<313 375.5>
VStem: 136 99<378.5 417.5 378.5 420.5> 177 69 378 99<122 166.5>
LayerCount: 2
Fore
SplineSet
61 19 m 1
 79 107 l 1
 140 74 191 60 248 60 c 0
 331 60 378 93 378 151 c 0
 378 182 360 201 313 217 c 2
 233 245 l 2
 167 269 136 307 136 366 c 0
 136 475 226 542 371 542 c 0
 412 542 453 537 509 526 c 1
 493 446 l 1
 445 462 400 470 351 470 c 0
 275 470 235 443 235 392 c 0
 235 365 253 347 291 333 c 2
 362 308 l 2
 439 282 477 238 477 176 c 0
 477 67 374 -12 230 -12 c 0x5a
 176 -12 125 -3 61 19 c 1
220 0 m 1
 267 0 l 1
 227 -53 l 1
 283 -57 308 -78 308 -119 c 0
 308 -168 253 -211 191 -211 c 0
 169 -211 147 -208 123 -201 c 1
 131 -161 l 1
 146 -166 163 -169 181 -169 c 0
 218 -169 239 -154 239 -127 c 0
 239 -99 215 -87 156 -85 c 1xa4
 220 0 l 1
EndSplineSet
EndChar
StartChar: Scaron
Encoding: 138 352 39
Width: 667
Flags: MW
HStem: -18 77<307.5 416.5 307.5 428.5> 664 77<419 494.5>
VStem: 167 104<517.5 532.5> 540 110<159 228>
LayerCount: 2
Fore
SplineSet
64 25 m 1
 85 127 l 1
 175 80 259 59 356 59 c 0
 477 59 540 109 540 204 c 0
 540 252 510 277 413 311 c 2
 321 343 l 2
 217 380 167 432 167 505 c 0
 167 560 190 616 230 659 c 0
 282 715 361 741 477 741 c 0
 555 741 625 732 705 710 c 1
 686 616 l 1
 605 649 534 664 455 664 c 0
 337 664 271 619 271 540 c 0
 271 495 306 464 388 435 c 2
 481 403 l 2
 603 360 650 313 650 233 c 0
 650 85 521 -18 336 -18 c 0
 252 -18 169 -5 64 25 c 1
687 940 m 1
 538 783 l 1
 432 783 l 1
 345 940 l 1
 418 940 l 1
 496 841 l 1
 497 841 l 1
 615 940 l 1
 687 940 l 1
EndSplineSet
EndChar
StartChar: scaron
Encoding: 154 353 103
Width: 500
Flags: MW
HStem: -12 72<219.5 289.5 219.5 302> 470 72<313 375.5>
VStem: 136 99<378.5 417.5 378.5 420.5> 378 99<122 166.5>
LayerCount: 2
Fore
SplineSet
61 19 m 1
 79 107 l 1
 140 74 191 60 248 60 c 0
 331 60 378 93 378 151 c 0
 378 182 360 201 313 217 c 2
 233 245 l 2
 167 269 136 307 136 366 c 0
 136 475 226 542 371 542 c 0
 412 542 453 537 509 526 c 1
 493 446 l 1
 445 462 400 470 351 470 c 0
 275 470 235 443 235 392 c 0
 235 365 253 347 291 333 c 2
 362 308 l 2
 439 282 477 238 477 176 c 0
 477 67 374 -12 230 -12 c 0xf0
 176 -12 125 -3 61 19 c 1
596 783 m 1
 447 626 l 1
 340 626 l 1
 254 783 l 1
 326 783 l 1
 404 684 l 1
 405 684 l 1
 523 783 l 1
 596 783 l 1
EndSplineSet
EndChar
StartChar: Tcommaaccent
Encoding: 282 354 53
Width: 611
Flags: MW
HStem: -211 42<247 265.5 238.5 289> 0 20 646 77<155 384 139 745 486 486 486 730>
VStem: 305 69<-140.5 -113>
LayerCount: 2
Fore
SplineSet
254 0 m 1
 384 646 l 1
 139 646 l 1
 155 723 l 1
 745 723 l 1
 730 646 l 1
 486 646 l 1
 357 0 l 1
 254 0 l 1
286 0 m 1
 334 0 l 1
 294 -53 l 1
 349 -57 374 -78 374 -119 c 0
 374 -168 320 -211 258 -211 c 0
 236 -211 214 -208 190 -201 c 1
 198 -161 l 1
 213 -166 230 -169 247 -169 c 0
 284 -169 305 -154 305 -127 c 0
 305 -99 281 -87 223 -85 c 1
 286 0 l 1
EndSplineSet
EndChar
StartChar: tcommaaccent
Encoding: 317 355 117
Width: 278
Flags: W
HStem: -211 42<107 126.5 99 149.5> -12 20 0 20 458 72<121 166 106 181 277 365>
VStem: 97 98<87 90.5> 166 69<-140.5 -113>
LayerCount: 2
Fore
SplineSet
272 65 m 1x58
 258 -3 l 1
 235 -10 220 -12 201 -12 c 0
 132 -12 97 20 97 82 c 0
 97 99 100 124 104 146 c 2
 166 458 l 1
 106 458 l 1
 121 530 l 1
 181 530 l 1
 200 626 l 1
 299 635 l 1
 277 530 l 1
 380 530 l 1
 365 458 l 1
 263 458 l 1
 204 164 l 2
 199 138 195 112 195 101 c 0
 195 73 209 60 239 60 c 0
 251 60 262 62 272 65 c 1x58
147 0 m 1xa4
 194 0 l 1
 154 -53 l 1
 210 -57 235 -78 235 -119 c 0
 235 -168 181 -211 118 -211 c 0
 96 -211 74 -208 50 -201 c 1
 58 -161 l 1
 73 -166 90 -169 108 -169 c 0
 145 -169 166 -154 166 -127 c 0
 166 -99 142 -87 83 -85 c 1
 147 0 l 1xa4
EndSplineSet
EndChar
StartChar: Tcaron
Encoding: 275 356 41
Width: 611
Flags: MW
HStem: 0 20 646 77<155 384 139 745 486 486 486 730>
LayerCount: 2
Fore
SplineSet
254 0 m 1
 384 646 l 1
 139 646 l 1
 155 723 l 1
 745 723 l 1
 730 646 l 1
 486 646 l 1
 357 0 l 1
 254 0 l 1
664 940 m 1
 515 783 l 1
 409 783 l 1
 323 940 l 1
 395 940 l 1
 473 841 l 1
 474 841 l 1
 592 940 l 1
 664 940 l 1
EndSplineSet
EndChar
StartChar: tcaron
Encoding: 311 357 105
Width: 375
Flags: MW
HStem: -12 20 458 72<121 166 106 181 277 366>
VStem: 97 98<87 90.5>
LayerCount: 2
Fore
SplineSet
272 65 m 1
 259 -3 l 1
 236 -10 220 -12 201 -12 c 0
 133 -12 97 20 97 82 c 0
 97 99 100 123 104 146 c 2
 166 458 l 1
 106 458 l 1
 121 530 l 1
 181 530 l 1
 201 626 l 1
 299 635 l 1
 277 530 l 1
 380 530 l 1
 366 458 l 1
 263 458 l 1
 204 164 l 2
 198 137 195 112 195 101 c 0
 195 73 209 60 239 60 c 0
 252 60 262 62 272 65 c 1
376 602 m 1
 382 631 l 1
 410 640 424 663 437 720 c 2
 439 727 l 1
 401 727 l 1
 421 824 l 1
 517 824 l 1
 500 740 l 2
 483 654 442 609 376 602 c 1
EndSplineSet
EndChar
StartChar: umacron
Encoding: 326 363 126
Width: 556
Flags: W
HStem: -12 83<227.5 237> 0 20 510 20<176 272 272 272 491 587 587 587> 627 72<244 572 258 557>
VStem: 93 101<55.5 126.5>
LayerCount: 2
Fore
SplineSet
385 0 m 1
 405 99 l 1
 333 21 273 -12 201 -12 c 0
 129 -12 93 22 93 89 c 0
 93 106 95 127 100 149 c 2
 176 530 l 1
 272 530 l 1
 202 181 l 2
 197 152 194 133 194 120 c 0
 194 88 211 71 244 71 c 0xa8
 299 71 354 106 422 186 c 1
 491 530 l 1
 587 530 l 1
 481 0 l 1x68
 385 0 l 1
244 627 m 1
 258 699 l 1
 572 699 l 1
 557 627 l 1x10
 244 627 l 1
EndSplineSet
EndChar
StartChar: Uring
Encoding: 276 366 46
Width: 722
Flags: MW
HStem: -18 77<333 415> 703 20<227 330 330 330 697 787 787 787> 771 42<512 553 512 558> 951 42<537 578>
VStem: 124 102<135 177> 432 43<849.5 889.5 849.5 895> 615 43<874 914>
LayerCount: 2
Fore
SplineSet
227 723 m 1
 330 723 l 1
 238 267 l 2
 230 226 226 195 226 173 c 0
 226 97 280 59 386 59 c 0
 517 59 575 113 605 263 c 2
 697 723 l 1
 787 723 l 1
 695 265 l 2
 676 167 652 113 610 72 c 0
 550 12 467 -18 363 -18 c 0
 204 -18 124 43 124 163 c 0
 124 191 128 228 136 268 c 2
 227 723 l 1
567 993 m 0
 620 993 658 956 658 904 c 0
 658 834 594 771 522 771 c 0
 469 771 432 808 432 860 c 0
 432 930 496 993 567 993 c 0
560 951 m 0
 514 951 475 912 475 867 c 0
 475 832 494 813 530 813 c 0
 576 813 615 852 615 896 c 0
 615 932 596 951 560 951 c 0
EndSplineSet
EndChar
StartChar: uring
Encoding: 312 367 110
Width: 556
Flags: W
HStem: -12 83<227.5 237> 0 20 510 20<176 272 272 272 491 587 587 587> 626 42<390 431 390 436> 806 42<415 456>
VStem: 93 43 93 101<55.5 126.5> 277 43
LayerCount: 2
Fore
SplineSet
385 0 m 1
 405 99 l 1
 333 21 273 -12 201 -12 c 0
 129 -12 93 22 93 89 c 0
 93 106 95 127 100 149 c 2
 176 530 l 1
 272 530 l 1
 202 181 l 2
 197 152 194 133 194 120 c 0
 194 88 211 71 244 71 c 0xa2
 299 71 354 106 422 186 c 1
 491 530 l 1
 587 530 l 1
 481 0 l 1x62
 385 0 l 1
446 848 m 0
 499 848 537 811 537 759 c 0
 537 689 472 626 400 626 c 0
 348 626 310 663 310 715 c 0x1d
 310 785 374 848 446 848 c 0
438 806 m 0
 392 806 353 767 353 723 c 0
 353 687 372 668 408 668 c 0
 454 668 494 707 494 752 c 0
 494 787 474 806 438 806 c 0
EndSplineSet
EndChar
StartChar: Uhungarumlaut
Encoding: 277 368 47
Width: 722
Flags: MW
HStem: -18 77<333 415> 703 20<227 330 330 330 697 787 787 787>
VStem: 124 102<135 177>
LayerCount: 2
Fore
SplineSet
227 723 m 1
 330 723 l 1
 238 267 l 2
 230 226 226 195 226 173 c 0
 226 97 280 59 386 59 c 0
 517 59 575 113 605 263 c 2
 697 723 l 1
 787 723 l 1
 695 265 l 2
 676 167 652 113 610 72 c 0
 550 12 467 -18 363 -18 c 0
 204 -18 124 43 124 163 c 0
 124 191 128 228 136 268 c 2
 227 723 l 1
402 783 m 1
 551 940 l 1
 644 940 l 1
 456 783 l 1
 402 783 l 1
574 783 m 1
 722 940 l 1
 816 940 l 1
 628 783 l 1
 574 783 l 1
EndSplineSet
EndChar
StartChar: uhungarumlaut
Encoding: 313 369 111
Width: 556
Flags: W
HStem: -12 83<227.5 237> 0 20 510 20<176 272 272 272 491 587 587 587>
VStem: 93 101<55.5 126.5>
LayerCount: 2
Fore
SplineSet
385 0 m 1
 405 99 l 1
 333 21 273 -12 201 -12 c 0
 129 -12 93 22 93 89 c 0
 93 106 95 127 100 149 c 2
 176 530 l 1
 272 530 l 1
 202 181 l 2
 197 152 194 133 194 120 c 0
 194 88 211 71 244 71 c 0xb0
 299 71 354 106 422 186 c 1
 491 530 l 1
 587 530 l 1
 481 0 l 1x70
 385 0 l 1
267 626 m 1
 415 783 l 1
 509 783 l 1
 321 626 l 1
 267 626 l 1
438 626 m 1
 587 783 l 1
 681 783 l 1
 493 626 l 1
 438 626 l 1
EndSplineSet
EndChar
StartChar: Uogonek
Encoding: 293 370 65
Width: 722
Flags: W
HStem: -181 46<350 419.5> -18 77<333 415> 0 20 703 20<227 330 330 330 697 787 787 787>
VStem: 124 102<135 177> 293 70<-111 -95>
LayerCount: 2
Fore
SplineSet
227 723 m 1x5c
 330 723 l 1
 238 267 l 2
 230 226 226 195 226 173 c 0
 226 97 280 59 386 59 c 0
 517 59 575 113 605 263 c 2
 697 723 l 1
 787 723 l 1
 695 265 l 2
 676 167 652 113 610 72 c 0
 550 12 467 -18 363 -18 c 0
 204 -18 124 43 124 163 c 0
 124 191 128 228 136 268 c 2
 227 723 l 1x5c
393 0 m 1xac
 444 0 l 1
 388 -32 363 -62 363 -99 c 0
 363 -123 379 -135 411 -135 c 0
 428 -135 443 -132 457 -127 c 1
 449 -167 l 1
 426 -177 404 -181 378 -181 c 0
 322 -181 293 -160 293 -118 c 0
 293 -72 324 -36 393 0 c 1xac
EndSplineSet
EndChar
StartChar: uogonek
Encoding: 327 371 127
Width: 556
Flags: W
HStem: -181 46<345.5 415> -12 83<227.5 237> 0 20 510 20<176 272 272 272 491 587 587 587>
VStem: 93 70 93 101<55.5 126.5>
LayerCount: 2
Fore
SplineSet
385 0 m 1
 405 99 l 1
 333 21 273 -12 201 -12 c 0
 129 -12 93 22 93 89 c 0
 93 106 95 127 100 149 c 2
 176 530 l 1
 272 530 l 1
 202 181 l 2
 197 152 194 133 194 120 c 0
 194 88 211 71 244 71 c 0x54
 299 71 354 106 422 186 c 1
 491 530 l 1
 587 530 l 1
 481 0 l 1x34
 385 0 l 1
388 0 m 1
 440 0 l 1
 383 -32 358 -62 358 -99 c 0
 358 -123 374 -135 406 -135 c 0
 424 -135 438 -132 452 -127 c 1
 444 -167 l 1
 421 -177 399 -181 374 -181 c 0
 317 -181 288 -160 288 -118 c 0xa8
 288 -72 319 -35 388 0 c 1
EndSplineSet
EndChar
StartChar: Ydieresis
Encoding: 159 376 54
Width: 667
Flags: MW
HStem: 0 20 703 20<159 276 276 276 702 797 797 797> 784 84<363 464 380 447 572 640>
LayerCount: 2
Fore
SplineSet
274 0 m 1
 334 301 l 1
 159 723 l 1
 276 723 l 1
 415 388 l 1
 702 723 l 1
 797 723 l 1
 437 304 l 1
 376 0 l 1
 274 0 l 1
363 784 m 1
 380 868 l 1
 464 868 l 1
 447 784 l 1
 363 784 l 1
555 784 m 1
 572 868 l 1
 657 868 l 1
 640 784 l 1
 555 784 l 1
EndSplineSet
EndChar
StartChar: Zacute
Encoding: 278 377 49
Width: 611
Flags: MW
HStem: 0 83<49 66 66 66 189 560> 646 77<217 566 202 705 690 690>
LayerCount: 2
Fore
SplineSet
49 0 m 1
 66 83 l 1
 566 646 l 1
 202 646 l 1
 217 723 l 1
 705 723 l 1
 690 646 l 1
 189 83 l 1
 577 83 l 1
 560 0 l 1
 49 0 l 1
389 783 m 1
 538 940 l 1
 649 940 l 1
 461 783 l 1
 389 783 l 1
EndSplineSet
EndChar
StartChar: zacute
Encoding: 314 378 113
Width: 500
Flags: MW
HStem: 0 72<36 51 51 51 169 464> 458 72<157 431 142 564 549 549>
LayerCount: 2
Fore
SplineSet
36 0 m 1
 51 72 l 1
 431 458 l 1
 142 458 l 1
 157 530 l 1
 564 530 l 1
 549 458 l 1
 169 72 l 1
 478 72 l 1
 464 0 l 1xc0
 36 0 l 1
303 626 m 1
 451 783 l 1
 563 783 l 1
 375 626 l 1
 303 626 l 1
EndSplineSet
EndChar
StartChar: Zdotaccent
Encoding: 280 379 51
Width: 611
Flags: MW
HStem: 0 83<49 66 66 66 189 560> 646 77<217 566 202 705 690 690> 783 96<419 534 438 515>
LayerCount: 2
Fore
SplineSet
49 0 m 1
 66 83 l 1
 566 646 l 1
 202 646 l 1
 217 723 l 1
 705 723 l 1
 690 646 l 1
 189 83 l 1
 577 83 l 1
 560 0 l 1
 49 0 l 1
419 783 m 1
 438 879 l 1
 534 879 l 1
 515 783 l 1
 419 783 l 1
EndSplineSet
EndChar
StartChar: zdotaccent
Encoding: 316 380 115
Width: 500
Flags: MW
HStem: 0 72<36 51 51 51 169 464> 458 72<157 431 142 564 549 549> 627 96<326 441 345 422>
LayerCount: 2
Fore
SplineSet
36 0 m 1
 51 72 l 1
 431 458 l 1
 142 458 l 1
 157 530 l 1
 564 530 l 1
 549 458 l 1
 169 72 l 1
 478 72 l 1
 464 0 l 1xc0
 36 0 l 1
326 627 m 1
 345 723 l 1
 441 723 l 1
 422 627 l 1x20
 326 627 l 1
EndSplineSet
EndChar
StartChar: Zcaron
Encoding: 279 381 50
Width: 611
Flags: MW
HStem: 0 83<49 66 66 66 189 560> 646 77<217 566 202 705 690 690>
LayerCount: 2
Fore
SplineSet
49 0 m 1
 66 83 l 1
 566 646 l 1
 202 646 l 1
 217 723 l 1
 705 723 l 1
 690 646 l 1
 189 83 l 1
 577 83 l 1
 560 0 l 1
 49 0 l 1
670 940 m 1
 521 783 l 1
 414 783 l 1
 328 940 l 1
 400 940 l 1
 479 841 l 1
 480 841 l 1
 597 940 l 1
 670 940 l 1
EndSplineSet
EndChar
StartChar: zcaron
Encoding: 315 382 114
Width: 500
Flags: MW
HStem: 0 72<36 51 51 51 169 464> 458 72<157 431 142 564 549 549>
LayerCount: 2
Fore
SplineSet
36 0 m 1
 51 72 l 1
 431 458 l 1
 142 458 l 1
 157 530 l 1
 564 530 l 1
 549 458 l 1
 169 72 l 1
 478 72 l 1
 464 0 l 1xc0
 36 0 l 1
579 783 m 1
 430 626 l 1
 323 626 l 1
 237 783 l 1
 309 783 l 1
 387 684 l 1
 388 684 l 1
 506 783 l 1
 579 783 l 1
EndSplineSet
EndChar
StartChar: florin
Encoding: 131 402 216
Width: 556
Flags: MW
HStem: 350 72<125 192 111 221 125 290 319 397> 669 72<489 538.5>
LayerCount: 2
Fore
SplineSet
-5 -145 m 1
 192 350 l 1
 111 350 l 1
 125 422 l 1
 221 422 l 1
 242 473 l 2
 316 656 411 741 540 741 c 0
 573 741 608 736 645 727 c 1
 616 651 l 1
 583 663 552 669 525 669 c 0
 453 669 398 619 357 518 c 2
 319 422 l 1
 411 422 l 1
 397 350 l 1
 290 350 l 1
 93 -145 l 1
 -5 -145 l 1
EndSplineSet
EndChar
StartChar: Scommaaccent
Encoding: 332 536 132
Width: 667
Flags: MW
HStem: -211 42<265 290.5 264 310.5> -18 77<307.5 416.5 307.5 428.5> 664 77<419 494.5>
VStem: 167 104<517.5 532.5> 331 67<-143.5 -119.5> 540 110<159 228>
LayerCount: 2
Fore
SplineSet
64 25 m 1
 85 127 l 1
 175 80 259 59 356 59 c 0
 477 59 540 109 540 204 c 0
 540 252 510 277 413 311 c 2
 321 343 l 2
 217 380 167 432 167 505 c 0
 167 560 190 616 230 659 c 0
 282 715 361 741 477 741 c 0
 555 741 625 732 705 710 c 1
 686 616 l 1
 605 649 534 664 455 664 c 0
 337 664 271 619 271 540 c 0
 271 495 306 464 388 435 c 2
 481 403 l 2
 603 360 650 313 650 233 c 0
 650 85 521 -18 336 -18 c 0
 252 -18 169 -5 64 25 c 1
215 -206 m 1
 224 -164 l 1
 240 -167 257 -169 271 -169 c 0
 310 -169 331 -156 331 -131 c 0
 331 -108 310 -96 262 -92 c 1
 270 -54 l 1
 360 -56 398 -77 398 -124 c 0
 398 -175 347 -211 274 -211 c 0
 256 -211 237 -209 215 -206 c 1
EndSplineSet
EndChar
StartChar: scommaaccent
Encoding: 310 537 104
Width: 500
Flags: MW
HStem: -211 42<188.5 213.5 187 234> -12 72<219.5 289.5 219.5 302> 470 72<313 375.5>
VStem: 136 99<378.5 417.5 378.5 420.5> 176 67 378 99<122 166.5>
LayerCount: 2
Fore
SplineSet
61 19 m 1
 79 107 l 1
 140 74 191 60 248 60 c 0
 331 60 378 93 378 151 c 0
 378 182 360 201 313 217 c 2
 233 245 l 2
 167 269 136 307 136 366 c 0
 136 475 226 542 371 542 c 0
 412 542 453 537 509 526 c 1
 493 446 l 1
 445 462 400 470 351 470 c 0
 275 470 235 443 235 392 c 0
 235 365 253 347 291 333 c 2
 362 308 l 2
 439 282 477 238 477 176 c 0
 477 67 374 -12 230 -12 c 0x74
 176 -12 125 -3 61 19 c 1
139 -206 m 1
 147 -164 l 1
 164 -167 180 -169 194 -169 c 0
 233 -169 254 -156 254 -131 c 0
 254 -108 234 -96 186 -92 c 1
 193 -54 l 1
 282 -56 321 -77 321 -124 c 0
 321 -175 270 -211 198 -211 c 0x88
 179 -211 160 -209 139 -206 c 1
EndSplineSet
EndChar
StartChar: circumflex
Encoding: 136 710 286
Width: 333
Flags: W
LayerCount: 2
Fore
SplineSet
121 626 m 1
 269 783 l 1
 376 783 l 1
 462 626 l 1
 390 626 l 1
 312 725 l 1
 311 725 l 1
 193 626 l 1
 121 626 l 1
EndSplineSet
EndChar
StartChar: caron
Encoding: 345 711 287
Width: 333
Flags: W
LayerCount: 2
Fore
SplineSet
494 783 m 1
 345 626 l 1
 238 626 l 1
 152 783 l 1
 224 783 l 1
 302 684 l 1
 303 684 l 1
 421 783 l 1
 494 783 l 1
EndSplineSet
EndChar
StartChar: breve
Encoding: 346 728 288
Width: 333
Flags: MW
HStem: 626 72<277.5 335 277.5 336.5>
LayerCount: 2
Fore
SplineSet
160 783 m 1
 221 783 l 1
 222 724 249 698 306 698 c 0
 364 698 401 724 426 783 c 1
 486 783 l 1
 455 685 381 626 292 626 c 0
 214 626 159 680 159 757 c 2x80
 160 783 l 1
EndSplineSet
EndChar
StartChar: ring
Encoding: 344 730 283
Width: 333
Flags: MW
HStem: 626 42<283 324 283 329> 806 42<308 349>
VStem: 203 43<705 745 705 750> 387 43<729.5 769.5>
LayerCount: 2
Fore
SplineSet
339 848 m 0
 392 848 430 811 430 759 c 0
 430 689 365 626 293 626 c 0
 241 626 203 663 203 715 c 0xf0
 203 785 267 848 339 848 c 0
331 806 m 0
 285 806 246 767 246 723 c 0
 246 687 265 668 301 668 c 0
 347 668 387 707 387 752 c 0
 387 787 367 806 331 806 c 0
EndSplineSet
EndChar
StartChar: ogonek
Encoding: 348 731 292
Width: 333
Flags: MW
HStem: -181 46<119.5 189> 0 20
VStem: 62 70<-111 -95>
LayerCount: 2
Fore
SplineSet
162 0 m 1
 214 0 l 1
 157 -32 132 -62 132 -99 c 0
 132 -123 148 -135 180 -135 c 0
 198 -135 212 -132 226 -127 c 1
 218 -167 l 1
 195 -177 173 -181 148 -181 c 0
 91 -181 62 -160 62 -118 c 0xe0
 62 -72 93 -35 162 0 c 1
EndSplineSet
EndChar
StartChar: tilde
Encoding: 152 732 289
Width: 333
Flags: W
HStem: 627 61<364 380 364 392> 680 61<225.5 241.5>
LayerCount: 2
Fore
SplineSet
189 627 m 1
 129 627 l 1
 151 707 185 741 243 741 c 0x40
 265 741 287 734 304 723 c 2
 330 704 l 2
 346 693 359 688 369 688 c 0
 391 688 406 704 417 741 c 1
 477 741 l 1
 455 661 421 627 363 627 c 0x80
 340 627 318 634 301 646 c 2
 276 664 l 2
 262 674 247 680 236 680 c 0x40
 215 680 200 664 189 627 c 1
EndSplineSet
EndChar
StartChar: hungarumlaut
Encoding: 347 733 290
Width: 333
Flags: W
LayerCount: 2
Fore
SplineSet
101 626 m 1
 249 783 l 1
 343 783 l 1
 155 626 l 1
 101 626 l 1
272 626 m 1
 421 783 l 1
 515 783 l 1
 327 626 l 1
 272 626 l 1
EndSplineSet
EndChar
StartChar: endash
Encoding: 150 8211 243
Width: 556
Flags: MW
HStem: 265 60<102 572 114 560>
LayerCount: 2
Fore
SplineSet
102 265 m 1
 114 325 l 1
 572 325 l 1
 560 265 l 1
 102 265 l 1
EndSplineSet
EndChar
StartChar: quoteleft
Encoding: 145 8216 228
Width: 222
Flags: W
LayerCount: 2
Fore
SplineSet
320 771 m 1
 313 735 l 1
 280 726 257 689 244 624 c 2
 242 614 l 1
 289 614 l 1
 265 494 l 1
 144 494 l 1
 165 598 l 2
 187 706 237 761 320 771 c 1
EndSplineSet
EndChar
StartChar: quoteright
Encoding: 146 8217 268
Width: 222
Flags: W
LayerCount: 2
Fore
SplineSet
156 494 m 1
 163 530 l 1
 196 539 219 575 232 641 c 2
 234 650 l 1
 187 650 l 1
 212 771 l 1
 332 771 l 1
 311 666 l 2
 289 558 239 503 156 494 c 1
EndSplineSet
EndChar
StartChar: quotesinglbase
Encoding: 130 8218 267
Width: 222
Flags: MW
HStem: 0 20
LayerCount: 2
Fore
SplineSet
22 -144 m 1
 29 -108 l 1
 62 -99 84 -67 96 -9 c 2
 98 0 l 1
 51 0 l 1
 75 121 l 1
 195 121 l 1
 174 17 l 2
 154 -84 105 -136 22 -144 c 1
EndSplineSet
EndChar
StartChar: quotedblleft
Encoding: 147 8220 230
Width: 333
Flags: W
LayerCount: 2
Fore
SplineSet
447 771 m 1
 440 735 l 1
 413 721 397 689 383 625 c 2
 381 614 l 1
 416 614 l 1
 396 518 l 1
 300 518 l 1
 316 599 l 2
 337 699 379 754 447 771 c 1
278 771 m 1
 271 735 l 1
 246 723 226 684 214 625 c 1
 213 614 l 1
 247 614 l 1
 228 518 l 1
 131 518 l 1
 147 599 l 2
 168 698 210 754 278 771 c 1
EndSplineSet
EndChar
StartChar: quotedblright
Encoding: 148 8221 229
Width: 333
Flags: W
LayerCount: 2
Fore
SplineSet
144 518 m 1
 151 554 l 1
 177 567 194 600 207 663 c 2
 210 675 l 1
 175 675 l 1
 195 771 l 1
 291 771 l 1
 275 690 l 2
 254 590 212 534 144 518 c 1
313 518 m 1
 320 554 l 1
 345 565 365 604 376 663 c 2
 378 675 l 1
 344 675 l 1
 363 771 l 1
 460 771 l 1
 443 690 l 2
 423 589 381 535 313 518 c 1
EndSplineSet
EndChar
StartChar: quotedblbase
Encoding: 132 8222 231
Width: 333
Flags: MW
HStem: 0 20
LayerCount: 2
Fore
SplineSet
2 -157 m 1
 9 -121 l 1
 35 -107 52 -75 65 -11 c 1
 68 0 l 1
 33 0 l 1
 52 96 l 1
 149 96 l 1
 133 15 l 2
 112 -84 70 -140 2 -157 c 1
170 -157 m 1
 178 -121 l 1
 204 -107 220 -75 234 -11 c 2
 236 0 l 1
 202 0 l 1
 221 96 l 1
 317 96 l 1
 301 15 l 2
 281 -84 238 -140 170 -157 c 1
EndSplineSet
EndChar
StartChar: dagger
Encoding: 134 8224 251
Width: 556
Flags: MW
HStem: 703 20<375 471 471 471>
LayerCount: 2
Fore
SplineSet
201 -145 m 1
 324 410 l 1
 153 397 l 1
 167 470 l 1
 334 458 l 1
 375 723 l 1
 471 723 l 1
 406 458 l 1
 577 470 l 1
 563 397 l 1
 396 410 l 1
 298 -145 l 1
 201 -145 l 1
EndSplineSet
EndChar
StartChar: daggerdbl
Encoding: 135 8225 252
Width: 556
Flags: MW
HStem: 703 20<375 471 471 471>
LayerCount: 2
Fore
SplineSet
201 -145 m 1
 266 120 l 1
 95 108 l 1
 110 181 l 1
 276 168 l 1
 324 410 l 1
 153 397 l 1
 167 470 l 1
 334 458 l 1
 375 723 l 1
 471 723 l 1
 406 458 l 1
 577 470 l 1
 563 397 l 1
 396 410 l 1
 348 168 l 1
 519 181 l 1
 505 108 l 1
 339 120 l 1
 298 -145 l 1
 201 -145 l 1
EndSplineSet
EndChar
StartChar: ellipsis
Encoding: 133 8230 225
Width: 1000
Flags: MW
HStem: 0 96<121 237 140 217 472 549 803 880>
LayerCount: 2
Fore
SplineSet
121 0 m 1
 140 96 l 1
 237 96 l 1
 217 0 l 1
 121 0 l 1
453 0 m 1
 472 96 l 1
 568 96 l 1
 549 0 l 1
 453 0 l 1
784 0 m 1
 803 96 l 1
 899 96 l 1
 880 0 l 1
 784 0 l 1
EndSplineSet
EndChar
StartChar: perthousand
Encoding: 137 8240 279
Width: 1000
Flags: W
HStem: -18 20 0 48<480.5 531 480.5 544.5 823.5 874> 313 48<523.5 574 866.5 917> 362 48<227.5 278 227.5 291.5> 675 48<270.5 321> 721 20<709 776 776 776>
VStem: 115 73<466 543 466 558> 361 72<541 618.5> 369 72<104 181 104 195.5> 614 72<179 256.5> 712 72<104 181 104 196> 957 73<179 256.5>
LayerCount: 2
Fore
SplineSet
312 723 m 0x7b
 392 723 433 679 433 592 c 0
 433 461 348 362 235 362 c 0
 155 362 115 406 115 493 c 0
 115 623 200 723 312 723 c 0x7b
301 675 m 0
 240 675 188 592 188 494 c 0
 188 438 208 410 247 410 c 0
 309 410 361 492 361 590 c 0
 361 647 341 675 301 675 c 0
565 361 m 0
 645 361 686 317 686 230 c 0
 686 99 601 0 488 0 c 0
 409 0 369 44 369 130 c 0x78f0
 369 261 454 361 565 361 c 0
554 313 m 0
 493 313 441 230 441 132 c 0
 441 76 461 48 500 48 c 0
 562 48 614 130 614 228 c 0
 614 285 594 313 554 313 c 0
908 361 m 0
 989 361 1030 317 1030 230 c 0
 1030 99 944 0 831 0 c 0
 752 0 712 44 712 130 c 0
 712 262 797 361 908 361 c 0
897 313 m 0
 836 313 784 230 784 132 c 0
 784 76 804 48 843 48 c 0
 905 48 957 130 957 228 c 0
 957 285 937 313 897 313 c 0
26 -18 m 1x84f0
 709 741 l 1
 776 741 l 1
 92 -18 l 1
 26 -18 l 1x84f0
EndSplineSet
EndChar
StartChar: guilsinglleft
Encoding: 139 8249 239
Width: 333
Flags: W
LayerCount: 2
Fore
SplineSet
366 446 m 1
 185 265 l 1
 294 84 l 1
 238 48 l 1
 89 265 l 1
 325 482 l 1
 366 446 l 1
EndSplineSet
EndChar
StartChar: guilsinglright
Encoding: 155 8250 238
Width: 333
Flags: W
LayerCount: 2
Fore
SplineSet
73 84 m 1
 254 265 l 1
 145 446 l 1
 200 482 l 1
 350 265 l 1
 114 48 l 1
 73 84 l 1
EndSplineSet
EndChar
StartChar: fraction
Encoding: 342 8260 277
Width: 167
Flags: MW
HStem: -18 20 721 20<464 530 530 530>
LayerCount: 2
Fore
SplineSet
-219 -18 m 1
 464 741 l 1
 530 741 l 1
 -153 -18 l 1
 -219 -18 l 1
EndSplineSet
EndChar
StartChar: Euro
Encoding: 128 8364 217
Width: 556
Flags: MW
HStem: -18 80<360 384.5> 262 60<89 138 52 143 240 427> 418 61<120 164 83 185 282 523> 664 76<485 537.5>
LayerCount: 2
Fore
SplineSet
427 262 m 1
 236 262 l 1
 238 195 245 161 264 127 c 0
 289 84 331 62 389 62 c 0
 432 62 481 73 547 97 c 1
 530 13 l 1
 458 -9 408 -18 361 -18 c 0
 287 -18 230 3 192 45 c 0
 158 84 134 157 137 220 c 2
 137 230 l 1
 138 262 l 1
 52 262 l 1
 89 322 l 1
 143 322 l 1
 148 352 155 384 164 418 c 1
 83 418 l 1
 120 479 l 1
 185 479 l 1
 223 567 252 611 301 655 c 0
 362 711 440 740 530 740 c 0
 573 740 616 733 670 719 c 1
 653 630 l 1
 600 654 559 664 516 664 c 0
 417 664 346 608 282 479 c 1
 560 479 l 1
 523 418 l 1
 260 418 l 1
 251 384 245 354 240 322 c 1
 464 322 l 1
 427 262 l 1
EndSplineSet
EndChar
StartChar: trademark
Encoding: 153 8482 264
Width: 1000
Flags: MW
HStem: 663 60<253 362 241 578 446 446 446 567>
LayerCount: 2
Fore
SplineSet
302 361 m 1
 362 663 l 1
 241 663 l 1
 253 723 l 1
 578 723 l 1
 567 663 l 1
 446 663 l 1
 386 361 l 1
 302 361 l 1
567 361 m 1
 639 723 l 1
 753 723 l 1
 787 514 l 1
 902 723 l 1
 1006 723 l 1
 934 361 l 1
 849 361 l 1
 902 624 l 1
 776 391 l 1
 718 391 l 1
 681 603 l 1
 633 361 l 1
 567 361 l 1
EndSplineSet
EndChar
StartChar: minus
Encoding: 341 8722 260
Width: 584
Flags: MW
HStem: 253 72<102 598 116 584>
LayerCount: 2
Fore
SplineSet
102 253 m 1
 116 325 l 1
 598 325 l 1
 584 253 l 1
 102 253 l 1
EndSplineSet
EndChar
StartChar: fi
Encoding: 336 64257 197
Width: 500
Flags: W
HStem: 0 20 458 72<121 177 106 191 288 432> 627 96<466 582 485 563> 712 72<367 396.5>
LayerCount: 2
Fore
SplineSet
85 0 m 1xd0
 177 458 l 1
 106 458 l 1
 121 530 l 1
 191 530 l 1
 204 594 l 2
 231 721 292 784 391 784 c 0
 414 784 434 780 461 771 c 1
 446 694 l 1
 423 706 405 712 388 712 c 0
 346 712 316 675 302 604 c 2
 288 530 l 1
 543 530 l 1
 437 0 l 1
 341 0 l 1
 432 458 l 1
 273 458 l 1
 182 0 l 1
 85 0 l 1xd0
466 627 m 1x20
 485 723 l 1
 582 723 l 1
 563 627 l 1
 466 627 l 1x20
EndSplineSet
EndChar
StartChar: fl
Encoding: 337 64258 198
Width: 500
Flags: MW
HStem: 0 20 458 72<121 176 106 191 287 360> 711 72<366 396.5 340.5 399>
LayerCount: 2
Fore
SplineSet
85 0 m 1
 176 458 l 1
 106 458 l 1
 121 530 l 1
 191 530 l 1
 204 594 l 2
 229 719 291 783 390 783 c 0
 403 783 442 779 459 776 c 0
 478 773 491 771 495 771 c 2
 591 771 l 1
 437 0 l 1
 340 0 l 1
 480 699 l 1
 460 703 l 2
 440 707 406 711 392 711 c 0
 340 711 319 686 302 604 c 2
 287 530 l 1
 374 530 l 1
 360 458 l 1
 273 458 l 1
 181 0 l 1
 85 0 l 1
EndSplineSet
EndChar
StartChar: commaaccent
Encoding: 350 -1 294
Width: 333
Flags: MW
HStem: -211 42<91.5 116.5 90 137>
VStem: 157 67<-143.5 -119.5>
LayerCount: 2
Fore
SplineSet
42 -206 m 1
 50 -164 l 1
 67 -167 83 -169 97 -169 c 0
 136 -169 157 -156 157 -131 c 0
 157 -108 137 -96 89 -92 c 1
 96 -54 l 1
 185 -56 224 -77 224 -124 c 0
 224 -175 173 -211 101 -211 c 0xc0
 82 -211 63 -209 42 -206 c 1
EndSplineSet
EndChar
